<?xml version="1.0" encoding="utf-8"?>
<!-- Generator: Adobe Illustrator 16.0.0, SVG Export Plug-In . SVG Version: 6.00 Build 0)  -->
<!DOCTYPE svg PUBLIC "-//W3C//DTD SVG 1.1//EN" "http://www.w3.org/Graphics/SVG/1.1/DTD/svg11.dtd">
<svg version="1.1" id="Layer_1" xmlns="http://www.w3.org/2000/svg" xmlns:xlink="http://www.w3.org/1999/xlink" x="0px" y="0px"
	 width="760px" height="160px" viewBox="0 0 760 160" enable-background="new 0 0 760 160" xml:space="preserve">
<image overflow="visible" width="756" height="210" xlink:href="../../../goldencrop/assets/img/logo.png"  transform="matrix(1 0 0 1 11.6606 219.3257)">
</image>
<g>
	<path fill="#40984C" d="M162.418,36.999h18.096v86.072h-18.096V36.999z"/>
	<path fill="#40984C" d="M263.222,36.999v86.072h-17.284v-7.192c-4.486,5.414-10.982,8.121-19.488,8.121
		c-5.878,0-11.194-1.314-15.95-3.945c-4.756-2.627-8.488-6.379-11.194-11.252c-2.708-4.872-4.06-10.516-4.06-16.936
		c0-6.418,1.352-12.064,4.06-16.936c2.706-4.872,6.438-8.622,11.194-11.252c4.756-2.628,10.072-3.944,15.95-3.944
		c7.964,0,14.19,2.514,18.676,7.54V36.999H263.222z M240.95,104.453c3.016-3.132,4.524-7.326,4.524-12.586
		c0-5.258-1.508-9.454-4.524-12.586s-6.806-4.698-11.368-4.698c-4.64,0-8.468,1.566-11.484,4.698s-4.524,7.328-4.524,12.586
		c0,5.26,1.508,9.454,4.524,12.586c3.016,3.133,6.844,4.698,11.484,4.698C234.144,109.151,237.934,107.585,240.95,104.453z"/>
	<path fill="#40984C" d="M343.029,96.971h-47.212c0.85,3.868,2.86,6.922,6.032,9.164c3.17,2.244,7.114,3.365,11.832,3.365
		c3.248,0,6.128-0.482,8.642-1.451c2.512-0.966,4.852-2.494,7.018-4.582l9.628,10.44C333.091,120.634,324.507,124,313.217,124
		c-7.038,0-13.264-1.373-18.676-4.119c-5.414-2.744-9.59-6.554-12.528-11.426c-2.94-4.872-4.408-10.4-4.408-16.588
		c0-6.108,1.45-11.618,4.35-16.53c2.9-4.91,6.882-8.738,11.948-11.484c5.064-2.744,10.73-4.118,16.994-4.118
		c6.108,0,11.638,1.316,16.588,3.944c4.948,2.63,8.834,6.4,11.658,11.31c2.822,4.912,4.234,10.614,4.234,17.11
		C343.376,92.331,343.261,93.955,343.029,96.971z M300.688,76.903c-2.784,2.32-4.486,5.492-5.104,9.512h30.74
		c-0.62-3.944-2.32-7.094-5.104-9.454c-2.784-2.358-6.188-3.538-10.208-3.538C306.913,73.423,303.473,74.583,300.688,76.903z"/>
	<path fill="#40984C" d="M414.426,66.695c4.757,4.64,7.135,11.524,7.135,20.648v35.728h-18.097V90.127
		c0-4.948-1.084-8.642-3.248-11.078c-2.166-2.436-5.298-3.654-9.396-3.654c-4.564,0-8.198,1.412-10.904,4.234
		c-2.708,2.824-4.06,7.018-4.06,12.586v30.856H357.76V60.663h17.284v7.308c2.396-2.628,5.374-4.658,8.933-6.09
		c3.556-1.43,7.462-2.146,11.716-2.146C403.425,59.735,409.67,62.055,414.426,66.695z"/>
	<path fill="#40984C" d="M490.753,119.069c-6.689-3.597-11.948-8.584-15.776-14.964c-3.827-6.38-5.741-13.59-5.741-21.634
		c0-8.042,1.914-15.254,5.741-21.634c3.828-6.38,9.087-11.368,15.776-14.964c6.688-3.596,14.21-5.394,22.562-5.394
		c7.036,0,13.398,1.238,19.082,3.712c5.685,2.476,10.459,6.032,14.326,10.672l-12.063,11.136c-5.492-6.34-12.296-9.512-20.416-9.512
		c-5.028,0-9.513,1.102-13.456,3.306c-3.944,2.204-7.019,5.278-9.223,9.222c-2.203,3.944-3.306,8.43-3.306,13.456
		c0,5.028,1.103,9.512,3.306,13.456c2.204,3.944,5.278,7.018,9.223,9.222c3.943,2.204,8.428,3.306,13.456,3.306
		c8.12,0,14.924-3.208,20.416-9.628l12.063,11.136c-3.867,4.719-8.662,8.314-14.384,10.789c-5.724,2.474-12.104,3.711-19.14,3.711
		C504.923,124.462,497.441,122.666,490.753,119.069z"/>
	<path fill="#40984C" d="M586.451,62.055c3.673-1.546,7.906-2.32,12.702-2.32v16.704c-2.012-0.154-3.363-0.232-4.06-0.232
		c-5.182,0-9.242,1.45-12.18,4.35c-2.94,2.9-4.408,7.25-4.408,13.05v29.464h-18.097V60.663h17.284v8.236
		C579.857,65.883,582.777,63.603,586.451,62.055z"/>
	<path fill="#40984C" d="M623.688,119.88c-5.221-2.744-9.301-6.554-12.238-11.426c-2.94-4.872-4.408-10.4-4.408-16.588
		c0-6.186,1.468-11.716,4.408-16.588c2.938-4.872,7.018-8.68,12.238-11.426c5.22-2.744,11.115-4.118,17.689-4.118
		c6.572,0,12.45,1.374,17.632,4.118c5.181,2.746,9.24,6.554,12.181,11.426c2.938,4.872,4.407,10.402,4.407,16.588
		c0,6.188-1.47,11.716-4.407,16.588c-2.94,4.872-7,8.682-12.181,11.426c-5.182,2.746-11.06,4.119-17.632,4.119
		C634.804,124,628.908,122.626,623.688,119.88z M652.804,104.453c2.977-3.132,4.467-7.326,4.467-12.586
		c0-5.258-1.49-9.454-4.467-12.586c-2.978-3.132-6.785-4.698-11.426-4.698c-4.64,0-8.468,1.566-11.483,4.698
		c-3.017,3.132-4.524,7.328-4.524,12.586c0,5.26,1.508,9.454,4.524,12.586c3.016,3.133,6.844,4.698,11.483,4.698
		C646.019,109.151,649.826,107.585,652.804,104.453z"/>
	<path fill="#40984C" d="M742.704,63.737c4.756,2.668,8.486,6.42,11.193,11.252c2.706,4.834,4.061,10.46,4.061,16.878
		c0,6.42-1.354,12.046-4.061,16.878c-2.707,4.834-6.438,8.584-11.193,11.252C737.948,122.666,732.67,124,726.87,124
		c-7.966,0-14.23-2.513-18.792-7.541v29.115h-18.097V60.663h17.284v7.192c4.484-5.412,11.021-8.12,19.604-8.12
		C732.67,59.735,737.948,61.069,742.704,63.737z M735.164,104.453c2.976-3.132,4.466-7.326,4.466-12.586
		c0-5.258-1.49-9.454-4.466-12.586c-2.979-3.132-6.786-4.698-11.426-4.698c-4.641,0-8.45,1.566-11.427,4.698
		c-2.978,3.132-4.466,7.328-4.466,12.586c0,5.26,1.488,9.454,4.466,12.586c2.977,3.133,6.786,4.698,11.427,4.698
		C728.378,109.151,732.186,107.585,735.164,104.453z"/>
</g>
<g>
	<path fill="#40984C" d="M145.813,114.694c-12.82,24.58-38.54,41.37-68.18,41.37c-35.95,0-66.14-24.7-74.51-58.061
		c0.41,0.82,0.86,1.63,1.34,2.43c3.83,6.38,9.11,11.37,15.83,14.97c6.73,3.6,14.31,5.39,22.74,5.39c5.88,0,11.72-0.89,17.52-2.67
		c5.8-1.771,10.9-4.33,15.31-7.65v-32.95h-17.17v23.78c-4.33,2.32-9.2,3.49-14.62,3.49c-5.1,0-9.64-1.11-13.63-3.31
		c-3.98-2.21-7.09-5.28-9.33-9.22c-2.25-3.95-3.37-8.43-3.37-13.46c0-5.1,1.12-9.63,3.37-13.57c2.24-3.95,5.37-7,9.39-9.17
		c4.02-2.16,8.62-3.24,13.81-3.24c8.19,0,15.19,3.05,20.99,9.16l12.07-11.14c-3.95-4.56-8.82-8.04-14.62-10.44
		c-5.8-2.39-12.26-3.59-19.37-3.59c-8.51,0-16.17,1.8-22.97,5.39c-6.81,3.6-12.12,8.59-15.95,14.97c-0.32,0.53-0.62,1.06-0.91,1.61
		c8.95-32.51,38.73-56.38,74.08-56.38c29.15,0,54.51,16.23,67.53,40.15c-0.17-0.1-0.34-0.2-0.52-0.29
		c-6.73-3.63-14.31-5.45-22.74-5.45c-8.43,0-16.03,1.82-22.79,5.45c-6.77,3.64-12.07,8.64-15.89,15.02
		c-3.83,6.38-5.75,13.56-5.75,21.52c0,7.97,1.92,15.14,5.75,21.52c3.82,6.38,9.12,11.39,15.89,15.02
		c6.76,3.641,14.36,5.45,22.79,5.45c8.43,0,16.01-1.81,22.74-5.45C145.033,115.133,145.423,114.914,145.813,114.694z"/>
</g>
<rect x="-171.667" y="-31.667" fill="#E4AB16" width="78" height="82.235"/>
<rect x="-171.667" y="96.333" fill="#252840" width="86" height="76"/>
<rect x="-164.667" y="219.326" fill="#05060A" width="84" height="58.008"/>
<rect x="-166.667" y="294.333" fill="#7D8087" width="76" height="100"/>
<rect x="-145.667" y="439.333" fill="#F0F2F8" width="92" height="78"/>
<rect x="248.333" y="-121.365" fill="#0B58CB" width="95.043" height="67.07"/>
<rect x="363.333" y="-120.164" fill="#E94037" width="113" height="64.667"/>
<rect x="502.333" y="-112.664" fill="#0B58CB" width="96.82" height="74.118"/>
<rect x="195.246" y="189.708" fill="#40984C" width="82.359" height="73.467"/>
<rect x="335" y="204.195" fill="#E4AB16" width="56.667" height="88.27"/>
<path fill="#E4AB16" d="M121.333,50.574c-15.83,0-28.67,12.83-28.67,28.67c0,15.83,12.84,28.65,28.67,28.65s28.67-12.82,28.67-28.65
	C150.003,63.403,137.163,50.574,121.333,50.574z M138.063,92.184c-0.19,0.27-0.48,0.36-0.81,0.36c-1.94,0.02-3.85-0.27-5.73-0.74
	c-2.58-0.64-5.19-0.73-7.81-0.34c-1.42,0.21-2.8,0.59-4.21,0.82c-2.17,0.36-4.35,0.39-6.52,0.07c-1.42-0.22-2.8-0.6-4.21-0.81
	c-1.13-0.17-2.28-0.21-3.42-0.28c-0.37-0.03-0.65-0.15-0.82-0.48c-0.15-0.29-0.12-0.58,0.07-0.85c0.18-0.27,0.46-0.39,0.77-0.36
	c1.13,0.07,2.26,0.15,3.39,0.24c0.11,0.01,0.23,0.02,0.4,0.04c0-0.72,0-1.4-0.01-2.07c-0.01-0.07-0.15-0.17-0.24-0.19
	c-0.49-0.14-1.01-0.21-1.47-0.41c-1.33-0.56-2.04-1.63-2.19-3.03c-0.1-0.92-0.07-1.86-0.07-2.79c-0.01-0.46,0.35-0.8,0.78-0.82
	c0.42-0.02,0.74,0.26,0.84,0.72c0,0.02,0.01,0.04,0.01,0.07c0.03,0.22-0.02,0.51,0.11,0.64c0.12,0.13,0.42,0.08,0.64,0.14
	c0.51,0.15,1.01,0.33,1.6,0.52v-0.92c0-0.69,0-0.69-0.67-0.8c-1.78-0.27-3.08-1.6-3.25-3.4c-0.08-0.92-0.06-1.84-0.07-2.76
	c0-0.46,0.33-0.78,0.75-0.81c0.48-0.03,0.78,0.21,0.87,0.7c0.04,0.22,0.04,0.45,0.06,0.69c0.38,0.08,0.77,0.14,1.14,0.25
	c0.37,0.12,0.72,0.28,1.14,0.38c-0.08-0.1-0.16-0.2-0.25-0.3c-0.74-0.76-1.18-1.69-1.25-2.74c-0.03-0.51,0.12-1.06,0.3-1.55
	c0.28-0.77,0.82-1.39,1.45-1.93c0.33-0.28,0.75-0.34,1.05-0.09c1.17,0.98,2.01,2.15,1.84,3.78c-0.1,0.98-0.55,1.81-1.22,2.53
	c-0.08,0.1-0.17,0.19-0.32,0.36c0.16-0.04,0.22-0.04,0.28-0.06c0.58-0.19,1.15-0.42,1.73-0.54c0.35-0.07,0.38-0.22,0.38-0.49
	c0-0.36,0.25-0.67,0.55-0.75c0.36-0.1,0.72,0.02,0.92,0.32c0.06,0.1,0.12,0.22,0.12,0.33c-0.04,1.04,0.02,2.11-0.16,3.13
	c-0.29,1.71-1.65,2.83-3.39,2.96c-0.27,0.02-0.39,0.11-0.38,0.39c0.02,0.43,0.01,0.85,0.01,1.35c0.16-0.07,0.26-0.12,0.37-0.15
	c0.52-0.16,1.03-0.34,1.56-0.46c0.28-0.06,0.42-0.12,0.41-0.44c-0.02-0.41,0.21-0.7,0.57-0.82c0.35-0.11,0.64,0,0.86,0.27
	c0.08,0.1,0.16,0.24,0.15,0.35c-0.03,1.08,0.03,2.18-0.16,3.24c-0.28,1.6-1.66,2.71-3.29,2.87c-0.48,0.04-0.48,0.04-0.48,0.53
	c0,0.61,0.01,1.22-0.01,1.83c-0.01,0.27,0.09,0.37,0.35,0.43c2.13,0.54,4.29,0.62,6.47,0.5c0.84-0.05,1.67-0.22,2.51-0.33
	c0.3-0.04,0.45-0.16,0.4-0.48c-0.02-0.19,0-0.38,0-0.58c-0.41-0.06-0.79-0.1-1.15-0.18c-2.18-0.47-3.51-1.99-3.66-4.23
	c-0.06-0.95-0.05-1.9-0.06-2.86c0-0.57,0.33-0.91,0.83-0.91c0.5,0.01,0.81,0.35,0.83,0.93c0.02,0.66,0.03,0.65,0.7,0.74
	c0.75,0.11,1.45,0.35,2.11,0.75c0.1,0.06,0.22,0.12,0.37,0.2v-2.35c-0.35-0.05-0.69-0.09-1.03-0.15c-2.2-0.42-3.61-1.99-3.75-4.22
	c-0.05-0.95-0.05-1.9-0.06-2.86c0-0.57,0.33-0.91,0.83-0.91s0.81,0.34,0.83,0.92c0.02,0.65,0.02,0.64,0.68,0.75
	c0.79,0.12,1.53,0.36,2.21,0.78c0.08,0.05,0.16,0.09,0.32,0.18v-1.35c0-0.75-0.01-0.71-0.72-0.83c-2.44-0.41-3.82-1.73-4.08-4.22
	c-0.1-0.98-0.06-1.97-0.07-2.96c0-0.55,0.37-0.93,0.84-0.93c0.46,0.01,0.8,0.39,0.82,0.92c0.01,0.22,0,0.45,0,0.69
	c0.56,0.11,1.12,0.18,1.64,0.34c0.52,0.17,1,0.43,1.53,0.67c0.06-0.27,0.07-0.51-0.16-0.75c-0.79-0.84-1.42-1.77-1.62-2.93
	c-0.16-0.9,0.02-1.73,0.42-2.53c0.39-0.8,0.95-1.48,1.62-2.07c0.43-0.38,0.79-0.38,1.21,0c1.02,0.92,1.81,1.99,2.05,3.38
	c0.16,0.92-0.03,1.79-0.49,2.59c-0.3,0.53-0.69,1.03-1.09,1.5c-0.22,0.25-0.28,0.49-0.2,0.83c0.08-0.04,0.16-0.06,0.23-0.1
	c0.79-0.48,1.63-0.79,2.55-0.83c0.31-0.02,0.4-0.14,0.39-0.45c-0.02-0.65,0.14-0.92,0.56-1.07c0.43-0.15,1.01,0.13,1.02,0.57
	c0.03,1.43,0.2,2.86-0.23,4.27c-0.54,1.75-1.81,2.64-3.52,3.02c-0.26,0.05-0.52,0.05-0.78,0.1c-0.09,0.02-0.24,0.11-0.24,0.18
	c-0.02,0.62-0.01,1.25-0.01,1.94c0.25-0.14,0.43-0.24,0.61-0.34c0.66-0.35,1.36-0.59,2.11-0.62c0.35-0.02,0.53-0.11,0.48-0.51
	c-0.02-0.19,0.01-0.41,0.08-0.59c0.12-0.32,0.49-0.51,0.81-0.47c0.35,0.05,0.69,0.31,0.69,0.63c0.02,1.42,0.2,2.84-0.22,4.23
	c-0.58,1.86-1.94,2.75-3.75,3.11c-0.11,0.03-0.23,0.04-0.35,0.06c-0.5,0.08-0.5,0.08-0.5,0.6v1.54c0.01,0.07,0.04,0.13,0.05,0.17
	c0.58-0.24,1.12-0.5,1.69-0.69c0.34-0.12,0.7-0.17,1.05-0.19c0.33-0.03,0.48-0.13,0.45-0.48c-0.05-0.46,0.04-0.86,0.54-1.04
	c0.44-0.16,1.03,0.12,1.03,0.58c0.01,1.41,0.2,2.83-0.23,4.23c-0.53,1.76-1.8,2.65-3.51,3.03c-0.19,0.04-0.38,0.06-0.57,0.08
	c-0.53,0.03-0.58,0.1-0.44,0.67c3.28-0.61,6.56-0.59,9.85,0.2c0.02-0.13,0.04-0.23,0.04-0.33c0.01-0.63,0-1.26,0.01-1.9
	c0-0.23-0.04-0.34-0.33-0.38c-2.31-0.3-3.66-1.83-3.67-4.17c-0.01-0.64,0-1.28,0-1.93c0.01-0.54,0.32-0.91,0.79-0.93
	c0.47-0.02,0.81,0.32,0.87,0.86c0.06,0.56,0.06,0.54,0.62,0.69c0.55,0.14,1.09,0.33,1.72,0.53v-0.84c0-0.74,0-0.74-0.71-0.87
	c-1.82-0.33-3.03-1.58-3.22-3.44c-0.09-0.9-0.06-1.81-0.06-2.71c0-0.47,0.32-0.79,0.74-0.82c0.48-0.03,0.79,0.21,0.87,0.7
	c0.04,0.22,0.04,0.45,0.06,0.64c0.76,0.23,1.5,0.45,2.28,0.68c-0.08-0.1-0.16-0.2-0.24-0.29c-0.74-0.77-1.19-1.7-1.26-2.75
	c-0.03-0.51,0.12-1.06,0.3-1.55c0.29-0.77,0.83-1.39,1.45-1.93c0.33-0.28,0.75-0.34,1.05-0.09c1.17,0.98,2.02,2.15,1.85,3.78
	c-0.11,0.98-0.56,1.81-1.22,2.53c-0.09,0.1-0.18,0.19-0.23,0.34c0.07-0.02,0.15-0.04,0.22-0.06c0.53-0.17,1.05-0.37,1.59-0.5
	c0.34-0.07,0.52-0.15,0.49-0.55c-0.03-0.34,0.27-0.65,0.58-0.72c0.39-0.08,0.74,0.06,0.92,0.39c0.04,0.07,0.08,0.15,0.08,0.23
	c-0.01,1.14,0.13,2.29-0.19,3.42c-0.46,1.54-1.76,2.6-3.37,2.71c-0.3,0.02-0.39,0.12-0.38,0.41c0.02,0.42,0.01,0.85,0.01,1.27
	c0.54-0.18,1.05-0.34,1.55-0.51c0.03,0,0.05-0.02,0.07-0.02c0.49,0.02,0.77-0.13,0.74-0.7c-0.02-0.34,0.4-0.62,0.77-0.61
	c0.38,0,0.77,0.27,0.79,0.64c0.03,1.23,0.18,2.46-0.24,3.66c-0.53,1.49-1.67,2.2-3.16,2.45c-0.51,0.08-0.52,0.05-0.52,0.57
	c0,0.68,0.02,1.36-0.01,2.04c-0.01,0.35,0.09,0.5,0.45,0.51c1.06,0.06,2.11,0.15,3.17,0.21c0.37,0.03,0.65,0.16,0.82,0.49
	C138.283,91.624,138.253,91.914,138.063,92.184z"/>
</svg>
