<?xml version="1.0" encoding="utf-8"?>
<!-- Generator: Adobe Illustrator 16.0.0, SVG Export Plug-In . SVG Version: 6.00 Build 0)  -->
<!DOCTYPE svg PUBLIC "-//W3C//DTD SVG 1.1//EN" "http://www.w3.org/Graphics/SVG/1.1/DTD/svg11.dtd">
<svg version="1.1" id="Layer_3" xmlns="http://www.w3.org/2000/svg" xmlns:xlink="http://www.w3.org/1999/xlink" x="0px" y="0px"
	 width="48px" height="48px" viewBox="290 380 32 32" enable-background="new 290 380 32 32" xml:space="preserve">
<g>
	<path fill="#FFFFFF" d="M298.963,397.868c-0.831-0.195-1.688-0.054-2.412,0.397c-2.964,1.843-3.408,5.363-3.203,7.151
		c0.186,1.613,1.549,2.831,3.171,2.831c0.121,0,0.245-0.007,0.368-0.021c1.736-0.2,2.991-1.767,2.811-3.512
		c-0.018-0.42,0.098-0.944,0.229-1.026c1.495-0.929,1.955-2.903,1.024-4.398C300.5,398.566,299.793,398.063,298.963,397.868
		L298.963,397.868z M299.172,402.479c-1.047,0.654-0.896,2.366-0.894,2.373c0.112,0.969-0.586,1.847-1.555,1.957
		c-0.98,0.115-1.848-0.595-1.958-1.555c-0.167-1.455,0.18-4.312,2.54-5.779c0.283-0.176,0.605-0.268,0.931-0.268
		c0.134,0,0.27,0.017,0.405,0.046c0.459,0.108,0.851,0.39,1.099,0.789C300.253,400.872,300,401.964,299.172,402.479L299.172,402.479
		z"/>
	<path fill="#FFFFFF" d="M298.594,401.66c-0.565,0.141-1.023,0.535-1.289,1.109c-0.259,0.564-0.291,1.23-0.078,1.661
		c0.062,0.125,0.188,0.198,0.32,0.198c0.053,0,0.107-0.013,0.158-0.039c0.176-0.086,0.249-0.3,0.162-0.477
		c-0.1-0.201-0.103-0.635,0.087-1.045c0.123-0.265,0.364-0.605,0.815-0.718c0.191-0.048,0.307-0.241,0.259-0.433
		C298.979,401.728,298.785,401.612,298.594,401.66L298.594,401.66z"/>
	<path fill="#FFFFFF" d="M304.724,397.795c0.418-0.038,0.947,0.052,1.035,0.18c0.484,0.702,1.214,1.172,2.053,1.326
		c0.194,0.036,0.388,0.053,0.581,0.053c0.642,0,1.27-0.194,1.808-0.567c0.703-0.483,1.174-1.214,1.327-2.054
		c0.152-0.839-0.029-1.688-0.516-2.389c-1.984-2.872-5.521-3.146-7.298-2.853c-1.602,0.263-2.752,1.683-2.674,3.302
		c0.006,0.122,0.019,0.245,0.039,0.366C301.364,396.883,302.989,398.063,304.724,397.795L304.724,397.795z M302.467,394.723
		c-0.044-0.896,0.593-1.681,1.48-1.828c1.443-0.237,4.313-0.027,5.894,2.259c0.27,0.39,0.369,0.858,0.286,1.323
		c-0.086,0.464-0.347,0.867-0.734,1.137c-0.389,0.27-0.86,0.37-1.323,0.285c-0.465-0.085-0.867-0.346-1.138-0.733
		c-0.479-0.693-1.437-0.802-1.989-0.802c-0.252,0-0.419,0.023-0.422,0.023c-0.963,0.159-1.873-0.496-2.03-1.459
		C302.476,394.857,302.469,394.79,302.467,394.723L302.467,394.723z"/>
	<path fill="#FFFFFF" d="M305.236,395.937c0.196-0.108,0.629-0.133,1.049,0.036c0.27,0.11,0.622,0.333,0.756,0.779
		c0.046,0.154,0.188,0.255,0.342,0.255c0.034,0,0.068-0.007,0.103-0.016c0.188-0.057,0.294-0.257,0.237-0.445
		c-0.17-0.558-0.585-0.996-1.172-1.233c-0.574-0.231-1.24-0.231-1.661,0.002c-0.172,0.095-0.234,0.313-0.137,0.485
		C304.847,395.972,305.064,396.034,305.236,395.937L305.236,395.937z"/>
	<path fill="#FFFFFF" d="M312.724,404.324c-0.116-0.844-0.555-1.595-1.235-2.109c-0.68-0.517-1.521-0.733-2.364-0.619
		c-3.458,0.476-5.298,3.508-5.839,5.225c-0.487,1.548,0.261,3.214,1.741,3.875c0.111,0.05,0.226,0.095,0.344,0.131
		c0.319,0.1,0.641,0.147,0.959,0.147c1.35,0,2.604-0.862,3.039-2.211c0.155-0.391,0.474-0.82,0.626-0.842
		c0.844-0.115,1.595-0.553,2.109-1.233C312.62,406.009,312.841,405.17,312.724,404.324L312.724,404.324z M310.969,405.827
		c-0.283,0.377-0.7,0.62-1.168,0.684c-1.21,0.166-1.777,1.784-1.783,1.803c-0.295,0.93-1.289,1.447-2.219,1.154
		c-0.065-0.021-0.129-0.044-0.191-0.072h-0.002c-0.818-0.365-1.233-1.288-0.963-2.146c0.439-1.396,1.921-3.862,4.675-4.241
		c0.081-0.012,0.162-0.017,0.244-0.017c0.383,0,0.754,0.123,1.063,0.359c0.377,0.283,0.62,0.699,0.686,1.167
		C311.375,404.987,311.254,405.452,310.969,405.827L310.969,405.827z"/>
	<path fill="#FFFFFF" d="M309.606,405.527c-0.575-0.103-1.153,0.072-1.63,0.488c-0.468,0.409-0.767,1.004-0.749,1.483
		c0.009,0.191,0.165,0.343,0.358,0.343h0.014c0.195-0.009,0.35-0.175,0.34-0.372c-0.008-0.224,0.166-0.621,0.506-0.918
		c0.219-0.193,0.577-0.403,1.036-0.324c0.192,0.036,0.378-0.097,0.413-0.289C309.93,405.747,309.799,405.562,309.606,405.527
		L309.606,405.527z"/>
	<path fill="#FFFFFF" d="M317.418,402.037c2.744-2.157,2.801-5.704,2.4-7.459c-0.358-1.583-1.848-2.641-3.458-2.465
		c-0.121,0.013-0.242,0.033-0.363,0.06c-1.709,0.389-2.785,2.086-2.411,3.799c0.063,0.415,0.006,0.947-0.115,1.043
		c-0.673,0.527-1.096,1.284-1.199,2.131c-0.1,0.847,0.133,1.683,0.66,2.353c0.527,0.671,1.283,1.096,2.131,1.198
		c0.13,0.017,0.259,0.023,0.387,0.023C316.161,402.719,316.849,402.481,317.418,402.037L317.418,402.037z M314.053,400.617
		c-0.291-0.373-0.42-0.833-0.363-1.302s0.291-0.89,0.662-1.18c0.959-0.754,0.632-2.445,0.629-2.457
		c-0.216-0.951,0.381-1.9,1.333-2.117c0.066-0.016,0.134-0.026,0.2-0.033c0.066-0.007,0.132-0.01,0.195-0.01
		c0.814,0,1.534,0.564,1.72,1.376c0.327,1.429,0.291,4.303-1.893,6.021c-0.372,0.293-0.835,0.421-1.303,0.365
		C314.763,401.224,314.345,400.988,314.053,400.617L314.053,400.617z"/>
	<path fill="#FFFFFF" d="M316.176,397.642c0.197-0.587,0.155-1.255-0.103-1.658c-0.105-0.165-0.326-0.214-0.491-0.109
		c-0.166,0.106-0.215,0.328-0.109,0.493c0.121,0.188,0.172,0.619,0.027,1.048c-0.092,0.275-0.295,0.64-0.73,0.803
		c-0.185,0.067-0.28,0.274-0.211,0.458c0.053,0.144,0.188,0.233,0.334,0.233c0.04,0,0.083-0.009,0.125-0.023
		C315.563,398.683,315.976,398.241,316.176,397.642L316.176,397.642z"/>
	<path fill="#FFFFFF" d="M292.063,388.45c0.167,0.836,0.65,1.559,1.359,2.032c0.531,0.355,1.142,0.538,1.767,0.538
		c0.209,0,0.421-0.02,0.631-0.062c3.423-0.682,5.078-3.82,5.516-5.566c0.396-1.576-0.453-3.193-1.969-3.765
		c-0.112-0.042-0.23-0.08-0.352-0.11c-1.699-0.425-3.43,0.604-3.868,2.298c-0.132,0.399-0.424,0.846-0.575,0.877
		c-0.836,0.167-1.559,0.649-2.032,1.359C292.067,386.761,291.897,387.613,292.063,388.45L292.063,388.45z M293.725,386.844
		c0.262-0.394,0.661-0.66,1.124-0.753c1.206-0.24,1.669-1.89,1.673-1.906c0.201-0.801,0.923-1.338,1.715-1.338
		c0.142,0,0.286,0.018,0.43,0.054c0.066,0.017,0.131,0.038,0.195,0.061c0.84,0.315,1.309,1.211,1.09,2.084
		c-0.355,1.42-1.688,3.971-4.412,4.514c-0.463,0.092-0.936-0.001-1.327-0.264c-0.394-0.261-0.66-0.66-0.752-1.124
		C293.369,387.708,293.462,387.237,293.725,386.844L293.725,386.844z"/>
	<path fill="#FFFFFF" d="M295.103,387.062c0.071,0.009,0.142,0.011,0.212,0.011c0.505,0,0.99-0.208,1.385-0.597
		c0.441-0.436,0.707-1.048,0.659-1.525c-0.019-0.195-0.194-0.34-0.391-0.318c-0.195,0.02-0.338,0.194-0.318,0.391
		c0.021,0.223-0.128,0.629-0.449,0.948c-0.208,0.205-0.551,0.438-1.015,0.385c-0.198-0.023-0.373,0.117-0.396,0.313
		C294.768,386.863,294.908,387.041,295.103,387.062L295.103,387.062z"/>
	<path fill="#FFFFFF" d="M312.425,384.841c-0.36,0.217-0.874,0.363-1.009,0.288c-0.741-0.421-1.603-0.527-2.425-0.301
		c-0.822,0.228-1.506,0.762-1.927,1.504c-0.422,0.742-0.528,1.603-0.302,2.425c0.227,0.822,0.76,1.507,1.504,1.927
		c1.073,0.609,2.18,0.841,3.228,0.841c1.915,0,3.633-0.777,4.585-1.445c1.327-0.934,1.745-2.712,0.97-4.137v-0.002
		c-0.059-0.107-0.123-0.211-0.194-0.311C315.847,384.197,313.864,383.845,312.425,384.841L312.425,384.841z M315.688,386.453
		c0.04,0.057,0.074,0.114,0.107,0.172c0.428,0.789,0.196,1.773-0.539,2.29c-1.198,0.842-3.872,1.901-6.29,0.531
		c-0.411-0.232-0.707-0.612-0.832-1.066c-0.126-0.456-0.067-0.932,0.166-1.343c0.234-0.411,0.613-0.706,1.067-0.832
		c0.155-0.043,0.314-0.065,0.473-0.065c0.302,0,0.6,0.079,0.87,0.23c1.065,0.604,2.495-0.338,2.511-0.349
		C314.023,385.46,315.13,385.654,315.688,386.453L315.688,386.453z"/>
	<path fill="#FFFFFF" d="M312.773,386.737c-0.129,0.182-0.507,0.393-0.959,0.422c-0.292,0.021-0.705-0.03-1.021-0.372
		c-0.133-0.145-0.358-0.155-0.504-0.022c-0.145,0.133-0.153,0.359-0.021,0.503c0.362,0.394,0.868,0.607,1.438,0.607
		c0.051,0,0.102-0.001,0.153-0.006c0.618-0.041,1.219-0.331,1.496-0.726c0.111-0.16,0.073-0.383-0.088-0.496
		C313.109,386.537,312.887,386.575,312.773,386.737L312.773,386.737z"/>
</g>
</svg>
