<?xml version="1.0" encoding="utf-8"?>
<!-- Generator: Adobe Illustrator 16.0.0, SVG Export Plug-In . SVG Version: 6.00 Build 0)  -->
<!DOCTYPE svg PUBLIC "-//W3C//DTD SVG 1.1//EN" "http://www.w3.org/Graphics/SVG/1.1/DTD/svg11.dtd">
<svg version="1.1" id="Layer_2" xmlns="http://www.w3.org/2000/svg" xmlns:xlink="http://www.w3.org/1999/xlink" x="0px" y="0px"
	 width="48px" height="48px" viewBox="290 380 32 32" enable-background="new 290 380 32 32" xml:space="preserve">
<g>
	<g>
		<path fill-rule="evenodd" clip-rule="evenodd" fill="#FFFFFF" d="M309.43,386.264c-0.009,2.18-1.176,3.709-2.922,4.2
			c-1.698,0.478-3.523-0.253-4.445-1.78c-0.924-1.532-0.724-3.495,0.517-4.786c0.809-0.842,1.646-1.658,2.476-2.48
			c0.292-0.29,0.531-0.287,0.83,0.01c0.821,0.816,1.647,1.628,2.452,2.46C309.073,384.649,309.424,385.578,309.43,386.264z
			 M305.487,389.229c0.081-0.122,0.163-0.236,0.236-0.357c1.195-1.998,0.782-3.922-0.264-5.82
			C304.169,385.093,304.174,387.938,305.487,389.229z M304.254,389.32c-0.898-1.721-1.038-3.479-0.309-5.355
			c-1,0.821-1.594,1.753-1.436,3.018C302.647,388.076,303.238,388.857,304.254,389.32z M306.646,389.337
			c1.033-0.465,1.642-1.261,1.772-2.378c0.145-1.254-0.442-2.189-1.441-2.993c0.367,0.925,0.525,1.822,0.455,2.748
			C307.361,387.641,307.089,388.51,306.646,389.337z"/>
		<path fill-rule="evenodd" clip-rule="evenodd" fill="#FFFFFF" d="M303.336,403.278c0.547-0.808,1.086-1.624,1.645-2.424
			c0.307-0.44,0.656-0.439,0.964,0c0.527,0.748,1.037,1.509,1.553,2.262c0.403-0.319,0.542-0.313,0.971,0.075
			c1.447,1.308,1.867,3.444,1.024,5.217c-0.854,1.796-2.763,2.795-4.754,2.491c-1.913-0.292-3.448-1.874-3.698-3.817
			c-0.178-1.384,0.216-2.593,1.147-3.625C302.686,402.906,302.816,402.897,303.336,403.278z M302.859,404.227
			c-1.267,1.327-1.121,3.578,0.284,4.847c1.457,1.315,3.709,1.154,4.978-0.366c1.328-1.594,0.855-3.681-0.173-4.595
			c-0.182,0.211-0.388,0.405-0.539,0.638c-0.498,0.769-0.968,1.558-1.474,2.322c-0.102,0.153-0.309,0.323-0.468,0.325
			c-0.16,0.002-0.331-0.187-0.478-0.313c-0.073-0.064-0.101-0.18-0.152-0.27C304.305,405.866,303.658,405.003,302.859,404.227z
			 M305.443,405.811c0.399-0.563,0.807-1.139,1.212-1.719c0.03-0.044,0.049-0.125,0.029-0.168c-0.313-0.729-0.707-1.408-1.227-2.052
			c-0.531,0.678-0.95,1.381-1.259,2.146c-0.021,0.054-0.015,0.147,0.019,0.191C304.625,404.751,305.039,405.285,305.443,405.811z"/>
		<path fill-rule="evenodd" clip-rule="evenodd" fill="#FFFFFF" d="M311.655,389.144c0.008-0.938,0.213-1.824,0.614-2.666
			c0.438-0.922,0.871-1.847,1.309-2.769c0.225-0.472,0.529-0.547,0.927-0.221c0.839,0.687,1.697,1.353,2.504,2.076
			c1.71,1.535,2.449,3.451,2.021,5.73c-0.272,1.451-1.458,2.468-2.985,2.714c-1.333,0.216-2.777-0.477-3.504-1.688
			C311.954,391.341,311.662,390.279,311.655,389.144z M314.263,384.54c-0.464,1.023-0.953,1.947-1.31,2.92
			c-0.574,1.57-0.383,3.101,0.549,4.492c0.578,0.862,1.45,1.218,2.476,1.055c1.063-0.169,1.819-0.794,2.06-1.847
			c0.386-1.681-0.085-3.192-1.258-4.423C316.029,385.952,315.14,385.297,314.263,384.54z"/>
		<path fill-rule="evenodd" clip-rule="evenodd" fill="#FFFFFF" d="M294.282,402.028c0.251-0.685,0.697-1.138,1.425-1.24
			c0.762-0.108,1.342,0.193,1.763,0.833c0.091,0.139,0.223,0.266,0.363,0.354c0.804,0.509,1.23,1.223,1.244,2.181
			c0.002,0.158,0.013,0.336,0.083,0.473c0.334,0.656,0.341,1.295-0.087,1.899c-0.431,0.607-1.042,0.812-1.768,0.698
			c-0.03-0.005-0.061-0.009-0.111-0.015c-0.036,0.078-0.073,0.16-0.112,0.24c-0.299,0.622-0.798,0.976-1.479,1.018
			c-0.669,0.041-1.191-0.251-1.576-0.808c-0.117-0.169-0.278-0.322-0.45-0.436c-0.807-0.536-1.197-1.281-1.193-2.246
			c0-0.117-0.01-0.25-0.064-0.351c-0.362-0.674-0.364-1.332,0.093-1.95S293.507,401.875,294.282,402.028z M298.085,404.195
			c-0.008-0.611-0.236-1.081-0.747-1.339c-0.334-0.169-0.551-0.396-0.728-0.714c-0.213-0.383-0.661-0.488-1.017-0.28
			c-0.343,0.199-0.462,0.615-0.273,0.996c0.1,0.204,0.223,0.396,0.327,0.597c0.156,0.301,0.089,0.591-0.162,0.728
			c-0.255,0.139-0.528,0.046-0.703-0.245c-0.133-0.222-0.244-0.457-0.392-0.667c-0.218-0.309-0.619-0.39-0.939-0.216
			c-0.334,0.181-0.479,0.571-0.337,0.928c0.045,0.114,0.134,0.215,0.167,0.331c0.054,0.192,0.125,0.396,0.105,0.586
			c-0.063,0.624,0.228,1.249,0.798,1.516c0.28,0.13,0.466,0.311,0.608,0.576c0.242,0.453,0.634,0.604,1.021,0.422
			c0.388-0.18,0.508-0.567,0.329-1.055c-0.139-0.381,0.083-0.758,0.449-0.708c0.16,0.021,0.33,0.154,0.443,0.283
			c0.294,0.333,0.675,0.433,1.017,0.222c0.348-0.214,0.459-0.641,0.232-1.031C298.107,404.815,297.989,404.514,298.085,404.195z"/>
		<path fill-rule="evenodd" clip-rule="evenodd" fill="#FFFFFF" d="M304.54,391.632c1.756,0.001,2.859,0.581,3.787,1.513
			c0.637,0.639,0.623,1.691,0.023,2.369c-0.587,0.664-1.56,0.775-2.3,0.259c-0.212-0.148-0.413-0.312-0.622-0.461
			c-0.43-0.308-0.817-0.283-1.194,0.094c-0.338,0.339-0.677,0.661-1.177,0.754c-0.691,0.13-1.389-0.152-1.776-0.739
			c-0.395-0.602-0.404-1.382,0.044-1.945C302.247,392.318,303.431,391.644,304.54,391.632z M305.322,392.624
			c-1.545,0.002-2.448,0.545-3.18,1.415c-0.242,0.288-0.196,0.696,0.07,0.957c0.267,0.262,0.659,0.287,0.958,0.047
			c0.145-0.116,0.269-0.257,0.403-0.385c0.686-0.655,1.607-0.73,2.378-0.189c0.22,0.154,0.427,0.326,0.646,0.479
			c0.345,0.239,0.752,0.198,1.008-0.093c0.262-0.299,0.274-0.761-0.017-1.043C306.854,393.101,306.007,392.621,305.322,392.624z"/>
		<path fill-rule="evenodd" clip-rule="evenodd" fill="#FFFFFF" d="M313.125,401.268c-0.29-0.019-0.52-0.014-0.742-0.053
			c-0.884-0.149-1.527-0.983-1.461-1.873c0.068-0.898,0.779-1.571,1.703-1.602c0.258-0.008,0.516,0.006,0.773,0.002
			c0.505-0.008,0.809-0.264,0.906-0.759c0.032-0.172,0.049-0.348,0.083-0.52c0.173-0.879,0.978-1.459,1.892-1.371
			c0.846,0.083,1.553,0.848,1.511,1.717c-0.072,1.55-0.672,2.839-1.996,3.725C314.969,401.086,314.05,401.309,313.125,401.268z
			 M313.108,400.271c1.761,0.108,3.545-1.07,3.692-3.429c0.024-0.375-0.245-0.697-0.598-0.756c-0.379-0.064-0.728,0.152-0.827,0.531
			c-0.055,0.208-0.075,0.426-0.117,0.639c-0.148,0.753-0.72,1.33-1.476,1.436c-0.375,0.052-0.761,0.024-1.143,0.042
			c-0.417,0.021-0.71,0.308-0.728,0.698c-0.019,0.392,0.276,0.751,0.67,0.804C312.755,400.26,312.933,400.26,313.108,400.271z"/>
		<path fill-rule="evenodd" clip-rule="evenodd" fill="#FFFFFF" d="M312.091,405.993c0.001-1.489,1.032-2.684,2.576-2.948
			c0.647-0.111,1.193-0.384,1.642-0.858c0.188-0.199,0.389-0.356,0.679-0.216c0.284,0.139,0.302,0.384,0.264,0.661
			c-0.097,0.714,0.105,1.354,0.44,1.987c1.059,2.002-0.424,4.39-2.685,4.354C313.396,408.946,312.091,407.612,312.091,405.993z
			 M316.2,403.627c-0.514,0.142-1.063,0.303-1.618,0.445c-1.113,0.287-1.757,1.439-1.404,2.53c0.351,1.081,1.53,1.649,2.59,1.247
			c1.069-0.406,1.57-1.635,1.101-2.68C316.634,404.647,316.414,404.119,316.2,403.627z"/>
		<path fill-rule="evenodd" clip-rule="evenodd" fill="#FFFFFF" d="M296.284,386.392c0.556,0,1.026,0.205,1.414,0.599
			c0.71,0.722,1.063,1.607,1.178,2.6c0.033,0.287,0.085,0.571,0.12,0.858c0.057,0.463-0.2,0.712-0.655,0.64
			c-0.56-0.09-1.126-0.155-1.677-0.284c-0.708-0.166-1.313-0.542-1.82-1.064c-0.561-0.579-0.71-1.419-0.394-2.153
			C294.766,386.852,295.479,386.388,296.284,386.392z M297.907,390.005c-0.048-0.897-0.288-1.68-0.911-2.308
			c-0.414-0.419-1.04-0.42-1.439-0.013c-0.385,0.393-0.369,1.011,0.046,1.416C296.234,389.717,297.016,389.958,297.907,390.005z"/>
		<path fill-rule="evenodd" clip-rule="evenodd" fill="#FFFFFF" d="M300.524,398.495c-0.021,1.173-0.959,2.101-2.091,2.042
			c-1.192-0.061-2.027-1.093-1.891-2.326c0.089-0.81,0.369-1.538,0.868-2.186c0.233-0.302,0.453-0.615,0.689-0.914
			c0.213-0.269,0.555-0.324,0.75-0.081c0.625,0.779,1.303,1.532,1.525,2.55C300.439,397.883,300.475,398.19,300.524,398.495z
			 M298.525,396.244c-0.632,0.643-1.003,1.482-1.004,2.253c-0.001,0.593,0.421,1.041,0.99,1.049
			c0.557,0.008,0.993-0.451,0.991-1.042C299.499,397.619,299.104,396.901,298.525,396.244z"/>
		<path fill-rule="evenodd" clip-rule="evenodd" fill="#FFFFFF" d="M307.041,397.078c0.686-0.055,1.299,0.081,1.86,0.434
			c0.787,0.491,1,1.45,0.482,2.168c-0.516,0.716-1.462,0.826-2.185,0.256c-0.425-0.333-0.73-0.756-0.912-1.261
			c-0.109-0.3-0.202-0.607-0.29-0.913c-0.108-0.375,0.094-0.657,0.483-0.682C306.676,397.069,306.873,397.078,307.041,397.078z
			 M307.144,398.079c0.104,0.447,0.319,0.791,0.649,1.062c0.287,0.234,0.601,0.214,0.783-0.049c0.176-0.254,0.102-0.546-0.199-0.737
			C308.008,398.121,307.605,398.019,307.144,398.079z"/>
		<path fill-rule="evenodd" clip-rule="evenodd" fill="#FFFFFF" d="M294.015,395.576c-1.17,0.002-1.829-0.465-1.989-1.287
			c-0.192-0.985,0.736-1.912,1.721-1.712c0.605,0.123,1.117,0.422,1.525,0.883c0.232,0.262,0.451,0.538,0.656,0.821
			c0.187,0.257,0.131,0.589-0.145,0.718C295.167,395.284,294.548,395.579,294.015,395.576z M294.724,394.368
			c-0.274-0.405-0.618-0.662-1.058-0.79c-0.306-0.088-0.575,0.057-0.653,0.343c-0.075,0.273,0.103,0.535,0.414,0.611
			C293.866,394.64,294.282,394.569,294.724,394.368z"/>
		<path fill-rule="evenodd" clip-rule="evenodd" fill="#FFFFFF" d="M314.818,386.679c0.367,0.026,0.487,0.249,0.548,0.532
			c0.251,1.137,0.506,2.273,0.759,3.409c0.055,0.251,0.119,0.501,0.17,0.754c0.064,0.326-0.09,0.578-0.379,0.639
			c-0.273,0.059-0.52-0.102-0.59-0.412c-0.319-1.417-0.635-2.834-0.943-4.254C314.299,386.961,314.516,386.673,314.818,386.679z"/>
		<path fill-rule="evenodd" clip-rule="evenodd" fill="#FFFFFF" d="M314.647,390.815c-0.021,0.329-0.148,0.504-0.403,0.552
			c-0.251,0.046-0.478-0.044-0.542-0.296c-0.177-0.696-0.34-1.397-0.472-2.104c-0.046-0.246,0.129-0.433,0.377-0.493
			c0.252-0.06,0.485,0.038,0.552,0.28C314.348,389.458,314.497,390.172,314.647,390.815z"/>
		<path fill-rule="evenodd" clip-rule="evenodd" fill="#FFFFFF" d="M316.646,387.816c0.249,0.015,0.406,0.155,0.462,0.386
			c0.151,0.641,0.296,1.283,0.431,1.927c0.06,0.283-0.105,0.524-0.367,0.593c-0.253,0.067-0.524-0.082-0.593-0.364
			c-0.158-0.649-0.305-1.301-0.438-1.956C316.072,388.074,316.321,387.804,316.646,387.816z"/>
	</g>
</g>
</svg>
