<?xml version="1.0" encoding="utf-8"?>
<!-- Generator: Adobe Illustrator 16.0.0, SVG Export Plug-In . SVG Version: 6.00 Build 0)  -->
<!DOCTYPE svg PUBLIC "-//W3C//DTD SVG 1.1//EN" "http://www.w3.org/Graphics/SVG/1.1/DTD/svg11.dtd">
<svg version="1.1" id="Layer_2" xmlns="http://www.w3.org/2000/svg" xmlns:xlink="http://www.w3.org/1999/xlink" x="0px" y="0px"
	 width="48px" height="48px" viewBox="290 380 32 32" enable-background="new 290 380 32 32" xml:space="preserve">
<path fill="#FFFFFF" d="M295.247,402.896c-0.181,0-0.301,0.12-0.301,0.302c0,0.181,0.12,0.301,0.301,0.301
	c0.241,0,1.054,0.331,1.235,0.723c0.06,0.121,0.151,0.181,0.271,0.181c0.03,0,0.091,0,0.121-0.03
	c0.151-0.06,0.211-0.241,0.151-0.391C296.753,403.317,295.699,402.896,295.247,402.896z"/>
<path fill="#FFFFFF" d="M302.658,402.896c-0.181,0-0.302,0.09-0.332,0.271c-0.03,0.15,0.091,0.302,0.271,0.331
	c0.542,0.061,1.054,0.422,1.266,0.903c0.059,0.12,0.15,0.181,0.271,0.181c0.03,0,0.09,0,0.12-0.03c0.151-0.06,0.21-0.24,0.151-0.392
	C304.073,403.438,303.41,402.956,302.658,402.896z"/>
<path fill="#FFFFFF" d="M309.707,403.197c-0.18,0-0.303,0.149-0.303,0.301c0,0.15,0.15,0.301,0.303,0.301h0.029
	c0.512,0,0.994,0.271,1.234,0.753c0.063,0.091,0.152,0.151,0.271,0.151c0.061,0,0.09,0,0.15-0.031
	c0.152-0.09,0.213-0.271,0.121-0.391C311.152,403.589,310.49,403.167,309.707,403.197z"/>
<path fill="#FFFFFF" d="M320.49,404.943L320.49,404.943c-0.24-2.198-1.777-3.434-3.977-3.223c-0.18,0.03-0.33,0.03-0.512,0.061
	c0.09-0.061,0.182-0.15,0.242-0.241c0.691-0.724,0.994-1.657,0.873-2.681c-0.301-2.561-1.688-3.796-4.008-3.585
	c-0.18,0.03-0.361,0.03-0.541,0.061c0.211-0.151,0.393-0.332,0.541-0.542c0.635-0.783,0.904-1.748,0.725-2.681
	c-0.451-2.32-1.807-3.435-3.977-3.224c-0.121,0-0.211,0.03-0.33,0.03c0.059-0.06,0.119-0.12,0.18-0.15
	c0.572-0.663,0.842-1.476,0.723-2.349c-0.15-1.356-0.783-2.591-1.688-3.284c-0.662-0.512-1.475-0.752-2.319-0.632
	c-2.32,0.301-3.916,1.928-3.916,3.977c0,0.994,0.361,1.868,1.024,2.5c-0.211-0.061-0.452-0.091-0.693-0.091
	c-0.15-0.029-0.331-0.029-0.482-0.029c-0.963,0.029-1.867,0.421-2.53,1.145c-0.663,0.723-1.024,1.626-0.994,2.59
	c0,1.295,0.482,2.29,1.326,2.892c-0.422-0.121-0.904-0.181-1.446-0.181c-1.084-0.03-2.018,0.331-2.711,0.994
	c-0.663,0.662-1.024,1.596-1.024,2.681c0,0.995,0.392,1.868,1.024,2.501c-0.332-0.062-0.693-0.091-1.054-0.03
	c-2.32,0.271-3.946,1.896-3.946,3.945c0,2.109,1.657,3.645,3.977,3.645c1.295,0,2.5-0.48,3.223-1.324
	c0.21-0.241,0.361-0.482,0.512-0.753c0.603,1.265,1.928,2.077,3.615,2.077c0.03,0,0.03,0,0.061,0c0.121,0,0.241,0,0.391-0.029
	c1.356-0.151,2.44-0.994,2.953-2.139c0.512,1.355,1.836,2.139,3.705,2.139c1.295,0,2.5-0.482,3.223-1.325
	c0.213-0.241,0.361-0.483,0.512-0.754c0.604,1.266,1.93,2.079,3.615,2.079c0.031,0,0.031,0,0.061,0c0.121,0,0.242,0,0.393-0.03
	c0.963-0.091,1.867-0.572,2.469-1.356C320.311,406.902,320.611,405.938,320.49,404.943z M313.049,403.89
	c-0.24-0.634-0.57-1.145-1.021-1.536c0.391,0.12,0.844,0.21,1.324,0.241c0.09,0,0.211,0,0.301,0c0.092,0,0.182,0,0.301,0
	C313.531,402.926,313.23,403.378,313.049,403.89z M305.791,403.89c-0.211-0.572-0.512-1.055-0.933-1.416
	c0.361,0.09,0.752,0.121,1.174,0.121c0.241,0,0.453-0.031,0.693-0.061C306.302,402.926,306.001,403.378,305.791,403.89z
	 M298.591,403.949c-0.241-0.603-0.572-1.145-0.964-1.536c0.392,0.121,0.844,0.182,1.295,0.182c0.03,0,0.03,0,0.06,0
	c0.121,0,0.241,0,0.392-0.031c0.121,0,0.241-0.029,0.362-0.06C299.193,402.896,298.802,403.378,298.591,403.949z M302.326,400.455
	c0.211,0.513,0.512,0.935,0.903,1.266c-0.361-0.061-0.783-0.061-1.204,0c-0.332,0.03-0.633,0.091-0.904,0.182
	C301.634,401.51,302.055,401.028,302.326,400.455z M305.609,395.817c0.03,0,0.061,0,0.091,0c0.09,0,0.211,0,0.331,0.029
	c1.957,0.181,3.164,1.296,3.373,3.133c0.092,0.693-0.119,1.355-0.602,1.868c-0.633,0.692-1.656,1.113-2.771,1.113
	c-2.139,0-3.374-1.113-3.374-3.042c-0.03-0.813,0.271-1.566,0.813-2.168C304.013,396.148,304.796,395.847,305.609,395.817z
	 M309.254,401.269c0.213-0.21,0.361-0.481,0.482-0.723c0.182,0.361,0.393,0.692,0.723,0.964c-0.211-0.06-0.451-0.091-0.691-0.12
	c-0.213-0.03-0.422,0-0.635,0C309.164,401.359,309.225,401.299,309.254,401.269z M313.17,395.878c0.152,0,0.303-0.031,0.422-0.031
	c1.719,0,2.682,1.024,2.922,3.072c0.09,0.845-0.148,1.598-0.723,2.199c-0.604,0.633-1.477,0.934-2.408,0.873
	c-2.26-0.18-3.406-1.204-3.406-3.042C310.008,396.9,310.852,396.088,313.17,395.878z M309.615,397.503
	c-0.602-1.295-1.836-2.108-3.524-2.259c-0.15-0.03-0.301-0.03-0.452-0.03c0.121-0.121,0.241-0.211,0.362-0.332
	c0.21-0.241,0.362-0.482,0.512-0.753c0.602,1.266,1.928,2.079,3.615,2.079c0.09,0,0.211,0,0.301-0.03
	C310.068,396.509,309.768,396.931,309.615,397.503z M309.889,389.491c0.148,0,0.301-0.03,0.451-0.03
	c1.596,0,2.531,0.904,2.891,2.771c0.152,0.783-0.061,1.566-0.602,2.199c-0.602,0.722-1.566,1.174-2.531,1.174
	c-1.957,0-3.373-1.265-3.373-3.042C306.754,390.635,307.719,389.702,309.889,389.491z M306.364,391.147
	c-0.212-0.422-0.453-0.813-0.784-1.145c0.271,0.06,0.572,0.09,0.874,0.09c0.181,0,0.363,0,0.541-0.03
	C306.693,390.365,306.484,390.726,306.364,391.147z M306.484,383.104c0.12-0.03,0.241-0.03,0.333-0.03
	c0.541,0,1.053,0.181,1.504,0.542c0.785,0.603,1.326,1.687,1.477,2.892c0.092,0.692-0.121,1.355-0.602,1.868
	c-0.633,0.692-1.658,1.114-2.772,1.114c-1.959,0-3.374-1.265-3.374-3.042C303.08,384.46,304.827,383.315,306.484,383.104z
	 M299.404,392.563c-0.03-0.813,0.271-1.566,0.813-2.168c0.543-0.603,1.295-0.934,2.109-0.964c0.03,0,0.061,0,0.091,0
	c0.09,0,0.211,0,0.331,0.03c1.959,0.181,3.164,1.295,3.374,3.163c0.09,0.692-0.12,1.356-0.602,1.868
	c-0.633,0.692-1.657,1.114-2.772,1.114C300.609,395.605,299.404,394.491,299.404,392.563z M302.748,396.208
	c0.151,0,0.332,0,0.482-0.03c-0.06,0.061-0.12,0.121-0.18,0.181c-0.302,0.302-0.512,0.663-0.693,1.055
	c-0.241-0.572-0.602-1.055-1.054-1.386C301.724,396.148,302.236,396.208,302.748,396.208z M296.392,396.722
	c0.542-0.544,1.325-0.844,2.199-0.844c0.031,0,0.031,0,0.06,0c2.019,0.028,3.164,0.933,3.375,2.71
	c0.181,1.687-1.054,3.193-2.741,3.373c-0.121,0-0.241,0.03-0.362,0.03c-1.958,0-3.374-1.266-3.374-3.042
	C295.549,398.016,295.85,397.263,296.392,396.722z M297.748,407.293c-0.632,0.693-1.657,1.115-2.771,1.115
	c-1.958,0-3.374-1.266-3.374-3.013c0-2.018,1.777-3.162,3.404-3.374c0.121-0.03,0.241-0.03,0.332-0.03
	c0.542,0,1.054,0.182,1.506,0.543c0.783,0.603,1.325,1.687,1.476,2.892C298.41,406.119,298.229,406.781,297.748,407.293z
	 M302.688,408.408c-0.121,0-0.241,0.029-0.362,0.029c-1.958,0-3.374-1.265-3.374-3.042c0-1.776,1.024-2.801,3.163-3.071
	c0.181-0.031,0.332-0.031,0.513-0.031c0.663,0,1.235,0.181,1.716,0.542c0.603,0.482,0.994,1.235,1.114,2.199
	C305.609,406.722,304.375,408.228,302.688,408.408z M312.207,407.293c-0.633,0.693-1.658,1.115-2.771,1.115
	c-2.139,0-3.374-1.115-3.374-3.043c0-0.933,0.422-1.837,1.145-2.5c0.631-0.572,1.445-0.904,2.229-0.904c0.092,0,0.18,0,0.24,0
	c1.748,0.151,2.863,1.386,3.104,3.435C312.871,406.119,312.689,406.781,312.207,407.293z M319.225,407.293
	c-0.512,0.634-1.264,1.025-2.078,1.115c-0.121,0-0.24,0.029-0.361,0.029c-1.957,0-3.373-1.265-3.373-3.042
	c0-1.927,0.963-2.861,3.133-3.071c0.15,0,0.271-0.031,0.422-0.031c1.625,0,2.711,0.994,2.922,2.741
	C319.979,405.848,319.738,406.632,319.225,407.293z"/>
<path fill="#FFFFFF" d="M317.088,403.076c-0.152,0-0.303,0.121-0.332,0.271c0,0.182,0.119,0.302,0.27,0.331
	c0.543,0.03,1.057,0.393,1.266,0.904c0.061,0.121,0.15,0.181,0.271,0.181c0.029,0,0.092,0,0.119-0.029
	c0.152-0.062,0.244-0.241,0.152-0.392C318.563,403.619,317.869,403.137,317.088,403.076z"/>
<path fill="#FFFFFF" d="M299.344,397.201c0.542,0.091,1.024,0.482,1.205,0.995c0.06,0.12,0.15,0.182,0.271,0.182
	c0.03,0,0.061,0,0.121-0.031c0.151-0.061,0.242-0.24,0.181-0.392c-0.271-0.724-0.934-1.233-1.687-1.355
	c-0.15-0.029-0.332,0.091-0.361,0.241C299.043,396.992,299.193,397.172,299.344,397.201z"/>
<path fill="#FFFFFF" d="M306.364,397.353c0.421-0.061,1.173,0.392,1.355,0.813c0.061,0.12,0.15,0.181,0.27,0.181
	c0.031,0,0.092,0,0.121-0.03c0.15-0.06,0.211-0.241,0.15-0.391c-0.301-0.663-1.324-1.266-1.988-1.146
	c-0.15,0.031-0.271,0.182-0.241,0.333C306.031,397.263,306.211,397.383,306.364,397.353z"/>
<path fill="#FFFFFF" d="M313.652,397.263c0.543,0.029,1.057,0.392,1.266,0.903c0.061,0.12,0.15,0.181,0.27,0.181
	c0.031,0,0.092,0,0.123-0.03c0.148-0.06,0.24-0.241,0.148-0.391c-0.301-0.725-0.994-1.235-1.775-1.266
	c-0.152,0-0.301,0.119-0.332,0.271C313.352,397.112,313.502,397.231,313.652,397.263z"/>
<path fill="#FFFFFF" d="M303.049,390.967c0.512,0,0.993,0.271,1.235,0.753c0.06,0.09,0.15,0.151,0.271,0.151
	c0.06,0,0.09,0,0.151-0.03c0.151-0.09,0.21-0.271,0.121-0.421c-0.363-0.663-1.055-1.085-1.808-1.054
	c-0.181,0-0.301,0.15-0.301,0.301C302.748,390.846,302.899,390.967,303.049,390.967z"/>
<path fill="#FFFFFF" d="M310.398,390.876c0.543,0.03,1.055,0.392,1.266,0.903c0.061,0.121,0.15,0.181,0.271,0.181
	c0.029,0,0.092,0,0.121-0.03c0.15-0.06,0.24-0.241,0.15-0.392c-0.301-0.723-0.994-1.235-1.777-1.265
	c-0.182,0-0.301,0.121-0.332,0.271C310.098,390.726,310.219,390.876,310.398,390.876z"/>
<path fill="#FFFFFF" d="M306.725,384.581c0.24,0,1.055,0.331,1.234,0.722c0.061,0.121,0.15,0.181,0.271,0.181
	c0.029,0,0.09,0,0.121-0.03c0.15-0.06,0.211-0.241,0.15-0.392c-0.301-0.663-1.355-1.084-1.809-1.084c-0.18,0-0.3,0.121-0.3,0.301
	S306.574,384.581,306.725,384.581z"/>
</svg>
