<?xml version="1.0" encoding="utf-8"?>
<!-- Generator: Adobe Illustrator 16.0.0, SVG Export Plug-In . SVG Version: 6.00 Build 0)  -->
<!DOCTYPE svg PUBLIC "-//W3C//DTD SVG 1.1//EN" "http://www.w3.org/Graphics/SVG/1.1/DTD/svg11.dtd">
<svg version="1.1" id="Layer_3" xmlns="http://www.w3.org/2000/svg" xmlns:xlink="http://www.w3.org/1999/xlink" x="0px" y="0px"
	 width="48px" height="48px" viewBox="290 380 32 32" enable-background="new 290 380 32 32" xml:space="preserve">
<g>
	<g>
		<path fill-rule="evenodd" clip-rule="evenodd" fill="#FFFFFF" d="M298.5,392.432c0-2.546,0-5.062,0-7.611
			c-0.123,0-0.237,0.003-0.351-0.001c-0.302-0.012-0.495-0.182-0.499-0.476c-0.008-0.819-0.009-1.638,0-2.457
			c0.004-0.31,0.197-0.484,0.512-0.485c2.239-0.002,4.477-0.002,6.713,0c0.339,0,0.521,0.182,0.523,0.523
			c0.004,0.772,0.002,1.543,0.001,2.316c-0.001,0.408-0.171,0.576-0.585,0.581c-0.077,0.001-0.155,0-0.253,0c0,2.533,0,5.055,0,7.61
			c0.071,0,0.146,0,0.221,0c0.569,0,1.138-0.003,1.708,0c2.007,0.01,3.516,1.525,3.516,3.532c0.002,3.712-0.009,7.422,0.008,11.135
			c0.004,1.056-0.263,1.983-1.034,2.78c2.861,0,5.69,0,8.534,0c0-1.264,0-2.521,0-3.805c-0.089,0-0.166,0-0.241,0
			c-1.528,0-3.058,0-4.585-0.001c-0.438-0.001-0.606-0.168-0.606-0.61c0-3.922,0-7.845,0-11.766c0-0.453,0.164-0.613,0.627-0.613
			c1.513-0.001,3.025-0.001,4.538-0.001c0.077,0,0.156,0,0.258,0c0-1.272,0-2.536,0-3.814c-2.921,0-5.842,0-8.796,0
			c0,0.376,0,0.748,0,1.119c0,0.156,0.006,0.312-0.002,0.468c-0.011,0.283-0.203,0.472-0.472,0.477
			c-0.28,0.004-0.485-0.183-0.497-0.479c-0.011-0.358-0.002-0.718-0.002-1.076c0-0.304-0.002-0.608,0-0.913
			c0.002-0.409,0.178-0.585,0.582-0.587c0.616-0.001,1.232,0,1.876,0c0.003-0.092,0.011-0.174,0.011-0.256
			c0-0.554-0.002-1.107,0-1.661c0.002-0.397,0.177-0.577,0.566-0.578c1.567-0.001,3.134-0.001,4.702,0
			c0.389,0,0.562,0.182,0.562,0.581c0.002,0.545,0,1.091,0,1.637c0,0.083,0,0.167,0,0.276c0.369,0,0.71,0,1.053,0
			c0.287,0,0.575-0.002,0.865,0c0.362,0.004,0.54,0.182,0.547,0.548c0.004,0.188,0.002,0.375,0.002,0.562c0,6.736,0,13.475,0,20.211
			c0,0.092,0,0.184,0,0.303c0.39,0,0.753-0.002,1.117,0.002c0.101,0.001,0.205,0.005,0.3,0.032c0.218,0.065,0.357,0.291,0.325,0.508
			c-0.031,0.235-0.218,0.419-0.451,0.42c-0.797,0.006-1.594,0.003-2.391,0.006c-0.55,0.001-1.1,0.008-1.651,0.008
			c-7.749,0-15.5,0-23.251,0c-0.434,0-0.662-0.165-0.667-0.48c-0.005-0.322,0.231-0.494,0.677-0.494c0.504-0.001,1.008,0,1.557,0
			c-0.073-0.093-0.117-0.151-0.166-0.206c-0.565-0.65-0.858-1.409-0.859-2.268c-0.005-3.853-0.009-7.703,0-11.556
			c0.005-1.906,1.529-3.417,3.443-3.44C297.147,392.424,297.81,392.432,298.5,392.432z M299.5,392.431c0.212,0,0.397,0,0.583,0
			c0.437,0,0.661,0.161,0.666,0.478c0.005,0.326-0.224,0.497-0.673,0.497c-1.169,0-2.339-0.003-3.508,0
			c-1.476,0.004-2.549,1.082-2.55,2.561c-0.002,3.796-0.002,7.593,0,11.39c0.001,1.459,1.083,2.542,2.544,2.543
			c3.306,0.003,6.611,0.004,9.917,0.001c1.475-0.002,2.553-1.082,2.555-2.558c0.001-3.789,0.001-7.578,0-11.366
			c-0.002-1.494-1.076-2.567-2.566-2.571c-0.748-0.003-1.497,0-2.245,0c-0.504,0-0.66-0.155-0.66-0.653c0-2.542,0-5.083,0-7.624
			c0-0.098,0-0.195,0-0.292c-1.377,0-2.714,0-4.063,0C299.5,387.367,299.5,389.882,299.5,392.431z M313.079,394.066
			c0,3.686,0,7.352,0,11.024c1.487,0,2.955,0,4.435,0c0.006-0.076,0.013-0.137,0.013-0.198c0-3.531-0.001-7.062,0.004-10.592
			c0-0.196-0.057-0.25-0.251-0.25c-1.324,0.008-2.648,0.004-3.975,0.005C313.229,394.055,313.153,394.062,313.079,394.066z
			 M304.42,382.393c-1.941,0-3.861,0-5.788,0c0,0.488,0,0.96,0,1.435c1.937,0,3.856,0,5.788,0
			C304.42,383.344,304.42,382.879,304.42,382.393z M315.06,388.27c0-0.454-0.009-0.88,0.004-1.307
			c0.006-0.184-0.065-0.219-0.231-0.218c-1.137,0.006-2.272,0.003-3.411,0.005c-0.076,0-0.155,0.016-0.22,0.023
			c0,0.521,0,1.008,0,1.497C312.488,388.27,313.756,388.27,315.06,388.27z"/>
		<path fill-rule="evenodd" clip-rule="evenodd" fill="#FFFFFF" d="M296.206,402.091c0.013-2.964,2.406-5.343,5.354-5.32
			c2.943,0.022,5.299,2.418,5.281,5.37c-0.018,2.943-2.418,5.286-5.401,5.272C298.569,407.399,296.193,404.982,296.206,402.091z
			 M297.181,402.092c0,2.398,1.95,4.349,4.343,4.345c2.391-0.004,4.337-1.938,4.346-4.32c0.008-2.408-1.951-4.38-4.346-4.372
			C299.122,397.751,297.18,399.695,297.181,402.092z"/>
		<path fill-rule="evenodd" clip-rule="evenodd" fill="#FFFFFF" d="M301.503,405.329c-1.446-0.019-2.455-1.297-2.18-2.769
			c0.223-1.194,0.813-2.213,1.531-3.168c0.098-0.13,0.198-0.262,0.312-0.378c0.203-0.208,0.523-0.226,0.708-0.003
			c0.936,1.118,1.704,2.326,1.883,3.817C303.918,404.171,302.849,405.346,301.503,405.329z M301.522,400.124
			c-0.629,0.892-1.167,1.789-1.274,2.872c-0.071,0.723,0.53,1.354,1.262,1.361c0.735,0.008,1.358-0.633,1.29-1.362
			C302.698,401.911,302.154,401.016,301.522,400.124z"/>
	</g>
</g>
</svg>
