<?xml version="1.0" encoding="utf-8"?>
<!-- Generator: Adobe Illustrator 16.0.0, SVG Export Plug-In . SVG Version: 6.00 Build 0)  -->
<!DOCTYPE svg PUBLIC "-//W3C//DTD SVG 1.1//EN" "http://www.w3.org/Graphics/SVG/1.1/DTD/svg11.dtd">
<svg version="1.1" id="Layer_1" xmlns="http://www.w3.org/2000/svg" xmlns:xlink="http://www.w3.org/1999/xlink" x="0px" y="0px"
	 width="48px" height="48px" viewBox="0 0 48 48" enable-background="new 0 0 48 48" xml:space="preserve">
<g>
	<g>
		<path fill-rule="evenodd" clip-rule="evenodd" fill="#252840" d="M46.587,11.286c-0.264-0.121-0.37-0.189-0.491-0.223
			c-5.587-1.565-11.167-3.14-16.769-4.653c-0.408-0.109-1.054,0.11-1.395,0.404c-1.343,1.148-2.604,2.386-3.928,3.619
			c-1.233-1.148-2.413-2.101-3.416-3.218c-0.834-0.931-1.636-1.026-2.755-0.629c-1.417,0.502-2.9,0.818-4.352,1.225
			C9.499,8.922,5.518,10.04,1.315,11.218c1.842,1.729,3.52,3.305,5.228,4.909c-1.618,2.081-3.138,4.037-4.728,6.083
			c1.406,0.404,2.575,0.813,3.78,1.06c0.942,0.192,1.242,0.612,1.228,1.578c-0.058,3.658,0.011,7.315-0.041,10.971
			c-0.014,0.901,0.277,1.274,1.131,1.505c5.112,1.384,10.21,2.828,15.322,4.217c0.491,0.135,1.084,0.126,1.578-0.009
			c5.068-1.375,10.122-2.813,15.193-4.183c0.889-0.24,1.24-0.588,1.221-1.573c-0.068-3.657-0.005-7.316-0.046-10.973
			c-0.011-0.876,0.228-1.318,1.136-1.508c1.246-0.261,2.457-0.681,3.863-1.084c-1.634-2.109-3.142-4.055-4.709-6.079
			C43.178,14.514,44.853,12.93,46.587,11.286z M32.792,8.865c3.547,1.002,7.1,1.988,10.957,3.066
			c-1.216,1.128-2.243,2.12-3.321,3.047c-0.176,0.152-0.602,0.099-0.88,0.022c-4.482-1.23-8.963-2.476-13.44-3.725
			c-0.12-0.036-0.226-0.138-0.417-0.261C28.699,7.701,28.696,7.706,32.792,8.865z M4.289,11.942
			c2.119-0.604,4.024-1.156,5.938-1.691c2.5-0.703,5.021-1.346,7.503-2.112C18.69,7.843,19.346,8,20.01,8.736
			c0.7,0.771,1.51,1.441,2.41,2.284c-0.453,0.165-0.757,0.3-1.079,0.39c-4.167,1.172-8.346,2.317-12.502,3.528
			c-0.81,0.236-1.351,0.121-1.922-0.492C6.149,13.62,5.285,12.881,4.289,11.942z M4.337,21.392c1.136-1.458,2.139-2.8,3.221-4.078
			c0.184-0.219,0.747-0.285,1.073-0.197c4.618,1.26,9.224,2.559,14.084,3.917c-1.129,1.456-2.111,2.762-3.155,4.02
			c-0.178,0.217-0.664,0.367-0.936,0.293C13.924,24.073,9.238,22.758,4.337,21.392z M23.107,39.945
			c-0.453-0.105-0.884-0.189-1.307-0.309c-4.088-1.136-8.167-2.304-12.266-3.4c-0.881-0.237-1.274-0.555-1.254-1.558
			c0.069-3.463,0.027-6.926,0.027-10.641c3.521,0.982,6.823,1.861,10.092,2.847c1.021,0.311,1.661,0.214,2.264-0.735
			c0.656-1.035,1.5-1.949,2.444-3.152V39.945z M24.307,19.755c-0.283,0.077-0.631-0.011-0.931-0.093
			c-4.052-1.118-8.104-2.246-12.153-3.377c-0.107-0.03-0.197-0.126-0.514-0.335c0.868-0.25,1.546-0.447,2.224-0.64
			c3.344-0.936,6.688-1.877,10.037-2.8c0.428-0.118,0.925-0.277,1.326-0.17c4.266,1.148,8.519,2.345,12.775,3.525
			c0.005,0.113,0.01,0.222,0.016,0.333C32.828,17.389,28.57,18.585,24.307,19.755z M39.66,35.313c0,0.236-0.276,0.624-0.496,0.687
			c-4.732,1.345-9.474,2.655-14.33,4.006V22.967c1.01,1.266,1.906,2.256,2.642,3.354c0.538,0.806,1.078,0.871,1.94,0.612
			c2.97-0.883,5.968-1.69,8.958-2.52c0.381-0.107,0.774-0.181,1.309-0.305C39.683,27.934,39.693,31.623,39.66,35.313z
			 M43.659,21.389c-4.868,1.361-9.519,2.674-14.18,3.937c-0.313,0.086-0.86-0.058-1.058-0.296c-1.049-1.25-2.022-2.562-3.13-3.992
			c2.53-0.711,4.89-1.373,7.248-2.035c2.152-0.604,4.321-1.158,6.451-1.828c0.895-0.28,1.414-0.096,1.937,0.664
			C41.723,19,42.637,20.077,43.659,21.389z"/>
		<path fill-rule="evenodd" clip-rule="evenodd" fill="#252840" d="M46.587,11.286c-0.264-0.121-0.37-0.189-0.491-0.223
			c-5.587-1.565-11.167-3.14-16.769-4.653c-0.408-0.109-1.054,0.11-1.395,0.404c-1.343,1.148-2.604,2.386-3.928,3.619
			c-1.233-1.148-2.413-2.101-3.416-3.218c-0.834-0.931-1.636-1.026-2.755-0.629c-1.417,0.502-2.9,0.818-4.352,1.225
			C9.499,8.922,5.518,10.04,1.315,11.218c1.842,1.729,3.52,3.305,5.228,4.909c-1.618,2.081-3.138,4.037-4.728,6.083
			c1.406,0.404,2.575,0.813,3.78,1.06c0.942,0.192,1.242,0.612,1.228,1.578c-0.058,3.658,0.011,7.315-0.041,10.971
			c-0.014,0.901,0.277,1.274,1.131,1.505c5.112,1.384,10.21,2.828,15.322,4.217c0.491,0.135,1.084,0.126,1.578-0.009
			c5.068-1.375,10.122-2.813,15.193-4.183c0.889-0.24,1.24-0.588,1.221-1.573c-0.068-3.657-0.005-7.316-0.046-10.973
			c-0.011-0.876,0.228-1.318,1.136-1.508c1.246-0.261,2.457-0.681,3.863-1.084c-1.634-2.109-3.142-4.055-4.709-6.079
			C43.178,14.514,44.853,12.93,46.587,11.286z M32.792,8.865c3.547,1.002,7.1,1.988,10.957,3.066
			c-1.216,1.128-2.243,2.12-3.321,3.047c-0.176,0.152-0.602,0.099-0.88,0.022c-4.482-1.23-8.963-2.476-13.44-3.725
			c-0.12-0.036-0.226-0.138-0.417-0.261C28.699,7.701,28.696,7.706,32.792,8.865z M4.289,11.942
			c2.119-0.604,4.024-1.156,5.938-1.691c2.5-0.703,5.021-1.346,7.503-2.112C18.69,7.843,19.346,8,20.01,8.736
			c0.7,0.771,1.51,1.441,2.41,2.284c-0.453,0.165-0.757,0.3-1.079,0.39c-4.167,1.172-8.346,2.317-12.502,3.528
			c-0.81,0.236-1.351,0.121-1.922-0.492C6.149,13.62,5.285,12.881,4.289,11.942z M4.337,21.392c1.136-1.458,2.139-2.8,3.221-4.078
			c0.184-0.219,0.747-0.285,1.073-0.197c4.618,1.26,9.224,2.559,14.084,3.917c-1.129,1.456-2.111,2.762-3.155,4.02
			c-0.178,0.217-0.664,0.367-0.936,0.293C13.924,24.073,9.238,22.758,4.337,21.392z M23.107,39.945
			c-0.453-0.105-0.884-0.189-1.307-0.309c-4.088-1.136-8.167-2.304-12.266-3.4c-0.881-0.237-1.274-0.555-1.254-1.558
			c0.069-3.463,0.027-6.926,0.027-10.641c3.521,0.982,6.823,1.861,10.092,2.847c1.021,0.311,1.661,0.214,2.264-0.735
			c0.656-1.035,1.5-1.949,2.444-3.152V39.945z M24.307,19.755c-0.283,0.077-0.631-0.011-0.931-0.093
			c-4.052-1.118-8.104-2.246-12.153-3.377c-0.107-0.03-0.197-0.126-0.514-0.335c0.868-0.25,1.546-0.447,2.224-0.64
			c3.344-0.936,6.688-1.877,10.037-2.8c0.428-0.118,0.925-0.277,1.326-0.17c4.266,1.148,8.519,2.345,12.775,3.525
			c0.005,0.113,0.01,0.222,0.016,0.333C32.828,17.389,28.57,18.585,24.307,19.755z M39.66,35.313c0,0.236-0.276,0.624-0.496,0.687
			c-4.732,1.345-9.474,2.655-14.33,4.006V22.967c1.01,1.266,1.906,2.256,2.642,3.354c0.538,0.806,1.078,0.871,1.94,0.612
			c2.97-0.883,5.968-1.69,8.958-2.52c0.381-0.107,0.774-0.181,1.309-0.305C39.683,27.934,39.693,31.623,39.66,35.313z
			 M43.659,21.389c-4.868,1.361-9.519,2.674-14.18,3.937c-0.313,0.086-0.86-0.058-1.058-0.296c-1.049-1.25-2.022-2.562-3.13-3.992
			c2.53-0.711,4.89-1.373,7.248-2.035c2.152-0.604,4.321-1.158,6.451-1.828c0.895-0.28,1.414-0.096,1.937,0.664
			C41.723,19,42.637,20.077,43.659,21.389z"/>
	</g>
</g>
</svg>
