<?xml version="1.0" encoding="utf-8"?>
<!-- Generator: Adobe Illustrator 16.0.0, SVG Export Plug-In . SVG Version: 6.00 Build 0)  -->
<!DOCTYPE svg PUBLIC "-//W3C//DTD SVG 1.1//EN" "http://www.w3.org/Graphics/SVG/1.1/DTD/svg11.dtd">
<svg version="1.1" id="Layer_1" xmlns="http://www.w3.org/2000/svg" xmlns:xlink="http://www.w3.org/1999/xlink" x="0px" y="0px"
	 width="48px" height="48px" viewBox="0 0 48 48" enable-background="new 0 0 48 48" xml:space="preserve">
<g>
	<g>
		<path fill="#252840" d="M43.234,37.191c-0.389-0.154-0.48-0.363-0.506-0.74c-0.316-4.572-0.65-9.141-0.978-13.713
			c-0.063-0.907-0.114-1.816-0.175-2.77c0.557,0,1.021,0.007,1.49-0.002c0.742-0.014,1.115-0.372,1.123-1.107
			c0.012-0.9,0.021-1.803-0.006-2.705c-0.037-1.176-0.529-2.138-1.47-2.853c-0.664-0.505-1.427-0.793-2.257-0.733
			c-0.662,0.046-1.109-0.186-1.561-0.653c-1.336-1.375-2.707-2.713-4.09-4.041c-1.787-1.718-3.58-3.435-5.718-4.732
			c-2.53-1.537-5.227-1.923-7.982-0.804c-1.267,0.515-2.52,1.241-3.544,2.14c-2.706,2.378-5.295,4.892-7.901,7.38
			c-0.487,0.465-0.938,0.725-1.65,0.717c-2.084-0.025-3.665,1.588-3.699,3.668c-0.014,0.845-0.007,1.69,0,2.535
			c0.005,0.84,0.357,1.179,1.215,1.187c0.445,0.004,0.89,0,1.372,0c0,0.247,0.011,0.431-0.003,0.614
			c-0.377,5.36-0.756,10.717-1.156,16.073c-0.014,0.175-0.231,0.408-0.408,0.484c-1.698,0.73-2.639,2.391-2.31,4.129
			c0.342,1.807,1.794,3.047,3.663,3.047c11.722,0.011,23.445,0.01,35.167,0.002c1.816-0.002,3.279-1.252,3.621-3.024
			C45.809,39.559,44.902,37.861,43.234,37.191z M14.998,9.422c1.412-1.318,2.831-2.643,4.361-3.813
			c3.337-2.55,6.379-2.541,9.752-0.042c2.711,2.007,5.029,4.45,7.414,6.815c0.021,0.021,0.019,0.065,0.035,0.136H11.989
			C12.991,11.48,13.948,10.401,14.998,9.422z M6.341,17.934c0-0.682-0.051-1.338,0.014-1.981c0.074-0.739,0.751-1.315,1.499-1.384
			c0.186-0.017,0.375-0.011,0.563-0.011h31.666c1.508,0,2.106,0.604,2.108,2.12c0.002,0.408,0,0.816,0,1.256H6.341z M41.979,42.303
			c-0.205,0.021-0.412,0.014-0.619,0.014H7.147c-0.207,0-0.415,0.007-0.621-0.012c-0.869-0.078-1.539-0.785-1.561-1.639
			c-0.023-0.891,0.62-1.634,1.507-1.746c0.941-0.119,1.146-0.343,1.213-1.279C8.097,31.87,8.51,26.102,8.922,20.33
			c0.007-0.092,0.024-0.183,0.045-0.338h30.579c0.079,1.041,0.162,2.064,0.233,3.089c0.349,4.853,0.693,9.705,1.039,14.558
			c0.064,0.943,0.268,1.161,1.207,1.28c0.888,0.113,1.535,0.862,1.513,1.745C43.516,41.521,42.85,42.227,41.979,42.303z"/>
		<path fill="#252840" d="M32.426,23.379c-0.542-0.032-0.979,0.361-1.057,0.952c-0.162,1.235-0.734,1.749-1.975,1.751
			c-3.438,0.003-6.875,0.003-10.313,0c-1.199-0.002-1.779-0.549-1.963-1.719c-0.046-0.299-0.244-0.683-0.486-0.812
			c-0.266-0.142-0.744-0.155-0.981,0.001c-0.261,0.171-0.48,0.594-0.495,0.918c-0.063,1.438,0.932,2.824,2.381,3.362
			c0.359,0.134,0.477,0.325,0.533,0.677c0.365,2.279,0.738,4.56,1.135,6.834c0.409,2.353,1.869,3.564,4.244,3.563h0.789v-0.032
			c0.619,0,1.248,0.063,1.857-0.015c1.635-0.211,2.879-1.605,3.209-3.545c0.385-2.256,0.766-4.516,1.123-6.776
			c0.061-0.377,0.188-0.575,0.564-0.716c1.439-0.535,2.404-1.946,2.379-3.381C33.357,23.837,32.98,23.41,32.426,23.379z
			 M27.997,30.977c-0.222,1.334-0.419,2.67-0.683,3.994c-0.088,0.446-0.297,0.889-0.529,1.282c-0.264,0.442-0.707,0.655-1.238,0.652
			c-0.789-0.005-1.579-0.027-2.366,0.008c-0.904,0.039-1.472-0.404-1.769-1.195c-0.183-0.485-0.275-1.012-0.365-1.524
			c-0.326-1.866-0.635-3.736-0.946-5.604c-0.023-0.144-0.019-0.292-0.029-0.471h8.399C28.309,29.098,28.154,30.037,27.997,30.977z"
			/>
		<path fill="#252840" d="M27.958,6.781c0.007,0.551-0.435,1.001-0.987,1.007c-0.551,0.007-1.006-0.438-1.012-0.984
			c-0.006-0.546,0.445-1.006,0.989-1.012C27.496,5.787,27.951,6.233,27.958,6.781z"/>
		<path fill="#252840" d="M22.555,8.156c-0.008,0.554-0.451,0.986-1.006,0.985c-0.582-0.001-1.033-0.462-1.01-1.036
			c0.02-0.549,0.478-0.973,1.033-0.96C22.125,7.157,22.563,7.608,22.555,8.156z"/>
	</g>
</g>
</svg>
