<?xml version="1.0" encoding="utf-8"?>
<!-- Generator: Adobe Illustrator 16.0.0, SVG Export Plug-In . SVG Version: 6.00 Build 0)  -->
<!DOCTYPE svg PUBLIC "-//W3C//DTD SVG 1.1//EN" "http://www.w3.org/Graphics/SVG/1.1/DTD/svg11.dtd">
<svg version="1.1" id="Layer_3" xmlns="http://www.w3.org/2000/svg" xmlns:xlink="http://www.w3.org/1999/xlink" x="0px" y="0px"
	 width="48px" height="48px" viewBox="290 380 32 32" enable-background="new 290 380 32 32" xml:space="preserve">
<path fill="#252840" d="M302.197,385.476c0.571-0.855,0.34-2.012-0.517-2.583c-0.304-0.202-0.659-0.31-1.023-0.312
	c-1.12-0.004-2.08,0.809-2.261,1.917c-0.18,1.072-0.18,2.167,0,3.238c0.181,1.108,1.138,1.921,2.261,1.917h0.005
	c1.029-0.007,1.856-0.85,1.848-1.877c-0.003-0.364-0.113-0.718-0.315-1.02l-0.03-0.045c-0.239-0.359-0.239-0.826,0-1.184
	L302.197,385.476z M301.327,387.271l0.03,0.045c0.262,0.392,0.155,0.921-0.237,1.182c-0.138,0.091-0.299,0.142-0.463,0.143
	c-0.627,0-1.162-0.454-1.263-1.073c-0.16-0.962-0.16-1.944,0-2.906c0.102-0.618,0.635-1.073,1.261-1.073
	c0.471,0.005,0.851,0.39,0.847,0.86c-0.002,0.166-0.051,0.326-0.142,0.464l-0.033,0.051
	C300.86,385.663,300.861,386.573,301.327,387.271z"/>
<path fill="#252840" d="M313.121,383.085c-1.114,0-2.021,0.904-2.021,2.021c0,1.116,0.906,2.021,2.021,2.021
	c1.116,0,2.02-0.905,2.02-2.021C315.141,383.99,314.237,383.085,313.121,383.085z M313.121,386.116c-0.559,0-1.009-0.453-1.009-1.01
	c0-0.558,0.45-1.01,1.009-1.01c0.558,0,1.011,0.452,1.011,1.01C314.132,385.663,313.679,386.116,313.121,386.116z"/>
<path fill="#252840" d="M291.904,398.745c0,1.118,0.904,2.021,2.021,2.021c1.116,0,2.02-0.902,2.02-2.021
	c0-1.116-0.904-2.02-2.02-2.02C292.809,396.726,291.904,397.629,291.904,398.745z M293.925,397.733c0.558,0,1.01,0.453,1.01,1.012
	c0,0.558-0.452,1.01-1.01,1.01c-0.558,0-1.011-0.452-1.011-1.01C292.914,398.187,293.368,397.733,293.925,397.733z"/>
<path fill="#252840" d="M302.008,403.29c0,1.117,0.905,2.023,2.02,2.023c1.117,0,2.021-0.906,2.021-2.023
	c0-1.113-0.904-2.021-2.021-2.021C302.913,401.27,302.008,402.177,302.008,403.29z M304.028,402.282
	c0.559,0,1.011,0.453,1.011,1.008c0,0.56-0.452,1.013-1.011,1.013c-0.558,0-1.011-0.453-1.011-1.013
	C303.018,402.735,303.47,402.282,304.028,402.282z"/>
<path fill="#252840" d="M300.997,390.157c-1.117,0-2.021,0.905-2.021,2.022c0,1.115,0.904,2.02,2.021,2.02s2.021-0.905,2.021-2.02
	C303.018,391.062,302.114,390.157,300.997,390.157z M300.997,393.188c-0.557,0-1.01-0.452-1.01-1.009
	c0-0.559,0.453-1.012,1.01-1.012c0.558,0,1.011,0.453,1.011,1.012C302.008,392.736,301.555,393.188,300.997,393.188z"/>
<path fill="#252840" d="M316.656,394.199c0-1.117-0.903-2.02-2.02-2.02s-2.021,0.903-2.021,2.02c0,1.115,0.905,2.022,2.021,2.022
	S316.656,395.314,316.656,394.199z M313.626,394.199c0-0.558,0.454-1.01,1.011-1.01c0.558,0,1.011,0.453,1.011,1.01
	s-0.453,1.01-1.011,1.01C314.08,395.208,313.626,394.756,313.626,394.199z"/>
<path fill="#252840" d="M312.112,402.282c1.113,0,2.02-0.905,2.02-2.021c0-1.118-0.906-2.022-2.02-2.022
	c-1.117,0-2.021,0.904-2.021,2.022C310.091,401.377,310.995,402.282,312.112,402.282z M312.112,399.25
	c0.557,0,1.009,0.453,1.009,1.011c0,0.559-0.452,1.009-1.009,1.009c-0.559,0-1.012-0.45-1.012-1.009
	C311.101,399.703,311.554,399.25,312.112,399.25z"/>
<path fill="#252840" d="M305.543,407.332c-1.115,0-2.021,0.904-2.021,2.022c0,1.114,0.905,2.021,2.021,2.021
	c1.117,0,2.022-0.906,2.022-2.021C307.565,408.236,306.66,407.332,305.543,407.332z M305.543,410.364
	c-0.557,0-1.009-0.452-1.009-1.01c0-0.56,0.452-1.013,1.009-1.013c0.559,0,1.011,0.453,1.011,1.013
	C306.554,409.912,306.102,410.364,305.543,410.364z"/>
<path fill="#252840" d="M318.766,388.137c-0.646-0.649-1.524-1.013-2.44-1.011h-0.923c-0.279,0-0.505,0.226-0.505,0.505v0.923
	c-0.002,0.915,0.361,1.793,1.01,2.439l0.418,0.419c0.646,0.648,1.524,1.012,2.44,1.008c0.787,0,1.428-0.639,1.428-1.428
	c0.004-0.915-0.361-1.793-1.01-2.439L318.766,388.137z M318.766,391.414c-0.647,0-1.27-0.256-1.726-0.714l-0.417-0.418
	c-0.46-0.457-0.718-1.079-0.716-1.726v-0.418h0.418c0.648-0.002,1.27,0.255,1.726,0.713l0.418,0.418
	c0.458,0.458,0.715,1.079,0.715,1.726C319.184,391.225,318.997,391.414,318.766,391.414L318.766,391.414z"/>
<path fill="#252840" d="M310.336,387.387h-0.925c-0.914-0.002-1.792,0.361-2.438,1.01l-0.419,0.418
	c-0.648,0.646-1.012,1.522-1.011,2.439c0.001,0.788,0.642,1.427,1.43,1.429c0.915,0.002,1.793-0.363,2.438-1.011l0.419-0.418
	c0.649-0.646,1.012-1.525,1.012-2.439v-0.923C310.842,387.612,310.614,387.387,310.336,387.387z M309.83,388.815
	c0.002,0.647-0.255,1.268-0.714,1.725l-0.419,0.418c-0.457,0.459-1.078,0.716-1.725,0.714c-0.23,0-0.419-0.188-0.419-0.418
	c-0.001-0.648,0.256-1.27,0.716-1.726l0.418-0.417c0.456-0.46,1.076-0.717,1.724-0.715h0.419V388.815z"/>
<path fill="#252840" d="M309.83,397.82c0.649-0.646,1.012-1.523,1.012-2.438v-0.924c0-0.28-0.228-0.504-0.506-0.504h-0.925
	c-0.914-0.003-1.792,0.36-2.438,1.009l-0.419,0.418c-0.648,0.646-1.012,1.523-1.011,2.438c0.001,0.791,0.642,1.43,1.43,1.43
	c0.915,0.003,1.793-0.36,2.438-1.012L309.83,397.82z M308.697,397.524c-0.457,0.46-1.078,0.716-1.725,0.714
	c-0.23,0-0.419-0.186-0.419-0.418c-0.001-0.647,0.256-1.268,0.716-1.724l0.418-0.418c0.456-0.458,1.076-0.715,1.724-0.714h0.419
	v0.418c0.002,0.647-0.255,1.27-0.714,1.726L308.697,397.524z"/>
<path fill="#252840" d="M294.936,394.319c0.38,0.002,0.742-0.149,1.01-0.417c0.649-0.646,1.013-1.524,1.011-2.439v-0.593
	c0.002-0.914-0.362-1.794-1.011-2.438l-0.652-0.654c-0.198-0.197-0.517-0.197-0.714,0l-0.653,0.654
	c-0.649,0.644-1.013,1.524-1.011,2.438v0.593c-0.001,0.915,0.362,1.793,1.011,2.439C294.192,394.17,294.557,394.322,294.936,394.319
	z M293.925,390.871c-0.001-0.647,0.256-1.268,0.714-1.725l0.296-0.295l0.297,0.295c0.458,0.458,0.715,1.078,0.713,1.725v0.593
	c0.002,0.646-0.255,1.268-0.713,1.725c-0.165,0.162-0.429,0.162-0.593,0c-0.458-0.457-0.715-1.078-0.714-1.725V390.871z"/>
<path fill="#252840" d="M295.859,407.071c0.646,0.65,1.523,1.013,2.439,1.012c0.788,0,1.428-0.638,1.428-1.429
	c0.002-0.915-0.361-1.794-1.011-2.44l-0.417-0.417c-0.646-0.648-1.524-1.014-2.439-1.009h-0.924c-0.279,0-0.505,0.226-0.505,0.502
	v0.924c-0.002,0.918,0.361,1.794,1.011,2.44L295.859,407.071z M295.441,403.797h0.418c0.646,0,1.268,0.257,1.725,0.714l0.417,0.418
	c0.458,0.457,0.717,1.077,0.714,1.726c0,0.232-0.188,0.417-0.417,0.417c-0.648,0.003-1.269-0.254-1.726-0.714l-0.417-0.418
	c-0.46-0.454-0.716-1.077-0.714-1.726V403.797z"/>
<path fill="#252840" d="M306.595,381.493c-0.884,0.63-1.657,1.404-2.289,2.289c-0.654,0.912-0.551,2.164,0.245,2.955l0.003,0.002
	c0.343,0.344,0.809,0.538,1.292,0.539c0.189-0.001,0.376-0.03,0.556-0.086c0.657-0.195,1.15-0.741,1.279-1.414l0.013-0.058
	c0.084-0.424,0.417-0.755,0.844-0.837l0.055-0.011c1.008-0.201,1.663-1.183,1.461-2.192c-0.072-0.356-0.246-0.684-0.504-0.944
	C308.76,380.94,307.509,380.837,306.595,381.493z M309.041,383.296c-0.09,0.302-0.341,0.528-0.649,0.586l-0.053,0.011
	c-0.826,0.162-1.471,0.805-1.634,1.629l-0.013,0.057c-0.09,0.462-0.54,0.761-1.002,0.668c-0.161-0.033-0.311-0.112-0.428-0.226
	c-0.444-0.444-0.503-1.144-0.136-1.653c0.566-0.794,1.26-1.489,2.053-2.054c0.51-0.366,1.209-0.31,1.652,0.133
	C309.055,382.669,309.135,382.997,309.041,383.296z"/>
<path fill="#252840" d="M318.339,404.303h0.006c1.027-0.01,1.855-0.851,1.846-1.88c-0.003-0.362-0.112-0.717-0.313-1.017
	l-0.029-0.048c-0.24-0.358-0.24-0.823,0-1.184l0.032-0.049c0.568-0.856,0.336-2.016-0.521-2.587
	c-0.301-0.198-0.655-0.306-1.02-0.309c-1.121-0.004-2.079,0.811-2.263,1.915c-0.179,1.075-0.179,2.167,0,3.241
	C316.259,403.493,317.218,404.307,318.339,404.303z M317.073,399.313c0.102-0.618,0.636-1.074,1.263-1.074
	c0.471,0.006,0.848,0.392,0.845,0.862c-0.001,0.163-0.05,0.326-0.141,0.465l-0.033,0.046c-0.467,0.702-0.467,1.612,0,2.311
	l0.029,0.046c0.261,0.393,0.153,0.921-0.24,1.182c-0.135,0.092-0.295,0.141-0.458,0.141c-0.627,0-1.162-0.452-1.264-1.072
	C316.914,401.258,316.914,400.276,317.073,399.313z"/>
<path fill="#252840" d="M314.209,406.008c-0.632-0.884-1.405-1.658-2.29-2.287c-0.912-0.657-2.163-0.555-2.956,0.242l-0.002,0.004
	c-0.722,0.732-0.712,1.913,0.022,2.635c0.257,0.253,0.584,0.428,0.938,0.499l0.057,0.011c0.423,0.082,0.755,0.416,0.839,0.838
	l0.011,0.056c0.129,0.675,0.624,1.22,1.284,1.415c0.18,0.055,0.365,0.084,0.556,0.084c0.486,0,0.953-0.194,1.297-0.539
	C314.761,408.174,314.863,406.921,314.209,406.008z M313.254,408.249c-0.337,0.33-0.876,0.323-1.207-0.013
	c-0.116-0.118-0.196-0.269-0.228-0.432l-0.011-0.053c-0.163-0.824-0.806-1.468-1.629-1.631l-0.059-0.012
	c-0.461-0.095-0.761-0.541-0.668-1.004c0.031-0.161,0.11-0.313,0.227-0.429c0.444-0.444,1.145-0.502,1.652-0.136
	c0.796,0.566,1.489,1.261,2.056,2.054C313.754,407.104,313.697,407.805,313.254,408.249z"/>
<path fill="#252840" d="M297.544,398.895c-0.207,0.654-0.031,1.369,0.455,1.856c0.792,0.795,2.044,0.897,2.955,0.242
	c0.885-0.631,1.659-1.405,2.289-2.289c0.656-0.909,0.553-2.164-0.244-2.956h-0.002c-0.734-0.722-1.914-0.712-2.635,0.021
	c-0.252,0.26-0.426,0.584-0.497,0.939l-0.013,0.058c-0.083,0.424-0.416,0.755-0.839,0.837l-0.054,0.013
	C298.286,397.743,297.74,398.236,297.544,398.895z M298.51,399.19c0.091-0.301,0.341-0.529,0.649-0.586l0.055-0.012
	c0.824-0.163,1.468-0.808,1.631-1.628l0.013-0.059c0.058-0.309,0.285-0.559,0.585-0.647c0.083-0.027,0.168-0.038,0.253-0.038
	c0.222,0,0.435,0.085,0.592,0.244c0.444,0.441,0.501,1.143,0.136,1.652c-0.566,0.792-1.262,1.488-2.055,2.055
	c-0.509,0.365-1.208,0.31-1.653-0.133C298.497,399.815,298.416,399.489,298.51,399.19z"/>
</svg>
