<?xml version="1.0" encoding="utf-8"?>
<!-- Generator: Adobe Illustrator 16.0.0, SVG Export Plug-In . SVG Version: 6.00 Build 0)  -->
<!DOCTYPE svg PUBLIC "-//W3C//DTD SVG 1.1//EN" "http://www.w3.org/Graphics/SVG/1.1/DTD/svg11.dtd">
<svg version="1.1" id="Layer_2" xmlns="http://www.w3.org/2000/svg" xmlns:xlink="http://www.w3.org/1999/xlink" x="0px" y="0px"
	 width="48px" height="48px" viewBox="290 380 32 32" enable-background="new 290 380 32 32" xml:space="preserve">
<path fill="#252840" d="M319.342,394.246c-1-0.593-2.126-0.938-3.287-1.008c-0.049-0.545-0.251-1.067-0.584-1.502
	c-0.535-0.69-1.372-1.096-2.374-1.163c0.132-0.277,0.174-0.587,0.121-0.89c-0.24-1.265-2.404-2.375-4.626-2.375
	c-1.41,0-2.788,0.421-3.957,1.21c-0.032-0.024-0.062-0.049-0.095-0.074c-1.068-0.782-2.326-1.262-3.644-1.388
	c-0.242-0.023-0.488-0.036-0.732-0.036c-1.171-0.007-2.327,0.272-3.366,0.813c-0.957,0.516-1.542,1.178-1.605,1.815
	c-0.061,0.614,0.351,1.235,1.165,1.774c-0.715,0.426-1.35,0.975-1.875,1.62c-0.761,0.946-1.073,1.902-0.834,2.557
	c0.048,0.13,0.118,0.251,0.206,0.358c-0.45,0.155-0.881,0.358-1.289,0.604c-1.039,0.629-1.659,1.42-1.659,2.117
	c0,0.997,1.258,1.861,3.077,2.267c-0.033,0.115-0.051,0.234-0.052,0.354c0,1.386,2.432,2.514,5.421,2.514
	c2.57,0,4.727-0.834,5.281-1.949c0.929,0.257,1.888,0.384,2.85,0.378c2.99,0,5.423-1.128,5.423-2.516
	c-0.022-0.396-0.174-0.774-0.433-1.074c0.093-0.047,0.184-0.095,0.276-0.145c0.922,0.251,1.873,0.377,2.829,0.368
	c2.989,0,5.42-1.127,5.42-2.513C321,395.666,320.38,394.875,319.342,394.246z M307.41,388.168c0.39-0.074,0.785-0.11,1.182-0.11
	c2.135,0,3.756,1.063,3.891,1.766c0.043,0.226-0.055,0.494-0.272,0.777c-1.153,0.165-2.245,0.632-3.158,1.357
	c-0.234,0.183-0.456,0.379-0.666,0.588c-0.045,0.009-0.089,0.019-0.136,0.028c-0.592,0.113-1.193,0.172-1.796,0.174
	c-0.978,0-1.753-0.161-2.292-0.393c1.071-0.354,1.75-0.936,1.821-1.641c0.051-0.512-0.232-1.109-0.776-1.68
	C305.882,388.611,306.628,388.317,307.41,388.168z M306.794,395.198c-0.051-0.033-0.104-0.065-0.156-0.099
	c-1.109-0.656-2.373-1.008-3.661-1.021c0.322-0.31,0.584-0.678,0.774-1.082c0.679,0.319,1.61,0.5,2.703,0.5
	c0.396-0.001,0.794-0.024,1.188-0.072C307.258,393.962,306.972,394.562,306.794,395.198z M307.26,396.591
	c-1.246,0.033-2.464,0.385-3.537,1.019c-0.523,0.298-0.978,0.705-1.334,1.193c-0.209-0.094-0.425-0.179-0.647-0.254
	c-0.07-0.663-0.676-1.396-1.651-1.987c-0.33-0.198-0.675-0.369-1.034-0.508c0.833-0.64,2.209-1.228,3.818-1.228
	C304.936,394.826,306.613,395.788,307.26,396.591z M295.939,389.723c0.076-0.768,1.924-1.952,4.225-1.952
	c0.219,0,0.441,0.011,0.658,0.032c2.64,0.26,4.492,2.044,4.413,2.837c-0.036,0.387-0.592,0.789-1.492,1.053
	c-0.461-0.804-1.855-1.35-3.513-1.35c-0.112,0-0.224,0.002-0.336,0.008c-1.146-0.223-1.98-0.664-2.384-1.019l-0.495,0.562
	c0.359,0.303,0.765,0.547,1.2,0.725c-0.185,0.053-0.369,0.109-0.547,0.175c-0.181,0.065-0.358,0.139-0.533,0.218
	c-0.02-0.011-0.042-0.021-0.062-0.034C296.338,390.571,295.903,390.088,295.939,389.723z M295.066,393.513
	c0.753-0.917,1.742-1.613,2.858-2.013c0.739-0.268,1.519-0.405,2.306-0.407c1.555,0,2.717,0.548,2.902,1.056
	c0.152,0.42-0.355,1.235-1.424,2.021c-0.917,0.14-1.799,0.456-2.596,0.931c-0.304,0.182-0.589,0.394-0.85,0.634
	c-0.039,0.009-0.079,0.019-0.117,0.028c-1.119-0.281-2.289-0.298-3.417-0.051c-0.167-0.071-0.301-0.203-0.376-0.369
	C294.234,395.02,294.41,394.33,295.066,393.513L295.066,393.513z M294.344,400.252c-1.667-0.337-2.688-1.055-2.688-1.573
	c0-0.798,2.02-2.39,4.672-2.39c2.296,0,4.117,1.193,4.564,2.031c-0.506-0.105-1.021-0.159-1.539-0.16
	c-1.155-0.001-2.293,0.266-3.328,0.782c-1.347-0.06-2.362-0.459-2.843-0.805l-0.438,0.608c0.551,0.396,1.361,0.69,2.265,0.842
	C294.76,399.779,294.538,400.004,294.344,400.252L294.344,400.252z M299.353,403.064c-2.809,0-4.672-1.063-4.672-1.765
	c0-0.797,2.02-2.392,4.672-2.392s4.672,1.595,4.672,2.392C304.025,402.002,302.161,403.064,299.353,403.064z M307.486,401.491
	c-0.923,0.009-1.842-0.118-2.728-0.377c-0.061-0.404-0.315-0.831-0.728-1.233c0.83,0.537,2.149,0.866,3.497,0.866
	c0.373,0,0.747-0.021,1.119-0.064l-0.089-0.744c-0.342,0.04-0.688,0.06-1.03,0.06c-1.52,0-2.667-0.438-3.187-0.813l-0.423,0.588
	c-0.247-0.223-0.516-0.42-0.801-0.591c-0.018-0.012-0.036-0.021-0.054-0.031c0.616-0.813,2.319-1.815,4.424-1.815
	c2.65,0,4.671,1.594,4.671,2.391C312.157,400.429,310.295,401.491,307.486,401.491z M311.919,398.086
	c-0.168-0.139-0.344-0.268-0.525-0.386c1.043-0.419,1.949-1.119,2.62-2.021l-0.604-0.441c-0.287,0.389-0.627,0.734-1.011,1.028
	c-0.567,0.458-1.234,0.777-1.945,0.934c-0.529-0.229-1.083-0.396-1.652-0.497c-0.234-0.471-0.079-1.215,0.422-1.957l-0.62-0.42
	c-0.45,0.665-0.671,1.339-0.656,1.93c-0.147-0.207-0.319-0.396-0.51-0.565c0.194-1.078,0.926-2.248,2.075-3.141
	c1.013-0.787,2.21-1.238,3.287-1.238c0.899,0,1.637,0.314,2.079,0.885c1.02,1.311,0.271,3.604-1.669,5.112
	C312.812,397.618,312.38,397.878,311.919,398.086L311.919,398.086z M315.58,398.128c-0.659,0.003-1.317-0.061-1.964-0.187
	c0.018-0.015,0.036-0.026,0.055-0.042c0.271-0.209,0.524-0.438,0.761-0.684l-0.012,0.103c0.372,0.044,0.745,0.065,1.119,0.065
	c1.418,0,2.807-0.366,3.622-0.954l-0.436-0.609c-0.521,0.375-1.669,0.813-3.187,0.813c-0.2,0-0.396-0.007-0.592-0.021
	c0.6-0.757,0.981-1.665,1.105-2.624c2.414,0.173,4.197,1.625,4.197,2.374C320.25,397.065,318.388,398.128,315.58,398.128
	L315.58,398.128z"/>
<path fill="#252840" d="M299.053,394.719c1.333-0.485,2.512-1.303,3.08-2.135l-0.62-0.422c-0.362,0.53-1.289,1.334-2.716,1.853
	c-0.324,0.119-0.655,0.218-0.99,0.298l0.172,0.729C298.343,394.954,298.702,394.847,299.053,394.719z"/>
<path fill="#252840" d="M299.394,401.57c-1.519,0-2.665-0.438-3.186-0.813l-0.438,0.609c0.817,0.588,2.206,0.954,3.624,0.954
	c0.374,0,0.747-0.021,1.119-0.065l-0.087-0.744C300.083,401.551,299.738,401.57,299.394,401.57z"/>
</svg>
