<?xml version="1.0" encoding="utf-8"?>
<!-- Generator: Adobe Illustrator 16.0.0, SVG Export Plug-In . SVG Version: 6.00 Build 0)  -->
<!DOCTYPE svg PUBLIC "-//W3C//DTD SVG 1.1//EN" "http://www.w3.org/Graphics/SVG/1.1/DTD/svg11.dtd">
<svg version="1.1" id="Layer_3" xmlns="http://www.w3.org/2000/svg" xmlns:xlink="http://www.w3.org/1999/xlink" x="0px" y="0px"
	 width="48px" height="48px" viewBox="290 380 32 32" enable-background="new 290 380 32 32" xml:space="preserve">
<g>
	<path fill="#252840" d="M298.767,391.464c0,0.952,0.562,1.815,1.431,2.203c2.386,1.057,5.107,1.057,7.492,0
		c1.217-0.541,1.765-1.966,1.225-3.181c-0.541-1.217-1.965-1.765-3.181-1.225l0,0c-1.14,0.506-2.438,0.506-3.577,0
		c-1.217-0.541-2.641,0.008-3.182,1.225C298.837,390.793,298.767,391.127,298.767,391.464z M300.427,390.311
		c0.222-0.146,0.48-0.224,0.746-0.224c0.194,0,0.385,0.042,0.562,0.121c1.407,0.624,3.011,0.624,4.418,0
		c0.694-0.308,1.507,0.004,1.813,0.697c0.079,0.176,0.119,0.367,0.119,0.559c0,0.543-0.32,1.036-0.816,1.256
		c-2.118,0.939-4.533,0.939-6.651,0c-0.497-0.221-0.816-0.713-0.816-1.256C299.798,390.998,300.035,390.562,300.427,390.311z
		 M301.976,402.875c-0.007-2.948-1.394-5.724-3.748-7.497l-0.394-0.295c-0.184-0.138-0.438-0.138-0.621,0l-0.394,0.295
		c-2.354,1.773-3.741,4.549-3.749,7.497c-0.009,2.459,1.977,4.459,4.435,4.469c2.459,0.009,4.46-1.978,4.47-4.436
		C301.976,402.896,301.976,402.885,301.976,402.875L301.976,402.875z M299.573,405.607c-1.51,1.132-3.651,0.826-4.783-0.685
		c-0.443-0.591-0.683-1.31-0.684-2.048c0.007-2.622,1.24-5.091,3.334-6.668l0.083-0.062l0.083,0.062
		c2.094,1.578,3.328,4.046,3.334,6.668C300.938,403.949,300.432,404.961,299.573,405.607z M295.039,400.415h1.035v3.442h-1.035
		V400.415z M297.006,397.957h1.036v7.377h-1.036V397.957z M300.009,400.415v3.442h-1.036v-3.442H300.009z M303.567,387.842
		c1.221-0.001,2.21-0.991,2.212-2.211v-2.177c0-0.113-0.036-0.222-0.104-0.311l-1.452-1.937c-0.098-0.13-0.251-0.207-0.415-0.207
		c-1.354,0.001-2.451,1.099-2.454,2.454v2.177C301.357,386.852,302.346,387.841,303.567,387.842L303.567,387.842z M302.391,383.454
		c0.001-0.689,0.496-1.278,1.174-1.397l1.177,1.569v2.005c-0.005,0.65-0.535,1.172-1.185,1.167
		c-0.643-0.004-1.163-0.525-1.167-1.167V383.454z M320.349,398.171c-0.034-0.228-0.212-0.406-0.44-0.439l-0.486-0.069
		c-2.919-0.41-5.862,0.571-7.951,2.65c-1.738,1.739-1.738,4.558,0,6.297c0.681,0.682,1.564,1.122,2.519,1.259
		c0.206,0.03,0.415,0.044,0.622,0.044c1.184-0.001,2.318-0.469,3.156-1.303c2.08-2.089,3.061-5.032,2.65-7.951L320.349,398.171z
		 M317.035,405.877c-1.335,1.334-3.498,1.334-4.831,0c-1.335-1.334-1.335-3.498,0-4.832c1.568-1.562,3.692-2.438,5.906-2.44
		c0.39,0,0.779,0.028,1.165,0.083l0.103,0.015l0.015,0.102C319.757,401.401,318.884,404.02,317.035,405.877z M312.898,403.131
		l-0.732-0.731l2.435-2.434l0.733,0.73L312.898,403.131z M317.73,399.617l0.732,0.732l-5.216,5.216l-0.733-0.732L317.73,399.617z
		 M317.384,402.747l0.73,0.731l-2.434,2.436l-0.733-0.733L317.384,402.747z M310.769,395.96l0.07,0.487
		c0.032,0.228,0.211,0.406,0.439,0.439l0.486,0.069c0.434,0.062,0.872,0.092,1.31,0.092c2.489-0.001,4.876-0.987,6.642-2.742
		c1.738-1.739,1.738-4.558,0-6.297c-1.738-1.738-4.558-1.738-6.298,0C311.34,390.098,310.358,393.041,310.769,395.96z
		 M317.051,387.775c1.868,0.267,3.166,1.998,2.899,3.866c-0.104,0.732-0.442,1.41-0.967,1.933c-1.857,1.85-4.476,2.722-7.073,2.356
		l-0.102-0.014l-0.015-0.103c-0.365-2.596,0.508-5.214,2.357-7.072C314.914,387.983,315.985,387.625,317.051,387.775
		L317.051,387.775z M318.289,391.487l0.73,0.731l-2.434,2.434l-0.732-0.731L318.289,391.487z M313.456,395.001l-0.733-0.732
		l5.218-5.216l0.731,0.733L313.456,395.001z M313.805,391.871l-0.733-0.732l2.435-2.434l0.732,0.732L313.805,391.871z
		 M293.059,392.923c1.054,0.813,2.567,0.617,3.38-0.437c0.206-0.268,0.354-0.575,0.434-0.902c0.295-1.209,1.088-2.239,2.184-2.832
		l0,0c1.168-0.639,1.597-2.104,0.959-3.271c-0.635-1.161-2.086-1.593-3.252-0.97c-2.294,1.244-3.957,3.399-4.575,5.934
		C291.964,391.371,292.305,392.341,293.059,392.923z M293.195,390.689c0.549-2.25,2.024-4.164,4.061-5.267
		c0.478-0.259,1.063-0.212,1.493,0.12c0.602,0.464,0.713,1.326,0.25,1.928c-0.117,0.152-0.265,0.279-0.434,0.37
		c-1.354,0.733-2.333,2.004-2.698,3.5c-0.18,0.737-0.924,1.189-1.661,1.01c-0.186-0.045-0.362-0.129-0.514-0.247
		C293.261,391.771,293.067,391.217,293.195,390.689L293.195,390.689z M309.577,406.529c-0.683-0.447-1.546-0.516-2.292-0.182
		c-1.139,0.505-2.437,0.505-3.576,0c-1.216-0.542-2.641,0.007-3.182,1.223c-0.541,1.216,0.008,2.642,1.223,3.182l0,0
		c2.386,1.058,5.107,1.058,7.492,0c1.217-0.54,1.765-1.966,1.225-3.182C310.277,407.146,309.969,406.783,309.577,406.529z
		 M308.823,409.807c-2.118,0.938-4.534,0.938-6.651,0c-0.496-0.222-0.816-0.714-0.817-1.258c0.002-0.756,0.614-1.371,1.371-1.376
		c0.194,0,0.386,0.042,0.563,0.121c1.407,0.624,3.012,0.624,4.417,0c0.694-0.309,1.506,0.004,1.814,0.697
		c0.077,0.176,0.118,0.366,0.118,0.558C309.639,409.093,309.319,409.585,308.823,409.807z M305.167,404.801
		c0.868,0.858,2.268,0.853,3.128-0.016c0.852-0.861,0.852-2.251,0-3.113l-1.54-1.539c-0.08-0.079-0.182-0.131-0.293-0.146
		l-2.395-0.343c-0.162-0.024-0.324,0.031-0.44,0.146c-0.958,0.959-0.958,2.513,0,3.47l0,0L305.167,404.801z M304.202,400.71
		l1.942,0.277l1.418,1.418c0.459,0.459,0.459,1.203,0,1.663c-0.459,0.459-1.204,0.459-1.664,0l0,0l-1.539-1.539
		C303.872,402.041,303.806,401.273,304.202,400.71L304.202,400.71z M308.086,385.204c0.411,0,0.808-0.163,1.098-0.454l1.1-1.098
		c0.605-0.606,0.605-1.59,0-2.197c-0.606-0.606-1.591-0.606-2.197,0l-1.098,1.098c-0.607,0.606-0.607,1.589-0.001,2.196
		C307.278,385.041,307.674,385.205,308.086,385.204z M307.721,383.286l1.099-1.099c0.203-0.2,0.532-0.196,0.731,0.008
		c0.197,0.201,0.197,0.523,0,0.724l-1.099,1.098c-0.201,0.204-0.528,0.206-0.731,0.004c-0.205-0.201-0.206-0.528-0.005-0.732
		C307.719,383.289,307.72,383.287,307.721,383.286z M306.015,397.051c-0.001-0.858-0.696-1.553-1.553-1.553h-1.553
		c-0.858,0-1.554,0.694-1.554,1.553c0,0.857,0.696,1.553,1.554,1.553h1.553C305.319,398.603,306.014,397.908,306.015,397.051z
		 M302.391,397.051c0-0.285,0.232-0.518,0.518-0.518h1.553c0.286,0,0.518,0.231,0.518,0.518c0,0.285-0.232,0.517-0.518,0.517h-1.553
		C302.623,397.567,302.392,397.336,302.391,397.051z M310.157,398.604v-1.553c0-0.859-0.695-1.553-1.554-1.553
		c-0.857,0-1.553,0.694-1.553,1.553v1.553c0,0.858,0.695,1.553,1.553,1.553C309.462,400.156,310.157,399.462,310.157,398.604z
		 M309.121,398.604c0,0.287-0.23,0.518-0.518,0.518c-0.285,0-0.518-0.23-0.518-0.518v-1.553c0-0.286,0.232-0.518,0.518-0.518
		c0.287,0,0.518,0.231,0.518,0.518V398.604z M294.106,396.533v-1.554c0-0.857-0.695-1.554-1.553-1.554
		c-0.858,0-1.553,0.696-1.553,1.554v1.554c0,0.857,0.695,1.552,1.553,1.552C293.411,398.085,294.106,397.391,294.106,396.533z
		 M293.071,396.533c0,0.285-0.232,0.518-0.518,0.518c-0.286,0-0.518-0.232-0.518-0.518v-1.554c0-0.286,0.231-0.518,0.518-0.518
		c0.286,0,0.518,0.232,0.518,0.518V396.533z M312.397,385.047l1.29,0.867c0.254,0.172,0.555,0.265,0.862,0.265
		c0.101,0,0.202-0.01,0.301-0.03c0.844-0.165,1.392-0.981,1.227-1.823c-0.08-0.404-0.315-0.76-0.658-0.99l-1.289-0.867
		c-0.709-0.482-1.675-0.299-2.157,0.41c-0.483,0.709-0.301,1.675,0.408,2.158C312.386,385.04,312.392,385.044,312.397,385.047z
		 M312.834,383.469c0.16-0.237,0.48-0.3,0.718-0.141l1.29,0.867c0.237,0.159,0.301,0.481,0.141,0.719
		c-0.16,0.237-0.48,0.3-0.718,0.141l-1.29-0.866C312.737,384.028,312.675,383.707,312.834,383.469z M308.541,386.695
		c-0.604,0.608-0.602,1.592,0.005,2.197c0.607,0.603,1.586,0.603,2.192,0l1.098-1.099c0.605-0.607,0.605-1.59,0-2.197
		c-0.606-0.606-1.59-0.606-2.197,0l0,0L308.541,386.695z M310.738,386.178c0.285,0,0.518,0.232,0.518,0.518
		c0,0.138-0.056,0.269-0.152,0.366l-1.098,1.098c-0.198,0.207-0.526,0.213-0.732,0.016c-0.207-0.198-0.214-0.526-0.017-0.732
		c0.005-0.006,0.011-0.011,0.018-0.016l1.098-1.098C310.469,386.231,310.601,386.178,310.738,386.178z"/>
</g>
</svg>
