<?xml version="1.0" encoding="utf-8"?>
<!-- Generator: Adobe Illustrator 16.0.0, SVG Export Plug-In . SVG Version: 6.00 Build 0)  -->
<!DOCTYPE svg PUBLIC "-//W3C//DTD SVG 1.1//EN" "http://www.w3.org/Graphics/SVG/1.1/DTD/svg11.dtd">
<svg version="1.1" id="Layer_3" xmlns="http://www.w3.org/2000/svg" xmlns:xlink="http://www.w3.org/1999/xlink" x="0px" y="0px"
	 width="48px" height="48px" viewBox="290 380 32 32" enable-background="new 290 380 32 32" xml:space="preserve">
<g>
	<path fill="#252840" d="M294.627,392.736c-0.132-0.094-0.306-0.11-0.453-0.04c-0.148,0.07-0.245,0.215-0.254,0.378l-0.02,0.319
		c-0.021,0.349-0.496,8.605,1.614,13.033c1.434,3.011,3.483,4.025,6.446,2.612c1.048-0.499,4.239-2.02,2.033-6.651
		c-2.109-4.425-8.82-9.261-9.105-9.465L294.627,392.736z M303.184,402.772c1.605,3.369,0.087,4.65-1.609,5.458
		c-2.319,1.104-3.931,0.585-5.252-2.188c-1.749-3.67-1.628-10.223-1.552-12.094C296.271,395.069,301.436,399.104,303.184,402.772z"
		/>
	<path fill="#252840" d="M301.76,404.737c0.099,0.232,0.366,0.334,0.587,0.238c0.228-0.098,0.334-0.36,0.237-0.588
		c-1.009-2.376-4.108-5.568-5.885-6.979c-0.194-0.154-0.476-0.119-0.629,0.074s-0.121,0.474,0.073,0.629
		C297.847,399.463,300.812,402.504,301.76,404.737z"/>
	<path fill="#252840" d="M308.161,395.185c0.126-2.58-1.273-6.803-2.259-8.845c-0.107-0.223-0.375-0.316-0.597-0.208
		c-0.223,0.107-0.317,0.375-0.209,0.597c0.946,1.959,2.29,5.988,2.17,8.413c-0.012,0.247,0.178,0.457,0.425,0.469
		C307.931,395.625,308.149,395.438,308.161,395.185z"/>
	<path fill="#252840" d="M316.778,389.693c-0.333-0.162-0.563,0.147-0.713,0.224c-0.188,0.134-3.189,2.284-5.815,5.005
		c0.029-0.294,0.05-0.598,0.053-0.922c0.025-4.977-4.037-12.415-4.077-12.488c-0.096-0.131-0.172-0.51-0.542-0.512
		c0,0-0.002,0-0.003,0c-0.364,0-0.446,0.374-0.546,0.505c-0.042,0.074-4.194,7.463-4.226,12.438
		c-0.022,3.257,1.327,5.138,4.664,5.155c0.021,0,0.043,0,0.064,0c0.432,0,0.965-0.028,1.514-0.155
		c-0.075,0.139-0.146,0.279-0.213,0.418c-1.429,2.978-0.963,5.228,2.017,6.656c2.98,1.428,5.04,0.351,6.451-2.596
		c2.12-4.423,1.666-12.682,1.646-13.031C317.018,390.225,317.116,389.854,316.778,389.693z M305.578,398.202
		c-2.805-0.014-3.793-1.461-3.774-4.252c0.026-4.066,2.996-9.925,3.871-11.564c0.855,1.65,3.753,7.542,3.731,11.61
		c-0.004,0.897-0.127,1.655-0.362,2.257c-0.391,0.461-0.759,0.931-1.09,1.401C307.197,398.149,306.224,398.196,305.578,398.202z
		 M314.599,403.033c-1.371,2.858-3.052,3.233-5.258,2.177c-2.312-1.107-2.922-2.695-1.597-5.462c1.76-3.67,6.932-7.688,8.435-8.804
		C316.25,392.815,316.355,399.367,314.599,403.033z"/>
	<path fill="#252840" d="M314.247,394.173c-0.246,0.002-0.445,0.204-0.443,0.452c0.019,2.176-0.486,6.392-1.628,8.535
		c-0.116,0.218-0.033,0.488,0.185,0.604c0.222,0.118,0.49,0.03,0.605-0.184c1.215-2.278,1.753-6.695,1.733-8.964
		C314.697,394.37,314.482,394.163,314.247,394.173z"/>
</g>
</svg>
