<?xml version="1.0" encoding="utf-8"?>
<!-- Generator: Adobe Illustrator 16.0.0, SVG Export Plug-In . SVG Version: 6.00 Build 0)  -->
<!DOCTYPE svg PUBLIC "-//W3C//DTD SVG 1.1//EN" "http://www.w3.org/Graphics/SVG/1.1/DTD/svg11.dtd">
<svg version="1.1" id="Layer_2" xmlns="http://www.w3.org/2000/svg" xmlns:xlink="http://www.w3.org/1999/xlink" x="0px" y="0px"
	 width="48px" height="48px" viewBox="290 380 32 32" enable-background="new 290 380 32 32" xml:space="preserve">
<g>
	<g>
		<path fill-rule="evenodd" clip-rule="evenodd" fill="#252840" d="M310.071,381c3.509-0.006,6.392,2.876,6.393,6.393
			c0.001,3.501-2.858,6.363-6.37,6.376c-3.528,0.012-6.391-2.838-6.397-6.371C303.691,383.871,306.545,381.006,310.071,381z
			 M315.402,387.384c-0.007-2.962-2.388-5.332-5.351-5.324c-2.94,0.009-5.31,2.389-5.309,5.333c0,2.952,2.394,5.333,5.352,5.326
			C313.033,392.709,315.408,390.322,315.402,387.384z"/>
		<path fill-rule="evenodd" clip-rule="evenodd" fill="#252840" d="M312.658,403.076c-1.226,0-2.447,0.018-3.67-0.004
			c-1.733-0.031-3.148-1.212-3.443-2.92c-0.44-2.532,1.052-4.069,2.72-4.447c0.264-0.059,0.541-0.091,0.814-0.093
			c2.378-0.006,4.755-0.017,7.133,0c1.916,0.011,3.366,1.332,3.594,3.232c0.237,1.959-0.858,3.663-2.669,4.115
			c-0.349,0.089-0.722,0.111-1.086,0.113c-1.131,0.015-2.263,0.006-3.393,0.006C312.658,403.078,312.658,403.077,312.658,403.076z
			 M312.631,402.036c1.176,0,2.355,0.02,3.53-0.011c0.389-0.011,0.804-0.088,1.157-0.244c1.147-0.51,1.689-1.761,1.406-3.116
			c-0.248-1.175-1.24-1.988-2.491-1.995c-2.387-0.011-4.776-0.006-7.163,0c-0.205,0-0.414,0.02-0.611,0.067
			c-1.34,0.324-2.089,1.52-1.921,3.053c0.138,1.263,1.197,2.227,2.493,2.242C310.232,402.046,311.43,402.035,312.631,402.036z"/>
		<path fill-rule="evenodd" clip-rule="evenodd" fill="#252840" d="M305.467,404.672c-0.071,1.559-0.438,3.143-1.587,4.442
			c-1.782,2.016-4.044,1.957-5.731-0.146c-1.078-1.344-1.473-2.924-1.444-4.613c0.033-1.986,0.746-3.697,2.211-5.068
			c0.602-0.563,1.051-1.233,1.406-1.969c0.162-0.335,0.38-0.573,0.773-0.579c0.407-0.007,0.605,0.261,0.76,0.591
			c0.347,0.74,0.798,1.409,1.399,1.972C304.771,400.721,305.434,402.501,305.467,404.672z M301.138,398.225
			c-0.495,0.606-0.919,1.239-1.452,1.762c-1.797,1.758-2.289,3.856-1.722,6.247c0.274,1.151,0.825,2.152,1.827,2.846
			c0.9,0.625,1.786,0.609,2.66-0.053c0.65-0.491,1.14-1.115,1.434-1.884c0.907-2.365,0.737-4.604-0.906-6.598
			C302.343,399.772,301.566,399.115,301.138,398.225z"/>
		<path fill-rule="evenodd" clip-rule="evenodd" fill="#252840" d="M298.295,396.76c-1.011-0.096-2.027-0.157-3.033-0.292
			c-1.426-0.188-2.525-1.564-2.439-2.984c0.09-1.506,1.329-2.741,2.807-2.751c0.511-0.004,1.022,0.135,1.534,0.132
			c1.128-0.005,2.262-0.004,3.383-0.107c1.324-0.121,2.623,0.592,3.101,1.824c0.479,1.237,0.052,2.635-1.046,3.397
			c-0.43,0.3-0.907,0.472-1.433,0.517c-0.478,0.041-0.953,0.117-1.43,0.158c-0.478,0.037-0.958,0.047-1.438,0.069
			C298.299,396.734,298.297,396.746,298.295,396.76z M298.32,395.712c0.972-0.093,1.941-0.154,2.903-0.28
			c1.012-0.134,1.684-1.082,1.548-2.08c-0.15-1.102-1.268-1.686-2.075-1.554c-1.313,0.213-2.64,0.225-3.966,0.094
			c-0.419-0.041-0.847-0.142-1.257-0.101c-0.919,0.093-1.588,0.892-1.596,1.81c-0.006,0.91,0.662,1.718,1.577,1.833
			C296.404,395.555,297.362,395.622,298.32,395.712z"/>
		<path fill-rule="evenodd" clip-rule="evenodd" fill="#252840" d="M313.955,387.897c0.002,0.034,0.003,0.068,0.006,0.102
			c0.015,0.434-0.15,0.67-0.485,0.687c-0.335,0.017-0.53-0.215-0.563-0.63c-0.021-0.271-0.043-0.548-0.107-0.812
			c-0.284-1.175-0.979-2.035-2.027-2.63c-0.163-0.092-0.342-0.265-0.382-0.431c-0.035-0.146,0.07-0.427,0.192-0.488
			c0.173-0.084,0.46-0.098,0.629-0.01c1.308,0.682,2.187,1.733,2.575,3.167c0.093,0.339,0.13,0.694,0.19,1.041
			C313.973,387.895,313.964,387.896,313.955,387.897z"/>
		<path fill-rule="evenodd" clip-rule="evenodd" fill="#252840" d="M312.467,399.092c-0.846,0-1.549-0.198-2.176-0.641
			c-0.345-0.241-0.42-0.546-0.221-0.813c0.189-0.257,0.486-0.273,0.815-0.048c0.854,0.582,1.764,0.536,2.688,0.229
			c0.259-0.086,0.503-0.215,0.757-0.32c0.323-0.14,0.599-0.058,0.733,0.21c0.137,0.269,0.041,0.555-0.263,0.718
			C314.049,398.834,313.248,399.082,312.467,399.092z"/>
		<path fill-rule="evenodd" clip-rule="evenodd" fill="#252840" d="M301.788,401.034c-0.026,1.108-0.17,1.956-0.576,2.744
			c-0.185,0.36-0.448,0.484-0.741,0.351c-0.299-0.135-0.379-0.439-0.197-0.812c0.522-1.063,0.532-2.177,0.323-3.312
			c-0.077-0.419,0.043-0.687,0.364-0.765c0.314-0.075,0.581,0.12,0.653,0.53C301.701,400.265,301.751,400.765,301.788,401.034z"/>
		<path fill-rule="evenodd" clip-rule="evenodd" fill="#252840" d="M298.13,393.801c-0.589-0.017-1.146-0.157-1.639-0.502
			c-0.319-0.223-0.391-0.526-0.201-0.792c0.18-0.252,0.467-0.283,0.786-0.077c0.683,0.443,1.388,0.359,2.099,0.085
			c0.138-0.054,0.27-0.125,0.408-0.177c0.282-0.105,0.554-0.01,0.676,0.23c0.129,0.25,0.041,0.555-0.227,0.704
			C299.444,393.599,298.812,393.777,298.13,393.801z"/>
	</g>
</g>
</svg>
