<?xml version="1.0" encoding="utf-8"?>
<!-- Generator: Adobe Illustrator 16.0.0, SVG Export Plug-In . SVG Version: 6.00 Build 0)  -->
<!DOCTYPE svg PUBLIC "-//W3C//DTD SVG 1.1//EN" "http://www.w3.org/Graphics/SVG/1.1/DTD/svg11.dtd">
<svg version="1.1" id="Layer_1" xmlns="http://www.w3.org/2000/svg" xmlns:xlink="http://www.w3.org/1999/xlink" x="0px" y="0px"
	 width="48px" height="48px" viewBox="290 380 32 32" enable-background="new 290 380 32 32" xml:space="preserve">
<path fill="#252840" d="M306.333,400.102c-0.369-0.049-0.854-0.049-1.293-0.188c-0.846-0.268-1.128-1.043-0.619-1.773
	c0.306-0.439,0.727-0.83,1.17-1.137c1.574-1.084,3.343-1.791,5.205-2.074c1.002-0.153,2.092,0.133,3.119,0.337
	c0.61,0.121,0.807,0.632,0.489,1.187c-0.264,0.461-0.633,0.914-1.063,1.221C311.281,399.146,308.954,399.896,306.333,400.102z
	 M305.115,398.805c2.243,0.795,7.177-0.871,8.149-2.626c-1.482-0.702-2.896-0.27-4.304,0.264
	C307.572,396.967,306.18,397.488,305.115,398.805z"/>
<path fill="#252840" d="M297.588,401.455c-0.069,0.982-0.037,1.875-0.936,2.189c-0.898,0.316-1.486-0.367-1.948-0.994
	c-1.572-2.137-2.466-4.533-2.542-7.205c-0.009-0.311,0.003-0.638,0.09-0.933c0.283-0.96,0.872-1.185,1.752-0.612
	c2.116,1.378,2.689,3.574,3.291,5.771C297.469,400.311,297.513,400.984,297.588,401.455z M296.441,402.697
	c0.05-0.5,0.167-0.951,0.126-1.387c-0.162-1.74-0.719-3.367-1.484-4.928c-0.376-0.766-1.035-1.211-1.786-1.594
	C292.729,397.088,294.53,401.703,296.441,402.697z"/>
<path fill="#252840" d="M308.736,388.62c-0.097,0.897-0.163,1.798-0.305,2.688c-0.079,0.498-0.25,0.989-0.439,1.459
	c-0.227,0.563-0.562,1.072-1.259,1.079c-0.692,0.006-1.1-0.482-1.294-1.042c-0.32-0.92-0.594-1.87-0.75-2.829
	c-0.268-1.642-0.203-3.294,0.225-4.911c0.119-0.449,0.287-0.909,0.537-1.296c0.605-0.936,1.253-0.872,1.892,0.059
	C308.34,385.279,308.795,386.86,308.736,388.62z M306.803,392.864c0.812-1.229,0.85-2.591,0.89-3.94
	c0.048-1.652-0.049-3.275-1.315-4.566C305.072,386.153,305.288,391.25,306.803,392.864z"/>
<path fill="#252840" d="M300.543,407.654c-0.718-0.131-1.398-0.178-2.018-0.391c-1.018-0.352-1.235-1.266-0.488-2.039
	c0.4-0.414,0.91-0.764,1.432-1.014c2.018-0.969,4.157-1.453,6.402-1.324c0.535,0.033,1.101,0.164,1.581,0.398
	c0.767,0.367,0.842,1.012,0.234,1.609c-1.107,1.09-2.312,2.008-3.927,2.227C302.672,407.266,301.593,407.479,300.543,407.654z
	 M298.63,406.133c2.254,1.123,6.543,0.066,8.188-1.949C304.878,403.258,300.136,404.359,298.63,406.133z"/>
<path fill="#252840" d="M304.356,394.037c-0.178,2.055-0.672,3.984-1.617,5.783c-0.268,0.512-0.634,1.008-1.063,1.391
	c-0.722,0.645-1.522,0.441-1.894-0.443c-0.164-0.389-0.25-0.83-0.278-1.256c-0.131-1.996,0.233-3.943,1.037-5.743
	c0.415-0.929,1.237-1.7,1.964-2.458c0.456-0.475,1.133-0.274,1.393,0.445C304.157,392.478,304.211,393.274,304.356,394.037z
	 M303.003,392.309c-1.546,1.292-1.732,1.587-2.333,4.543c-0.243,1.197-0.536,2.443,0.11,3.662
	C302.54,399.344,303.822,394.592,303.003,392.309z"/>
<path fill="#252840" d="M314.667,400.746c-0.067,0.404-0.098,0.799-0.203,1.174c-0.59,2.109-1.606,3.996-3.074,5.627
	c-0.335,0.371-0.735,0.715-1.166,0.971c-1.039,0.613-1.913,0.154-1.954-1.039c-0.02-0.576,0.081-1.178,0.235-1.736
	c0.47-1.676,1.282-3.195,2.265-4.625c0.651-0.945,1.687-1.385,2.635-1.92c0.46-0.256,0.936-0.008,1.112,0.52
	C314.625,400.045,314.621,400.408,314.667,400.746z M313.551,400.326c-2.323,0.84-2.995,2.969-3.85,4.916
	c-0.338,0.775-0.685,1.629-0.321,2.574C311.563,406.623,313.842,402.473,313.551,400.326z"/>
<path fill="#252840" d="M296.295,391.91c0.267-2.583,1.166-4.929,2.834-6.962c0.148-0.181,0.327-0.344,0.517-0.48
	c0.419-0.301,0.855-0.587,1.409-0.356c0.542,0.226,0.48,0.736,0.576,1.194c0.621,2.982-0.776,5.335-2.371,7.618
	c-0.24,0.344-0.594,0.64-0.956,0.86c-0.86,0.523-1.649,0.18-1.883-0.794C296.34,392.649,296.337,392.29,296.295,391.91z
	 M297.476,392.955c1.002-0.433,1.568-1.114,2.368-2.833c0.725-1.558,1.415-3.126,0.667-4.892
	C298.653,386.287,296.948,390.561,297.476,392.955z"/>
<path fill="#252840" d="M315.574,400.529c0.173-1.287,0.277-2.299,0.454-3.301c0.081-0.453,0.275-0.897,0.479-1.318
	c0.226-0.471,0.552-0.869,1.149-0.872c0.593-0.002,0.736,0.492,0.985,0.883c1.724,2.7,1.292,5.548,0.547,8.397
	c-0.178,0.676-0.528,1.385-1.386,1.412c-0.927,0.029-1.315-0.711-1.496-1.422C315.972,402.986,315.78,401.631,315.574,400.529z
	 M317.521,396.217c-1.327,2.373-1.107,7.354,0.321,8.447C319.303,402.535,319.166,398.301,317.521,396.217z"/>
<path fill="#252840" d="M317.495,393.681c-2.386-0.201-4.646-0.911-6.663-2.301c-0.41-0.283-0.794-0.661-1.067-1.076
	c-0.492-0.75-0.196-1.356,0.669-1.568c3.318-0.813,6.061,0.485,8.646,2.356c0.125,0.09,0.226,0.218,0.323,0.341
	c0.778,0.98,0.437,1.918-0.803,2.162C318.256,393.663,317.897,393.652,317.495,393.681z M310.726,389.768
	c1.233,1.88,6.195,3.485,8.075,2.609c-0.513-0.979-1.458-1.399-2.37-1.797C314.64,389.799,312.841,388.942,310.726,389.768z"/>
</svg>
