<?xml version="1.0" encoding="utf-8"?>
<!-- Generator: Adobe Illustrator 16.0.0, SVG Export Plug-In . SVG Version: 6.00 Build 0)  -->
<!DOCTYPE svg PUBLIC "-//W3C//DTD SVG 1.1//EN" "http://www.w3.org/Graphics/SVG/1.1/DTD/svg11.dtd">
<svg version="1.1" id="Layer_1" xmlns="http://www.w3.org/2000/svg" xmlns:xlink="http://www.w3.org/1999/xlink" x="0px" y="0px"
	 width="48px" height="48px" viewBox="0 0 48 48" enable-background="new 0 0 48 48" xml:space="preserve">
<g>
	<g>
		<path fill-rule="evenodd" clip-rule="evenodd" fill="#FFFFFF" d="M19.8,28.391c0.024,0.157,0.042,0.315,0.076,0.473
			c0.035,0.168,0.083,0.332,0.108,0.424c2.102,0.346,3.777,1.189,4.717,3.201c0.302-0.125,0.606-0.251,0.906-0.376
			C24.976,29.994,21.718,27.919,19.8,28.391z M19.8,28.391c0.024,0.157,0.042,0.315,0.076,0.473
			c0.035,0.168,0.083,0.332,0.108,0.424c2.102,0.346,3.777,1.189,4.717,3.201c0.302-0.125,0.606-0.251,0.906-0.376
			C24.976,29.994,21.718,27.919,19.8,28.391z M19.8,28.391c0.024,0.157,0.042,0.315,0.076,0.473
			c0.035,0.168,0.083,0.332,0.108,0.424c2.102,0.346,3.777,1.189,4.717,3.201c0.302-0.125,0.606-0.251,0.906-0.376
			C24.976,29.994,21.718,27.919,19.8,28.391z M19.8,28.391c0.024,0.157,0.042,0.315,0.076,0.473
			c0.035,0.168,0.083,0.332,0.108,0.424c2.102,0.346,3.777,1.189,4.717,3.201c0.302-0.125,0.606-0.251,0.906-0.376
			C24.976,29.994,21.718,27.919,19.8,28.391z M29.65,35.365c-0.453-0.737-0.895-1.483-1.29-2.252
			c-0.353-0.684-0.628-1.406-0.954-2.105c-1.41-3.037-4.025-4.281-6.672-4.769c-3.489-0.059-5.28,2.495-4.194,5.314
			c0.536,1.393,1.52,2.446,2.612,3.412c1.149,1.017,2.459,1.664,4.01,1.826c1.676,0.171,3.354,0.338,4.964,0.903
			c0.631,0.222,1.182-0.024,1.528-0.521C30.037,36.629,30.013,35.955,29.65,35.365z M28.786,36.521
			c-0.027,0.083-0.315,0.171-0.44,0.127c-1.731-0.614-3.557-0.698-5.348-0.973c-0.532-0.082-1.081-0.221-1.56-0.459
			c-1.582-0.786-2.8-1.995-3.666-3.524c-0.301-0.53-0.414-1.165-0.612-1.752c0.116-1.615,1.558-2.874,3.283-2.614
			c2.771,0.42,4.961,1.707,6.148,4.428c0.626,1.436,1.437,2.792,2.145,4.193C28.819,36.109,28.838,36.349,28.786,36.521z
			 M19.8,28.391c0.024,0.157,0.042,0.315,0.076,0.473c0.035,0.168,0.083,0.332,0.108,0.424c2.102,0.346,3.777,1.189,4.717,3.201
			c0.302-0.125,0.606-0.251,0.906-0.376C24.976,29.994,21.718,27.919,19.8,28.391z M19.8,28.391
			c0.024,0.157,0.042,0.315,0.076,0.473c0.035,0.168,0.083,0.332,0.108,0.424c2.102,0.346,3.777,1.189,4.717,3.201
			c0.302-0.125,0.606-0.251,0.906-0.376C24.976,29.994,21.718,27.919,19.8,28.391z M19.8,28.391
			c0.024,0.157,0.042,0.315,0.076,0.473c0.035,0.168,0.083,0.332,0.108,0.424c2.102,0.346,3.777,1.189,4.717,3.201
			c0.302-0.125,0.606-0.251,0.906-0.376C24.976,29.994,21.718,27.919,19.8,28.391z M19.8,28.391
			c0.024,0.157,0.042,0.315,0.076,0.473c0.035,0.168,0.083,0.332,0.108,0.424c2.102,0.346,3.777,1.189,4.717,3.201
			c0.302-0.125,0.606-0.251,0.906-0.376C24.976,29.994,21.718,27.919,19.8,28.391z M19.8,28.391
			c0.024,0.157,0.042,0.315,0.076,0.473c0.035,0.168,0.083,0.332,0.108,0.424c2.102,0.346,3.777,1.189,4.717,3.201
			c0.302-0.125,0.606-0.251,0.906-0.376C24.976,29.994,21.718,27.919,19.8,28.391z M26.503,20.868
			c0.14,0.28,0.281,0.563,0.438,0.877c0.93-0.5,1.887-0.58,2.875-0.366c0.974,0.211,1.945,0.427,2.691,1.19
			c0.278-0.203,0.534-0.389,0.817-0.594C31.98,20.262,27.941,19.628,26.503,20.868z M26.503,20.868
			c0.14,0.28,0.281,0.563,0.438,0.877c0.93-0.5,1.887-0.58,2.875-0.366c0.974,0.211,1.945,0.427,2.691,1.19
			c0.278-0.203,0.534-0.389,0.817-0.594C31.98,20.262,27.941,19.628,26.503,20.868z M26.503,20.868
			c0.14,0.28,0.281,0.563,0.438,0.877c0.93-0.5,1.887-0.58,2.875-0.366c0.974,0.211,1.945,0.427,2.691,1.19
			c0.278-0.203,0.534-0.389,0.817-0.594C31.98,20.262,27.941,19.628,26.503,20.868z M26.503,20.868
			c0.14,0.28,0.281,0.563,0.438,0.877c0.93-0.5,1.887-0.58,2.875-0.366c0.974,0.211,1.945,0.427,2.691,1.19
			c0.278-0.203,0.534-0.389,0.817-0.594C31.98,20.262,27.941,19.628,26.503,20.868z M34.9,20.613
			c-0.771-0.939-1.788-1.494-2.922-1.868c-2.287-0.752-4.5-0.799-6.73,0.32c-1.266,0.634-2.664,1.002-4.013,1.464
			c-0.639,0.217-1.096,0.724-1.157,1.396c-0.05,0.566,0.299,1.067,0.854,1.394c1.311,0.771,2.66,1.499,3.888,2.389
			c1.483,1.079,3.079,1.629,4.427,1.581c1.95-0.027,3.396-0.192,4.692-0.979C36.101,24.997,36.508,22.565,34.9,20.613z
			 M34.725,23.778c-0.289,0.95-0.977,1.528-1.857,1.902c-0.322,0.136-0.662,0.261-1.008,0.317c-0.711,0.119-1.432,0.187-2.147,0.274
			c-1.597,0.003-2.976-0.5-4.276-1.431c-1.259-0.904-2.642-1.638-3.961-2.46c-0.142-0.088-0.313-0.284-0.301-0.416
			c0.013-0.14,0.207-0.352,0.352-0.382c1.795-0.38,3.415-1.21,5.078-1.936c1.35-0.59,2.735-0.468,4.118-0.153
			c0.992,0.225,1.948,0.555,2.762,1.203C34.527,21.526,35.035,22.762,34.725,23.778z M26.503,20.868
			c0.14,0.28,0.281,0.563,0.438,0.877c0.93-0.5,1.887-0.58,2.875-0.366c0.974,0.211,1.945,0.427,2.691,1.19
			c0.278-0.203,0.534-0.389,0.817-0.594C31.98,20.262,27.941,19.628,26.503,20.868z M26.503,20.868
			c0.14,0.28,0.281,0.563,0.438,0.877c0.93-0.5,1.887-0.58,2.875-0.366c0.974,0.211,1.945,0.427,2.691,1.19
			c0.278-0.203,0.534-0.389,0.817-0.594C31.98,20.262,27.941,19.628,26.503,20.868z M26.503,20.868
			c0.14,0.28,0.281,0.563,0.438,0.877c0.93-0.5,1.887-0.58,2.875-0.366c0.974,0.211,1.945,0.427,2.691,1.19
			c0.278-0.203,0.534-0.389,0.817-0.594C31.98,20.262,27.941,19.628,26.503,20.868z M27.708,7.222
			c-0.412-0.5-1.066-0.706-1.699-0.451c-1.522,0.614-3.132,0.84-4.735,1.069c-2.736,0.393-5.782,3.064-6.489,5.751
			c-0.712,2.708,0.941,4.972,3.64,4.972c0.112,0,0.229,0.018,0.337-0.003c3.177-0.61,5.709-2.091,6.982-5.238
			c0.613-1.516,1.132-3.073,2.065-4.445C28.19,8.32,28.112,7.713,27.708,7.222z M26.85,8.408c-0.934,1.353-1.465,2.892-2.044,4.404
			c-1.069,2.788-3.277,4.138-6.036,4.656c-1.779,0.335-3.071-0.891-3.076-2.652c-0.007-0.867,0.283-1.644,0.748-2.355
			c0.658-1.006,1.481-1.86,2.446-2.576c0.88-0.654,1.907-0.867,2.959-1.069c1.478-0.285,2.936-0.678,4.407-1.001
			c0.193-0.043,0.441-0.002,0.61,0.094C26.937,7.953,26.934,8.286,26.85,8.408z M16.764,14.586c0.089,0.009,0.183,0.026,0.276,0.027
			c0.224,0.005,0.447,0.001,0.621,0.001c0.844-1.913,2.07-3.334,4.252-3.76c-0.033-0.308-0.065-0.62-0.102-0.957
			C19.695,9.871,16.655,12.719,16.764,14.586z M10.854,31.378c-0.93,0.611-1.861,1.155-2.716,1.8
			c-1.076,0.812-1.514,2.029-1.908,3.298c0.364,0.102,0.68,0.19,1.011,0.283c0.065-0.187,0.115-0.321,0.157-0.457
			c0.397-1.281,1.108-2.297,2.332-2.938c0.595-0.31,1.136-0.726,1.731-1.113C11.251,31.95,11.062,31.679,10.854,31.378z
			 M10.854,31.378c-0.93,0.611-1.861,1.155-2.716,1.8c-1.076,0.812-1.514,2.029-1.908,3.298c0.364,0.102,0.68,0.19,1.011,0.283
			c0.065-0.187,0.115-0.321,0.157-0.457c0.397-1.281,1.108-2.297,2.332-2.938c0.595-0.31,1.136-0.726,1.731-1.113
			C11.251,31.95,11.062,31.679,10.854,31.378z M10.854,31.378c-0.93,0.611-1.861,1.155-2.716,1.8
			c-1.076,0.812-1.514,2.029-1.908,3.298c0.364,0.102,0.68,0.19,1.011,0.283c0.065-0.187,0.115-0.321,0.157-0.457
			c0.397-1.281,1.108-2.297,2.332-2.938c0.595-0.31,1.136-0.726,1.731-1.113C11.251,31.95,11.062,31.679,10.854,31.378z
			 M10.854,31.378c-0.93,0.611-1.861,1.155-2.716,1.8c-1.076,0.812-1.514,2.029-1.908,3.298c0.364,0.102,0.68,0.19,1.011,0.283
			c0.065-0.187,0.115-0.321,0.157-0.457c0.397-1.281,1.108-2.297,2.332-2.938c0.595-0.31,1.136-0.726,1.731-1.113
			C11.251,31.95,11.062,31.679,10.854,31.378z M10.854,31.378c-0.93,0.611-1.861,1.155-2.716,1.8
			c-1.076,0.812-1.514,2.029-1.908,3.298c0.364,0.102,0.68,0.19,1.011,0.283c0.065-0.187,0.115-0.321,0.157-0.457
			c0.397-1.281,1.108-2.297,2.332-2.938c0.595-0.31,1.136-0.726,1.731-1.113C11.251,31.95,11.062,31.679,10.854,31.378z
			 M10.854,31.378c-0.93,0.611-1.861,1.155-2.716,1.8c-1.076,0.812-1.514,2.029-1.908,3.298c0.364,0.102,0.68,0.19,1.011,0.283
			c0.065-0.187,0.115-0.321,0.157-0.457c0.397-1.281,1.108-2.297,2.332-2.938c0.595-0.31,1.136-0.726,1.731-1.113
			C11.251,31.95,11.062,31.679,10.854,31.378z M14.061,29.289c0.032-0.667-0.215-1.205-0.768-1.483
			c-0.569-0.289-1.289-0.219-1.745,0.253c-1.111,1.146-2.483,1.925-3.805,2.777c-2.884,1.86-3.997,4.61-3.802,7.908
			c0.118,2.011,1.767,3.49,3.794,3.501c0.653-0.006,1.478-0.209,2.155-0.721c2.46-1.858,4.103-4.155,4.006-7.431
			C13.85,32.495,13.985,30.89,14.061,29.289z M12.834,34.108c0.09,2.831-1.333,4.818-3.419,6.443
			c-0.441,0.345-1.077,0.531-1.646,0.602C6.407,41.32,5.273,40.3,4.996,38.762c-0.054-0.299-0.067-0.605-0.111-1.011
			c0.387-2.446,1.172-4.709,3.573-6.138c1.329-0.791,2.513-1.826,3.777-2.733c0.146-0.104,0.403-0.159,0.563-0.103
			c0.105,0.035,0.187,0.312,0.181,0.476C12.936,30.872,12.784,32.492,12.834,34.108z M8.137,33.178
			c-1.076,0.812-1.514,2.029-1.908,3.298c0.364,0.102,0.68,0.19,1.011,0.283c0.065-0.187,0.115-0.321,0.157-0.457
			c0.397-1.281,1.108-2.297,2.332-2.938c0.595-0.31,1.136-0.726,1.731-1.113c-0.208-0.301-0.398-0.572-0.606-0.873
			C9.923,31.989,8.992,32.533,8.137,33.178z M10.854,31.378c-0.93,0.611-1.861,1.155-2.716,1.8
			c-1.076,0.812-1.514,2.029-1.908,3.298c0.364,0.102,0.68,0.19,1.011,0.283c0.065-0.187,0.115-0.321,0.157-0.457
			c0.397-1.281,1.108-2.297,2.332-2.938c0.595-0.31,1.136-0.726,1.731-1.113C11.251,31.95,11.062,31.679,10.854,31.378z
			 M10.854,31.378c-0.93,0.611-1.861,1.155-2.716,1.8c-1.076,0.812-1.514,2.029-1.908,3.298c0.364,0.102,0.68,0.19,1.011,0.283
			c0.065-0.187,0.115-0.321,0.157-0.457c0.397-1.281,1.108-2.297,2.332-2.938c0.595-0.31,1.136-0.726,1.731-1.113
			C11.251,31.95,11.062,31.679,10.854,31.378z M10.854,31.378c-0.93,0.611-1.861,1.155-2.716,1.8
			c-1.076,0.812-1.514,2.029-1.908,3.298c0.364,0.102,0.68,0.19,1.011,0.283c0.065-0.187,0.115-0.321,0.157-0.457
			c0.397-1.281,1.108-2.297,2.332-2.938c0.595-0.31,1.136-0.726,1.731-1.113C11.251,31.95,11.062,31.679,10.854,31.378z
			 M10.854,31.378c-0.93,0.611-1.861,1.155-2.716,1.8c-1.076,0.812-1.514,2.029-1.908,3.298c0.364,0.102,0.68,0.19,1.011,0.283
			c0.065-0.187,0.115-0.321,0.157-0.457c0.397-1.281,1.108-2.297,2.332-2.938c0.595-0.31,1.136-0.726,1.731-1.113
			C11.251,31.95,11.062,31.679,10.854,31.378z M33.51,7.224c-0.223-0.167-0.478-0.358-0.73-0.549
			c-1.269,1.581-0.736,5.622,0.888,6.853c0.231-0.213,0.465-0.428,0.709-0.65C32.931,11.129,32.94,9.237,33.51,7.224z M33.51,7.224
			c-0.223-0.167-0.478-0.358-0.73-0.549c-1.269,1.581-0.736,5.622,0.888,6.853c0.231-0.213,0.465-0.428,0.709-0.65
			C32.931,11.129,32.94,9.237,33.51,7.224z M39.17,9.698c-0.386-1.761-0.963-3.445-2.287-4.749c-1.88-1.851-4.506-1.539-5.93,0.68
			c-0.702,1.097-0.91,2.318-0.889,3.297c0.022,2.218,0.335,4.045,1.641,5.565c1.159,1.353,2.383,2.652,3.256,4.231
			c0.329,0.594,0.938,0.754,1.597,0.625c0.556-0.108,1.01-0.571,1.062-1.172c0.146-1.62,0.697-3.132,1.235-4.642
			C39.303,12.274,39.458,11.002,39.17,9.698z M37.845,13.202c-0.552,1.539-1.108,3.083-1.272,4.734
			c-0.013,0.129-0.153,0.337-0.248,0.345c-0.163,0.014-0.431-0.052-0.494-0.169c-0.929-1.738-2.357-3.085-3.549-4.618
			c-0.964-1.243-1.133-2.735-1.242-4.267c0.133-0.723,0.232-1.453,0.411-2.163c0.086-0.349,0.281-0.686,0.49-0.986
			c1.052-1.517,2.74-1.704,4.104-0.457c1.102,1.008,1.577,2.361,1.965,3.747C38.37,10.659,38.304,11.926,37.845,13.202z
			 M33.51,7.224c-0.223-0.167-0.478-0.358-0.73-0.549c-1.269,1.581-0.736,5.622,0.888,6.853c0.231-0.213,0.465-0.428,0.709-0.65
			C32.931,11.129,32.94,9.237,33.51,7.224z M36.665,30.566c0.354,0.042,0.678,0.079,1.034,0.122c0.089-1.09,0.57-1.921,1.291-2.629
			c0.701-0.688,1.413-1.359,2.391-1.566v-0.996C39.387,25.555,36.795,28.322,36.665,30.566z M36.665,30.566
			c0.354,0.042,0.678,0.079,1.034,0.122c0.089-1.09,0.57-1.921,1.291-2.629c0.701-0.688,1.413-1.359,2.391-1.566v-0.996
			C39.387,25.555,36.795,28.322,36.665,30.566z M41.597,23.366c-0.302,0.036-0.615,0.034-0.907,0.111
			c-2.614,0.702-4.342,2.456-5.559,4.78c-0.203,0.391-0.312,0.845-0.394,1.282c-0.338,1.797-0.511,3.626-1.194,5.349
			c-0.233,0.59,0.031,1.24,0.537,1.63c0.482,0.373,1.064,0.346,1.674,0.042c1.331-0.666,2.645-1.395,4.036-1.909
			c3.244-1.199,4.871-3.674,5.507-6.876C45.781,25.334,44.034,23.369,41.597,23.366z M44.243,27.733
			c-0.616,2.711-1.98,4.891-4.778,5.9c-1.478,0.533-2.959,1.084-4.267,1.998c-0.114,0.079-0.386,0.091-0.469,0.013
			c-0.114-0.106-0.204-0.366-0.151-0.499c0.674-1.691,0.868-3.487,1.165-5.261c0.283-1.691,1.325-2.891,2.563-3.965
			c0.942-0.819,1.966-1.454,3.269-1.473C43.413,24.427,44.671,25.856,44.243,27.733z M36.665,30.566
			c0.354,0.042,0.678,0.079,1.034,0.122c0.089-1.09,0.57-1.921,1.291-2.629c0.701-0.688,1.413-1.359,2.391-1.566v-0.996
			C39.387,25.555,36.795,28.322,36.665,30.566z M36.665,30.566c0.354,0.042,0.678,0.079,1.034,0.122
			c0.089-1.09,0.57-1.921,1.291-2.629c0.701-0.688,1.413-1.359,2.391-1.566v-0.996C39.387,25.555,36.795,28.322,36.665,30.566z
			 M36.665,30.566c0.354,0.042,0.678,0.079,1.034,0.122c0.089-1.09,0.57-1.921,1.291-2.629c0.701-0.688,1.413-1.359,2.391-1.566
			v-0.996C39.387,25.555,36.795,28.322,36.665,30.566z M6.001,16.639c0.104,0.308,0.208,0.619,0.313,0.932
			c1.071-0.19,1.973,0.207,2.876,0.588c0.944,0.398,1.684,1.031,2.138,1.977c0.342-0.19,0.618-0.345,0.891-0.499
			C11.401,17.643,7.822,15.91,6.001,16.639z M6.001,16.639c0.104,0.308,0.208,0.619,0.313,0.932c1.071-0.19,1.973,0.207,2.876,0.588
			c0.944,0.398,1.684,1.031,2.138,1.977c0.342-0.19,0.618-0.345,0.891-0.499C11.401,17.643,7.822,15.91,6.001,16.639z M6.001,16.639
			c0.104,0.308,0.208,0.619,0.313,0.932c1.071-0.19,1.973,0.207,2.876,0.588c0.944,0.398,1.684,1.031,2.138,1.977
			c0.342-0.19,0.618-0.345,0.891-0.499C11.401,17.643,7.822,15.91,6.001,16.639z M6.001,16.639c0.104,0.308,0.208,0.619,0.313,0.932
			c1.071-0.19,1.973,0.207,2.876,0.588c0.944,0.398,1.684,1.031,2.138,1.977c0.342-0.19,0.618-0.345,0.891-0.499
			C11.401,17.643,7.822,15.91,6.001,16.639z M6.001,16.639c0.104,0.308,0.208,0.619,0.313,0.932c1.071-0.19,1.973,0.207,2.876,0.588
			c0.944,0.398,1.684,1.031,2.138,1.977c0.342-0.19,0.618-0.345,0.891-0.499C11.401,17.643,7.822,15.91,6.001,16.639z M6.001,16.639
			c0.104,0.308,0.208,0.619,0.313,0.932c1.071-0.19,1.973,0.207,2.876,0.588c0.944,0.398,1.684,1.031,2.138,1.977
			c0.342-0.19,0.618-0.345,0.891-0.499C11.401,17.643,7.822,15.91,6.001,16.639z M16.651,22.4c-0.876-1.225-1.818-2.418-2.546-3.729
			c-1.592-2.869-4.216-3.867-6.738-4.252c-3.891-0.044-5.867,2.908-4.181,5.734c1.624,2.724,4.03,4.412,7.37,4.412
			c1.59,0,3.181-0.058,4.753,0.295c0.692,0.153,1.22-0.122,1.523-0.657C17.165,23.612,17.062,22.976,16.651,22.4z M15.888,23.641
			c-0.043,0.104-0.33,0.188-0.479,0.155c-1.603-0.363-3.229-0.299-4.853-0.291c-2.899,0.011-4.884-1.54-6.429-3.792
			c-0.304-0.441-0.382-1.038-0.473-1.301c-0.009-1.651,1.152-2.886,2.705-2.897c2.799-0.018,5.124,0.983,6.682,3.463
			c0.877,1.397,1.852,2.735,2.763,4.111C15.903,23.234,15.949,23.488,15.888,23.641z M6.001,16.639
			c0.104,0.308,0.208,0.619,0.313,0.932c1.071-0.19,1.973,0.207,2.876,0.588c0.944,0.398,1.684,1.031,2.138,1.977
			c0.342-0.19,0.618-0.345,0.891-0.499C11.401,17.643,7.822,15.91,6.001,16.639z M6.001,16.639c0.104,0.308,0.208,0.619,0.313,0.932
			c1.071-0.19,1.973,0.207,2.876,0.588c0.944,0.398,1.684,1.031,2.138,1.977c0.342-0.19,0.618-0.345,0.891-0.499
			C11.401,17.643,7.822,15.91,6.001,16.639z M6.001,16.639c0.104,0.308,0.208,0.619,0.313,0.932c1.071-0.19,1.973,0.207,2.876,0.588
			c0.944,0.398,1.684,1.031,2.138,1.977c0.342-0.19,0.618-0.345,0.891-0.499C11.401,17.643,7.822,15.91,6.001,16.639z M6.001,16.639
			c0.104,0.308,0.208,0.619,0.313,0.932c1.071-0.19,1.973,0.207,2.876,0.588c0.944,0.398,1.684,1.031,2.138,1.977
			c0.342-0.19,0.618-0.345,0.891-0.499C11.401,17.643,7.822,15.91,6.001,16.639z M6.001,16.639c0.104,0.308,0.208,0.619,0.313,0.932
			c1.071-0.19,1.973,0.207,2.876,0.588c0.944,0.398,1.684,1.031,2.138,1.977c0.342-0.19,0.618-0.345,0.891-0.499
			C11.401,17.643,7.822,15.91,6.001,16.639z M6.001,16.639c0.104,0.308,0.208,0.619,0.313,0.932c1.071-0.19,1.973,0.207,2.876,0.588
			c0.944,0.398,1.684,1.031,2.138,1.977c0.342-0.19,0.618-0.345,0.891-0.499C11.401,17.643,7.822,15.91,6.001,16.639z M6.001,16.639
			c0.104,0.308,0.208,0.619,0.313,0.932c1.071-0.19,1.973,0.207,2.876,0.588c0.944,0.398,1.684,1.031,2.138,1.977
			c0.342-0.19,0.618-0.345,0.891-0.499C11.401,17.643,7.822,15.91,6.001,16.639z"/>
		<path fill-rule="evenodd" clip-rule="evenodd" fill="#2A2A2A" d="M16.651,22.4c-0.876-1.225-1.818-2.418-2.546-3.729
			c-1.592-2.869-4.216-3.867-6.738-4.252c-3.891-0.044-5.867,2.908-4.181,5.734c1.624,2.724,4.03,4.412,7.37,4.412
			c1.59,0,3.181-0.058,4.753,0.295c0.692,0.153,1.22-0.122,1.523-0.657C17.165,23.612,17.062,22.976,16.651,22.4z M15.888,23.641
			c-0.043,0.104-0.33,0.188-0.479,0.155c-1.603-0.363-3.229-0.299-4.853-0.291c-2.899,0.011-4.884-1.54-6.429-3.792
			c-0.304-0.441-0.382-1.038-0.473-1.301c-0.009-1.651,1.152-2.886,2.705-2.897c2.799-0.018,5.124,0.983,6.682,3.463
			c0.877,1.397,1.852,2.735,2.763,4.111C15.903,23.234,15.949,23.488,15.888,23.641z"/>
		<path fill-rule="evenodd" clip-rule="evenodd" fill="#2A2A2A" d="M41.597,23.366c-0.302,0.036-0.615,0.034-0.907,0.111
			c-2.614,0.702-4.342,2.456-5.559,4.78c-0.203,0.391-0.312,0.845-0.394,1.282c-0.338,1.797-0.511,3.626-1.194,5.349
			c-0.233,0.59,0.031,1.24,0.537,1.63c0.482,0.373,1.064,0.346,1.674,0.042c1.331-0.666,2.645-1.395,4.036-1.909
			c3.244-1.199,4.871-3.674,5.507-6.876C45.781,25.334,44.034,23.369,41.597,23.366z M44.243,27.733
			c-0.616,2.711-1.98,4.891-4.778,5.9c-1.478,0.533-2.959,1.084-4.267,1.998c-0.114,0.079-0.386,0.091-0.469,0.013
			c-0.114-0.106-0.204-0.366-0.151-0.499c0.674-1.691,0.868-3.487,1.165-5.261c0.283-1.691,1.325-2.891,2.563-3.965
			c0.942-0.819,1.966-1.454,3.269-1.473C43.413,24.427,44.671,25.856,44.243,27.733z"/>
		<path fill-rule="evenodd" clip-rule="evenodd" fill="#2A2A2A" d="M39.17,9.698c-0.386-1.761-0.963-3.445-2.287-4.749
			c-1.88-1.851-4.506-1.539-5.93,0.68c-0.702,1.097-0.91,2.318-0.889,3.297c0.022,2.218,0.335,4.045,1.641,5.565
			c1.159,1.353,2.383,2.652,3.256,4.231c0.329,0.594,0.938,0.754,1.597,0.625c0.556-0.108,1.01-0.571,1.062-1.172
			c0.146-1.62,0.697-3.132,1.235-4.642C39.303,12.274,39.458,11.002,39.17,9.698z M37.845,13.202
			c-0.552,1.539-1.108,3.083-1.272,4.734c-0.013,0.129-0.153,0.337-0.248,0.345c-0.163,0.014-0.431-0.052-0.494-0.169
			c-0.929-1.738-2.357-3.085-3.549-4.618c-0.964-1.243-1.133-2.735-1.242-4.267c0.133-0.723,0.232-1.453,0.411-2.163
			c0.086-0.349,0.281-0.686,0.49-0.986c1.052-1.517,2.74-1.704,4.104-0.457c1.102,1.008,1.577,2.361,1.965,3.747
			C38.37,10.659,38.304,11.926,37.845,13.202z"/>
		<path fill-rule="evenodd" clip-rule="evenodd" fill="#2A2A2A" d="M14.061,29.289c0.032-0.667-0.215-1.205-0.768-1.483
			c-0.569-0.289-1.289-0.219-1.745,0.253c-1.111,1.146-2.483,1.925-3.805,2.777c-2.884,1.86-3.997,4.61-3.802,7.908
			c0.118,2.011,1.767,3.49,3.794,3.501c0.653-0.006,1.478-0.209,2.155-0.721c2.46-1.858,4.103-4.155,4.006-7.431
			C13.85,32.495,13.985,30.89,14.061,29.289z M12.834,34.108c0.09,2.831-1.333,4.818-3.419,6.443
			c-0.441,0.345-1.077,0.531-1.646,0.602C6.407,41.32,5.273,40.3,4.996,38.762c-0.054-0.299-0.067-0.605-0.111-1.011
			c0.387-2.446,1.172-4.709,3.573-6.138c1.329-0.791,2.513-1.826,3.777-2.733c0.146-0.104,0.403-0.159,0.563-0.103
			c0.105,0.035,0.187,0.312,0.181,0.476C12.936,30.872,12.784,32.492,12.834,34.108z"/>
		<path fill-rule="evenodd" clip-rule="evenodd" fill="#2A2A2A" d="M27.708,7.222c-0.412-0.5-1.066-0.706-1.699-0.451
			c-1.522,0.614-3.132,0.84-4.735,1.069c-2.736,0.393-5.782,3.064-6.489,5.751c-0.712,2.708,0.941,4.972,3.64,4.972
			c0.112,0,0.229,0.018,0.337-0.003c3.177-0.61,5.709-2.091,6.982-5.238c0.613-1.516,1.132-3.073,2.065-4.445
			C28.19,8.32,28.112,7.713,27.708,7.222z M26.85,8.408c-0.934,1.353-1.465,2.892-2.044,4.404c-1.069,2.788-3.277,4.138-6.036,4.656
			c-1.779,0.335-3.071-0.891-3.076-2.652c-0.007-0.867,0.283-1.644,0.748-2.355c0.658-1.006,1.481-1.86,2.446-2.576
			c0.88-0.654,1.907-0.867,2.959-1.069c1.478-0.285,2.936-0.678,4.407-1.001c0.193-0.043,0.441-0.002,0.61,0.094
			C26.937,7.953,26.934,8.286,26.85,8.408z"/>
		<path fill-rule="evenodd" clip-rule="evenodd" fill="#2A2A2A" d="M34.9,20.613c-0.771-0.939-1.788-1.494-2.922-1.868
			c-2.287-0.752-4.5-0.799-6.73,0.32c-1.266,0.634-2.664,1.002-4.013,1.464c-0.639,0.217-1.096,0.724-1.157,1.396
			c-0.05,0.566,0.299,1.067,0.854,1.394c1.311,0.771,2.66,1.499,3.888,2.389c1.483,1.079,3.079,1.629,4.427,1.581
			c1.95-0.027,3.396-0.192,4.692-0.979C36.101,24.997,36.508,22.565,34.9,20.613z M34.725,23.778
			c-0.289,0.95-0.977,1.528-1.857,1.902c-0.322,0.136-0.662,0.261-1.008,0.317c-0.711,0.119-1.432,0.187-2.147,0.274
			c-1.597,0.003-2.976-0.5-4.276-1.431c-1.259-0.904-2.642-1.638-3.961-2.46c-0.142-0.088-0.313-0.284-0.301-0.416
			c0.013-0.14,0.207-0.352,0.352-0.382c1.795-0.38,3.415-1.21,5.078-1.936c1.35-0.59,2.735-0.468,4.118-0.153
			c0.992,0.225,1.948,0.555,2.762,1.203C34.527,21.526,35.035,22.762,34.725,23.778z"/>
		<path fill-rule="evenodd" clip-rule="evenodd" fill="#2A2A2A" d="M29.65,35.365c-0.453-0.737-0.895-1.483-1.29-2.252
			c-0.353-0.684-0.628-1.406-0.954-2.105c-1.41-3.037-4.025-4.281-6.672-4.769c-3.489-0.059-5.28,2.495-4.194,5.314
			c0.536,1.393,1.52,2.446,2.612,3.412c1.149,1.017,2.459,1.664,4.01,1.826c1.676,0.171,3.354,0.338,4.964,0.903
			c0.631,0.222,1.182-0.024,1.528-0.521C30.037,36.629,30.013,35.955,29.65,35.365z M28.786,36.521
			c-0.027,0.083-0.315,0.171-0.44,0.127c-1.731-0.614-3.557-0.698-5.348-0.973c-0.532-0.082-1.081-0.221-1.56-0.459
			c-1.582-0.786-2.8-1.995-3.666-3.524c-0.301-0.53-0.414-1.165-0.612-1.752c0.116-1.615,1.558-2.874,3.283-2.614
			c2.771,0.42,4.961,1.707,6.148,4.428c0.626,1.436,1.437,2.792,2.145,4.193C28.819,36.109,28.838,36.349,28.786,36.521z"/>
		<path fill-rule="evenodd" clip-rule="evenodd" fill="#2A2A2A" d="M12.22,19.638c-0.273,0.153-0.549,0.308-0.891,0.499
			c-0.455-0.946-1.194-1.579-2.138-1.977c-0.903-0.381-1.805-0.778-2.876-0.588c-0.105-0.313-0.21-0.625-0.313-0.932
			C7.822,15.91,11.401,17.643,12.22,19.638z"/>
		<path fill-rule="evenodd" clip-rule="evenodd" fill="#2A2A2A" d="M41.381,25.497v0.996c-0.978,0.207-1.689,0.878-2.391,1.566
			c-0.721,0.708-1.202,1.539-1.291,2.629c-0.356-0.043-0.681-0.08-1.034-0.122C36.795,28.322,39.387,25.555,41.381,25.497z"/>
		<path fill-rule="evenodd" clip-rule="evenodd" fill="#2A2A2A" d="M34.376,12.877c-0.244,0.223-0.478,0.438-0.709,0.65
			c-1.624-1.23-2.156-5.272-0.888-6.853c0.253,0.19,0.508,0.381,0.73,0.549C32.94,9.237,32.931,11.129,34.376,12.877z"/>
		<path fill-rule="evenodd" clip-rule="evenodd" fill="#2A2A2A" d="M11.46,32.251c-0.595,0.388-1.136,0.804-1.731,1.113
			c-1.224,0.641-1.935,1.656-2.332,2.938c-0.042,0.136-0.092,0.271-0.157,0.457c-0.331-0.093-0.646-0.182-1.011-0.283
			c0.394-1.269,0.832-2.486,1.908-3.298c0.855-0.645,1.786-1.188,2.716-1.8C11.062,31.679,11.251,31.95,11.46,32.251z"/>
		<path fill-rule="evenodd" clip-rule="evenodd" fill="#2A2A2A" d="M21.913,10.854c-2.182,0.426-3.408,1.847-4.252,3.76
			c-0.173,0-0.396,0.003-0.621-0.001c-0.093-0.001-0.187-0.018-0.276-0.027c-0.109-1.867,2.931-4.715,5.047-4.688
			C21.847,10.235,21.879,10.547,21.913,10.854z"/>
		<path fill-rule="evenodd" clip-rule="evenodd" fill="#2A2A2A" d="M33.325,21.975c-0.283,0.206-0.539,0.391-0.817,0.594
			c-0.746-0.763-1.718-0.979-2.691-1.19c-0.988-0.214-1.945-0.134-2.875,0.366c-0.157-0.313-0.299-0.597-0.438-0.877
			C27.941,19.628,31.98,20.262,33.325,21.975z"/>
		<path fill-rule="evenodd" clip-rule="evenodd" fill="#2A2A2A" d="M25.608,32.112c-0.3,0.125-0.604,0.251-0.906,0.376
			c-0.94-2.012-2.616-2.855-4.717-3.201c-0.025-0.092-0.074-0.256-0.108-0.424c-0.034-0.157-0.052-0.315-0.076-0.473
			C21.718,27.919,24.976,29.994,25.608,32.112z"/>
	</g>
</g>
</svg>
