<?xml version="1.0" encoding="utf-8"?>
<!-- Generator: Adobe Illustrator 16.0.0, SVG Export Plug-In . SVG Version: 6.00 Build 0)  -->
<!DOCTYPE svg PUBLIC "-//W3C//DTD SVG 1.1//EN" "http://www.w3.org/Graphics/SVG/1.1/DTD/svg11.dtd">
<svg version="1.1" id="Layer_2" xmlns="http://www.w3.org/2000/svg" xmlns:xlink="http://www.w3.org/1999/xlink" x="0px" y="0px"
	 width="48px" height="48px" viewBox="290 380 32 32" enable-background="new 290 380 32 32" xml:space="preserve">
<path fill="#252840" d="M320.731,397.486c-0.278-0.24-0.705-0.423-1.38-0.391c-1.687,0.078-4.135,1.125-6.76,0.955
	c-1.17-0.076-1.692-0.621-2.191-1.078c-0.663-0.608-1.296-1.106-2.712-0.811c-0.11,0.023-0.202,0.082-0.269,0.162
	c-0.016,0.013-0.028,0.026-0.044,0.043c-0.172,0.195-0.154,0.494,0.042,0.667c0,0,0.19,0.165,0.435,0.431
	c-0.913,0.241-2.51,0.94-2.638,2.892c-0.093,1.402,0.659,2.245,1.439,2.733c0.272,0.17,0.549,0.295,0.789,0.385
	c-0.106,0.161-0.141,0.316-0.139,0.448c0.002,0.181,0.068,0.348,0.2,0.488c0.139,0.146,0.373,0.273,0.686,0.315
	c0.522,0.072,1.308-0.084,1.973-0.69c1.02-0.93,1.584-1.572,3.557-1.759c1.305-0.124,3.321-0.411,4.932-1.053
	c1.168-0.466,2.123-1.13,2.541-2.007c0.015-0.035,0.028-0.072,0.034-0.11C321.226,399.108,321.416,398.073,320.731,397.486z
	 M308.169,402.715c-0.212-0.053-0.616-0.179-1.014-0.426c-0.536-0.334-1.061-0.906-0.997-1.868c0.118-1.788,1.973-2.087,2.336-2.127
	c0.119,0.188,0.224,0.389,0.294,0.59c0.145,0.413-0.094,0.605-0.278,0.833c-0.248,0.306-0.467,0.638-0.489,1.118
	c-0.018,0.363,0.087,0.652,0.271,0.873c0.101,0.124,0.23,0.227,0.385,0.303C308.586,402.173,308.428,402.42,308.169,402.715z
	 M320.311,398.864c-0.343,0.663-1.111,1.126-2.011,1.482c-1.524,0.607-3.435,0.872-4.671,0.989c-2.27,0.216-2.932,0.934-4.104,2.003
	c-0.343,0.312-0.728,0.448-1.038,0.46c-0.016,0.001-0.031,0.001-0.046,0c0.855-0.82,1.151-1.483,1.216-1.645
	c0.404-0.042,0.875-0.187,1.374-0.45c0.23-0.123,0.318-0.41,0.194-0.641c-0.122-0.229-0.408-0.318-0.639-0.195
	c-0.337,0.18-0.653,0.291-0.934,0.334c-0.389,0.062-0.705,0.007-0.688-0.321c0.017-0.342,0.255-0.531,0.423-0.746
	c0.316-0.405,0.547-0.834,0.289-1.563c-0.192-0.551-0.581-1.096-0.932-1.51c0.431,0.088,0.719,0.335,1.016,0.608
	c0.629,0.575,1.298,1.229,2.771,1.324c2.662,0.172,5.153-0.874,6.862-0.954c0.347-0.016,0.576,0.041,0.719,0.165
	C320.351,398.405,320.327,398.732,320.311,398.864z M304.251,400.245c0-1.799-1.46-3.26-3.26-3.26c-0.75,0-1.442,0.254-1.994,0.682
	c0.056-0.316,0.115-0.521,0.115-0.521c0.061-0.212-0.03-0.435-0.22-0.543c-0.19-0.109-0.429-0.071-0.579,0.087
	c-1.082,1.152-1.404,2.522-1.484,2.965c-0.406,0.453-1.149,0.759-1.894,0.987c-1.151,0.354-2.334,0.493-2.581,0.52h0
	c-0.015-0.002-0.03-0.002-0.046-0.002c-0.146,0-0.305,0.043-0.46,0.136c-0.191,0.118-0.389,0.323-0.536,0.575
	c-0.299,0.514-0.367,1.195,0.011,1.655c0.315,0.384,1.039,0.691,2.477,0.377c3.059-0.67,3.981-0.207,3.981-0.207
	c0.006,0.004,0.012,0.008,0.017,0.01c1.353,0.698,3.042,0.552,3.042,0.552c0.19-0.018,0.351-0.146,0.409-0.331
	c0.046-0.147,0.016-0.305-0.073-0.425C302.889,403.407,304.251,401.984,304.251,400.245z M298.243,402.87
	c-0.093-0.052-1.231-0.642-4.647,0.108c-0.414,0.091-0.747,0.125-1.012,0.113c-0.277-0.015-0.455-0.059-0.54-0.179
	c-0.117-0.164-0.019-0.391,0.084-0.566c0.054-0.093,0.174-0.204,0.209-0.236c0.02,0,0.041,0,0.061-0.003
	c0,0,1.427-0.137,2.813-0.561c0.995-0.306,1.955-0.772,2.438-1.402c0.052-0.068,0.084-0.149,0.095-0.232
	c0,0,0.045-0.376,0.237-0.897c0.02,0.329,0.071,0.664,0.171,0.984c0.062,0.195,0.241,0.329,0.446,0.332c0,0,0.513,0.019,1.008,0.45
	c-0.155,0.042-0.31,0.096-0.442,0.163c-0.346,0.176-0.558,0.447-0.583,0.764c-0.009,0.106,0.007,0.232,0.057,0.37
	c0.068,0.185,0.213,0.412,0.405,0.65c0.145,0.174,0.315,0.359,0.489,0.535C299.124,403.203,298.664,403.087,298.243,402.87z
	 M300.991,402.561c-0.319,0-0.624-0.065-0.9-0.182c-0.041-0.018-0.085-0.029-0.127-0.035c-0.066-0.071-0.128-0.144-0.186-0.215
	c-0.08-0.097-0.165-0.236-0.214-0.317c0.048-0.026,0.115-0.063,0.166-0.081c0.348-0.123,0.772-0.146,0.772-0.146
	c0.164-0.012,0.311-0.104,0.388-0.248s0.075-0.319-0.006-0.459c-0.582-1.018-1.421-1.341-1.899-1.443
	c-0.019-0.089-0.032-0.177-0.044-0.265c0.006-0.008,0.011-0.018,0.015-0.027c0.393-0.72,1.158-1.211,2.036-1.211
	c1.277,0,2.314,1.037,2.314,2.314C303.305,401.523,302.269,402.561,300.991,402.561z M305.914,390.409
	c0.009-0.011,0.016-0.021,0.023-0.032c0.206-0.315,0.295-0.7,0.104-1.093c-0.13-0.27-0.278-0.454-0.467-0.567
	c-0.189-0.113-0.432-0.171-0.784-0.111c-0.337,0.057-0.83,0.241-1.587,0.593c-0.661,0.308-1.198,0.166-1.724-0.161
	c-0.651-0.403-1.284-1.049-2.044-1.632c-1.513-1.16-2.675-2.441-2.675-2.441c-0.053-0.059-0.119-0.103-0.194-0.129
	c0,0-1.361-0.449-1.694,0.824c-0.045,0.178-0.034,0.394,0.064,0.639c0.094,0.232,0.277,0.512,0.537,0.819
	c0.866,1.027,2.649,2.472,4.119,3.79c0,0,0.547,0.474,0.547,1.084c0,0.447-0.011,0.925,0.086,1.27
	c0.077,0.273,0.217,0.485,0.417,0.621c0.176,0.119,0.406,0.191,0.718,0.159c0.309,1.478,1.621,2.589,3.19,2.589
	c1.798,0,3.26-1.461,3.26-3.26C307.811,392.06,307.033,390.925,305.914,390.409z M301.301,393.095
	c-0.053,0.01-0.097,0.016-0.131,0.003c-0.024-0.008-0.019-0.041-0.027-0.067c-0.016-0.049-0.027-0.105-0.036-0.164
	c-0.037-0.262-0.023-0.578-0.023-0.875c0-0.499-0.216-0.945-0.431-1.268c-0.215-0.322-0.43-0.52-0.43-0.52
	c-1.434-1.289-3.182-2.695-4.029-3.697c-0.155-0.184-0.277-0.35-0.352-0.498c-0.021-0.043-0.043-0.111-0.05-0.131
	c0.064-0.202,0.243-0.203,0.357-0.181c0.311,0.331,1.38,1.439,2.71,2.458c0.787,0.604,1.447,1.269,2.121,1.686
	c0.799,0.496,1.616,0.683,2.622,0.216c0.618-0.289,1.026-0.455,1.314-0.513c0.077-0.015,0.132-0.029,0.179-0.013
	c0.018,0.007,0.02,0.029,0.031,0.047c0.023,0.035,0.044,0.075,0.064,0.118c0.016,0.032,0.005,0.064-0.007,0.094
	c-0.023,0.055-0.06,0.105-0.098,0.15c-0.069,0.08-0.146,0.146-0.199,0.187c-0.111-0.012-0.222-0.017-0.335-0.017
	C302.844,390.11,301.442,391.424,301.301,393.095z M304.55,395.686c-1.277,0-2.314-1.038-2.314-2.315
	c0-1.277,1.037-2.314,2.314-2.314c1.278,0,2.315,1.037,2.315,2.314C306.865,394.648,305.828,395.686,304.55,395.686z
	 M316.585,393.201l-0.566-0.62l-0.487-0.967c-0.082-0.16-0.244-0.261-0.424-0.261c-0.177,0-0.343,0.101-0.423,0.261l-0.484,0.964
	l-0.571,0.624c-0.164,0.179-0.166,0.455-0.002,0.635l0.599,0.665l0.459,0.923c0.08,0.164,0.25,0.267,0.433,0.263
	c0.185-0.004,0.349-0.112,0.423-0.28l0.416-0.931l0.617-0.623C316.75,393.674,316.754,393.388,316.585,393.201z M315.224,393.871
	c-0.042,0.041-0.074,0.088-0.097,0.141l-0.042,0.094l-0.042-0.084c-0.02-0.037-0.044-0.074-0.072-0.105l-0.353-0.394l0.323-0.355
	c0.029-0.031,0.056-0.067,0.073-0.107l0.093-0.183l0.096,0.188c0.019,0.039,0.044,0.075,0.072,0.106l0.309,0.335L315.224,393.871z
	 M313.565,389.729l-1.114-1.218l-0.951-1.887c-0.082-0.16-0.244-0.259-0.423-0.259c-0.18,0-0.342,0.1-0.421,0.26l-0.947,1.879
	l-1.121,1.226c-0.164,0.179-0.166,0.455-0.002,0.636l1.172,1.302l0.896,1.803c0.081,0.164,0.249,0.266,0.434,0.263
	c0.182-0.003,0.346-0.112,0.422-0.279l0.819-1.837l1.226-1.235C313.729,390.202,313.735,389.915,313.565,389.729z M311.598,391.012
	c-0.04,0.041-0.073,0.088-0.096,0.141l-0.446,1l-0.479-0.963c-0.02-0.039-0.044-0.074-0.071-0.106l-0.93-1.032l0.875-0.958
	c0.03-0.031,0.055-0.067,0.072-0.106l0.555-1.099l0.559,1.107c0.019,0.039,0.043,0.075,0.074,0.106l0.855,0.934L311.598,391.012z"/>
</svg>
