<?xml version="1.0" encoding="utf-8"?>
<!-- Generator: Adobe Illustrator 16.0.0, SVG Export Plug-In . SVG Version: 6.00 Build 0)  -->
<!DOCTYPE svg PUBLIC "-//W3C//DTD SVG 1.1//EN" "http://www.w3.org/Graphics/SVG/1.1/DTD/svg11.dtd">
<svg version="1.1" id="Layer_1" xmlns="http://www.w3.org/2000/svg" xmlns:xlink="http://www.w3.org/1999/xlink" x="0px" y="0px"
	 width="48px" height="48px" viewBox="0 0 48 48" enable-background="new 0 0 48 48" xml:space="preserve">
<g>
	<g>
		<path fill-rule="evenodd" clip-rule="evenodd" fill="#252840" d="M47.642,3.526c-0.365-0.198-0.968-0.143-1.397-0.003
			c-3.845,1.267-7.65,2.648-11.515,3.854c-3.469,1.081-6.579,2.602-8.775,5.646c-0.582,0.808-1.391,0.717-1.979-0.047
			c-0.959-1.253-1.911-2.513-2.887-3.75c-1.721-2.188-4.119-1.951-5.404,0.546c-0.835,1.623-1.58,3.296-2.445,4.904
			c-0.215,0.402-0.7,0.734-1.136,0.932c-0.842,0.384-1.751,0.618-2.606,0.969c-0.591,0.242-0.984,0.685-0.627,1.354
			c0.321,0.601,0.839,0.553,1.391,0.277c0.462-0.23,0.949-0.417,1.223-0.538c0.154,0.766,0.05,1.797,0.474,2.107
			c3.074,2.256,6.538,3.057,10.405,0.695c0.551-0.335,0.943-0.328,1.457-0.013c1.594,0.98,2.682,2.345,3.292,4.11
			c0.461,1.332,0.663,1.418,1.905,0.954c2.958,3.571,2.999,8.135,0.167,12.225c-0.747,1.076-1.709,1.72-2.972,1.563
			c-1.619-0.198-3.22-0.583-4.812-0.95c-0.589-0.136-1.104-0.193-1.369,0.427c-0.267,0.625,0.082,1.017,0.665,1.241
			c0.229,0.089,0.451,0.196,0.826,0.362c-2.858,0.955-6.061,0.484-8.306-1.044c-0.568-0.388-1.242-0.669-1.91-0.859
			c-1.776-0.5-3.308-1.3-4.255-2.981c1.289-0.74,1.284-1.434,0.03-2.162c-0.185-0.108-0.377-0.21-0.573-0.297
			c-1.968-0.884-2.863-2.502-3.145-4.553c-0.478-3.49,0.188-4.588,3.47-5.899c0.446-0.179,0.985-0.555,1.11-0.956
			c0.096-0.304-0.396-0.792-0.657-1.255c0.344-0.38,0.631-0.924-0.022-1.447c-0.612-0.493-1.095-0.073-1.47,0.379
			c-1.253,1.499-2.486,3.012-3.695,4.544c-0.259,0.329-0.498,0.755-0.54,1.158c-0.335,3.203-0.042,6.236,2.498,8.622
			c0.293,0.274,0.538,0.658,0.663,1.039c0.996,2.983,3.064,4.76,6.073,5.52c0.41,0.103,0.846,0.225,1.183,0.458
			c2.886,2.029,6.097,2.605,9.42,1.658c2.422-0.691,4.737-1.467,7.282-0.715c0.483,0.142,1.063-0.067,1.6-0.098
			c0.318-0.019,0.652-0.062,0.958,0.008c4.124,0.926,7.533-0.432,10.536-3.204c0.535-0.496,1.175-0.924,1.84-1.221
			c1.492-0.668,2.545-1.631,2.986-3.278c1.539-5.751-1.294-11.416-6.84-13.536c-0.563-0.215-1.225-0.253-1.722-0.564
			c-2.771-1.726-5.685-1.741-8.695-0.833c-0.271,0.082-0.56,0.192-0.828,0.167c-1.325-0.122-2.644-0.288-4.005-0.442
			c0.948-1.46,1.914-3.042,2.976-4.558c1.42-2.032,3.352-3.412,5.694-4.215c1.863-0.637,3.731-1.268,5.598-1.899
			c2.78-0.94,5.566-1.87,8.344-2.826C47.999,4.8,48.305,3.887,47.642,3.526z M16.486,12.197c0.07-0.145,0.225-0.34,0.353-0.349
			c1.392-0.103,1.209-0.893,0.644-2.045c0.623-0.037,1.137-0.176,1.564-0.045c0.194,0.061,0.162,0.691,0.334,1.007
			c0.207,0.381,0.47,0.773,0.808,1.029c0.368,0.28,0.851,0.409,1.31,0.618c-0.81,1.33-0.704,1.685,0.57,2.131
			c-1.555,0.54-3,1.04-4.257,1.477c-0.587-0.293-1.038-0.695-1.461-0.666c-0.253,0.02-0.394,0.777-0.703,1.081
			c-0.362,0.355-0.855,0.578-1.291,0.854c-0.073-0.077-0.148-0.152-0.221-0.23C14.917,15.437,15.695,13.813,16.486,12.197z
			 M14.348,19.105c3.256-1.113,6.417-2.193,9.691-3.313C22.231,19.704,17.836,21.206,14.348,19.105z M38.544,22.588
			c0.632,0.779,1.232,0.94,1.924,0.131c3.942,1.921,5.95,7.245,4.173,11.22c-0.237,0.529-0.827,1.101-1.366,1.256
			c-1.531,0.438-3.131,0.629-4.679,1.014c-0.432,0.108-0.774,0.562-1.158,0.855c0.359,0.317,0.71,0.646,1.088,0.94
			c0.093,0.072,0.272,0.029,0.628,0.053c-1.503,1.199-3.055,1.798-4.769,1.908c-0.881,0.056-1.774-0.113-2.664-0.198
			c-0.517-0.05-1.03-0.139-1.604-0.218c0.101-0.159,0.229-0.388,0.384-0.597c3.44-4.692,3.457-9.728,0.076-14.461
			c-0.198-0.278-0.267-0.746-0.204-1.087c0.146-0.811-0.337-1.369-1.121-1.18c-0.832,0.2-0.832,0.2-1.525-0.603
			C31.137,19.458,35.863,19.294,38.544,22.588z"/>
		<path fill-rule="evenodd" clip-rule="evenodd" fill="#252840" d="M19.537,30.549c-0.547,0.971-2.15,1.732-3.625,1.722
			c-0.137-0.152-0.671-0.486-0.658-0.794c0.013-0.337,0.488-0.728,0.848-0.956c0.673-0.427,1.384-0.801,2.119-1.104
			c0.393-0.16,0.87-0.129,1.309-0.186C19.542,29.677,19.724,30.218,19.537,30.549z"/>
		<path fill-rule="evenodd" clip-rule="evenodd" fill="#252840" d="M12.949,23.957c-0.612,0.37-0.995,0.787-1.304,0.74
			c-0.318-0.052-0.566-0.555-0.846-0.861c0.312-0.28,0.613-0.762,0.937-0.777C12.049,23.044,12.382,23.513,12.949,23.957z"/>
		<path fill-rule="evenodd" clip-rule="evenodd" fill="#252840" d="M17.076,28.324c-0.025,0.323-0.487,0.832-0.791,0.854
			c-0.278,0.022-0.792-0.458-0.848-0.776c-0.053-0.301,0.361-0.681,0.747-1.314C16.637,27.681,17.097,28.021,17.076,28.324z"/>
		<path fill-rule="evenodd" clip-rule="evenodd" fill="#252840" d="M26.635,32.869c-0.613,0.414-0.979,0.851-1.277,0.81
			c-0.325-0.049-0.583-0.541-0.874-0.837c0.299-0.287,0.576-0.764,0.903-0.801C25.684,32.008,26.036,32.447,26.635,32.869z"/>
		<path fill-rule="evenodd" clip-rule="evenodd" fill="#252840" d="M13.418,35.049c-0.021,0.315-0.494,0.82-0.791,0.838
			c-0.284,0.016-0.799-0.462-0.839-0.773c-0.043-0.312,0.376-0.684,0.763-1.301C12.987,34.397,13.438,34.737,13.418,35.049z"/>
		<path fill-rule="evenodd" clip-rule="evenodd" fill="#252840" d="M36.199,36.376c0.025,0.304-0.436,0.649-0.886,1.244
			c-0.394-0.623-0.823-0.998-0.775-1.301c0.052-0.32,0.563-0.801,0.854-0.787C35.691,35.545,36.173,36.053,36.199,36.376z"/>
		<path fill-rule="evenodd" clip-rule="evenodd" fill="#252840" d="M36.614,30.137c-0.591,0.396-0.954,0.832-1.268,0.797
			c-0.324-0.038-0.59-0.529-0.885-0.824c0.299-0.291,0.579-0.789,0.901-0.816C35.677,29.266,36.032,29.72,36.614,30.137z"/>
		<path fill-rule="evenodd" clip-rule="evenodd" fill="#252840" d="M35.143,22.897c0.039,0.312-0.406,0.685-0.812,1.29
			c-0.417-0.583-0.862-0.932-0.84-1.246c0.027-0.323,0.508-0.609,0.793-0.911C34.59,22.317,35.104,22.577,35.143,22.897z"/>
		<path fill-rule="evenodd" clip-rule="evenodd" fill="#252840" d="M41.406,32.643c-0.612,0.386-0.998,0.816-1.306,0.767
			c-0.314-0.05-0.774-0.579-0.762-0.882c0.01-0.291,0.54-0.767,0.856-0.779C40.509,31.734,40.844,32.2,41.406,32.643z"/>
		<path fill-rule="evenodd" clip-rule="evenodd" fill="#252840" d="M41.384,26.499c-0.047,0.319-0.56,0.781-0.862,0.779
			c-0.281-0.002-0.758-0.524-0.778-0.847c-0.019-0.31,0.427-0.648,0.856-1.23C40.998,25.819,41.43,26.196,41.384,26.499z"/>
		<path fill-rule="evenodd" clip-rule="evenodd" fill="#252840" d="M18.944,13.519c-0.027,0.321-0.51,0.84-0.803,0.846
			c-0.301,0.006-0.819-0.471-0.865-0.79c-0.041-0.308,0.398-0.684,0.797-1.294C18.51,12.864,18.968,13.209,18.944,13.519z"/>
	</g>
</g>
</svg>
