<?xml version="1.0" encoding="utf-8"?>
<!-- Generator: Adobe Illustrator 16.0.0, SVG Export Plug-In . SVG Version: 6.00 Build 0)  -->
<!DOCTYPE svg PUBLIC "-//W3C//DTD SVG 1.1//EN" "http://www.w3.org/Graphics/SVG/1.1/DTD/svg11.dtd">
<svg version="1.1" id="Layer_2" xmlns="http://www.w3.org/2000/svg" xmlns:xlink="http://www.w3.org/1999/xlink" x="0px" y="0px"
	 width="48px" height="48px" viewBox="290 380 32 32" enable-background="new 290 380 32 32" xml:space="preserve">
<path fill="#252840" d="M296.751,382.518c-0.281,0-0.51-0.227-0.51-0.51v-0.318c0-0.282,0.228-0.511,0.51-0.511
	s0.51,0.229,0.51,0.511v0.318C297.261,382.29,297.033,382.518,296.751,382.518z M317.75,402.646l-6.595,3.393
	c-0.068,0.037-0.146,0.057-0.228,0.06c-0.005,0-0.01,0-0.016,0c-0.003,0-0.009,0-0.015,0c-0.081-0.003-0.159-0.022-0.228-0.06
	l-3.007-1.547v2.443c0,0.191-0.105,0.365-0.277,0.451l-6.595,3.392c-0.067,0.037-0.145,0.057-0.228,0.06c-0.004,0-0.009,0-0.013,0
	c-0.005,0-0.009,0-0.014,0c-0.083-0.003-0.16-0.022-0.229-0.06l-6.595-3.392c-0.171-0.086-0.277-0.263-0.277-0.451v-7.889v-0.003
	l0,0c0,0,0,0,0-0.003l0,0c0-0.126,0.046-0.24,0.123-0.326c0.02-0.025,0.042-0.047,0.065-0.067c0,0,0,0,0,0
	c0.03-0.023,0.063-0.047,0.098-0.061l2.741-1.409l-1.153-0.592c-0.169-0.088-0.276-0.265-0.276-0.454v-2.815
	c0-0.28,0.229-0.508,0.511-0.508c0.281,0,0.51,0.226,0.51,0.508v2.504l1.525,0.786l2.739-1.41c0.146-0.075,0.319-0.075,0.465,0
	l0.855,0.439v-3.689l-5.584-2.87v1.978c0,0.282-0.229,0.509-0.51,0.509s-0.51-0.227-0.51-0.509v-2.814v0l0,0
	c0-0.001,0-0.001,0-0.001l0,0c0-0.127,0.048-0.243,0.125-0.332c0.019-0.021,0.04-0.042,0.062-0.061
	c0.03-0.025,0.064-0.046,0.099-0.064l6.595-3.389c0.146-0.076,0.321-0.076,0.466,0l6.596,3.389c0.034,0.017,0.067,0.038,0.095,0.061
	c0.024,0.021,0.05,0.042,0.068,0.066c0.076,0.089,0.122,0.204,0.124,0.329l0,0c0,0.001,0,0.001,0,0.001s0,0,0,0.001v0v2.944
	l1.417-0.729c0.147-0.075,0.32-0.075,0.468,0l6.593,3.388c0.037,0.018,0.071,0.039,0.102,0.064l0,0
	c0.022,0.02,0.044,0.039,0.062,0.063c0.078,0.088,0.123,0.203,0.123,0.33l0,0l0,0l0,0c0,0.003,0,0.003,0,0.003v7.889
	C318.027,402.386,317.921,402.56,317.75,402.646z M305.424,394.303l5.488,2.819l5.49-2.819l-5.49-2.823L305.424,394.303z
	 M302.146,391.061l5.489-2.822l-5.489-2.82l-5.488,2.82L302.146,391.061z M302.657,396.158l1.142,0.587v-2.442l0,0l0,0
	c0-0.003,0-0.003,0-0.003l0,0c0-0.127,0.047-0.242,0.124-0.33c0.02-0.023,0.04-0.043,0.062-0.063
	c0.032-0.025,0.065-0.047,0.101-0.064l4.156-2.135v-2.632l-5.584,2.87V396.158L302.657,396.158z M295.062,399.046l5.488,2.819
	l5.489-2.819l-1.972-1.015l0,0l-3.516-1.81L295.062,399.046z M306.643,399.88l-5.583,2.869v2.503c0,0.283-0.227,0.512-0.51,0.512
	c-0.281,0-0.51-0.229-0.51-0.512v-2.503l-5.584-2.869v6.742l5.584,2.87v-1.979c0-0.28,0.229-0.509,0.51-0.509
	c0.282,0,0.51,0.226,0.51,0.509v1.979l5.583-2.87V399.88z M317.007,395.141l-5.583,2.869v2.503c0,0.28-0.228,0.509-0.512,0.509
	c-0.281,0-0.51-0.229-0.51-0.509v-2.503l-5.583-2.869v2.13l2.558,1.315c0.034,0.014,0.065,0.037,0.098,0.059
	c0.023,0.022,0.046,0.044,0.066,0.069c0.074,0.086,0.122,0.2,0.122,0.326l0,0c0,0,0,0,0,0.003l0,0v0.003v4.3l2.739,1.407v-1.979
	c0-0.283,0.228-0.512,0.51-0.512c0.284,0,0.512,0.229,0.512,0.512v1.979l5.583-2.871V395.141L317.007,395.141z M309.265,382.91
	c-0.282,0-0.511,0.229-0.511,0.511v0.318c0,0.282,0.229,0.51,0.511,0.51c0.281,0,0.51-0.227,0.51-0.51v-0.318
	C309.774,383.14,309.546,382.91,309.265,382.91z M312.046,386.72c0.278,0,0.508-0.229,0.508-0.511v-0.318
	c0-0.283-0.228-0.511-0.508-0.511c-0.283,0-0.512,0.228-0.512,0.511v0.318C311.534,386.491,311.763,386.72,312.046,386.72z
	 M318.232,385.111c-0.281,0-0.51,0.228-0.51,0.511v0.318c0,0.281,0.229,0.51,0.51,0.51c0.282,0,0.51-0.228,0.51-0.51v-0.318
	C318.742,385.339,318.515,385.111,318.232,385.111z M320.652,394.83c0.282,0,0.511-0.229,0.511-0.51v-0.319
	c0-0.28-0.227-0.509-0.511-0.509c-0.282,0-0.51,0.229-0.51,0.509v0.319C320.143,394.602,320.37,394.83,320.652,394.83z
	 M303.99,382.917c0.283,0,0.511-0.229,0.511-0.51v-0.319c0-0.282-0.228-0.51-0.511-0.51c-0.281,0-0.508,0.228-0.508,0.51v0.319
	C303.481,382.688,303.709,382.917,303.99,382.917z M293.005,384.667c-0.281,0-0.51,0.229-0.51,0.511v0.317
	c0,0.282,0.228,0.511,0.51,0.511c0.282,0,0.51-0.228,0.51-0.511v-0.317C293.516,384.896,293.287,384.667,293.005,384.667z
	 M291.498,394.092c-0.282,0-0.511,0.229-0.511,0.51v0.319c0,0.28,0.229,0.508,0.511,0.508c0.282,0,0.51-0.226,0.51-0.508v-0.319
	C292.007,394.32,291.779,394.092,291.498,394.092z M292.51,402.571c-0.281,0-0.51,0.229-0.51,0.51v0.319
	c0,0.28,0.228,0.511,0.51,0.511c0.282,0,0.511-0.228,0.511-0.511v-0.319C293.021,402.8,292.792,402.571,292.51,402.571z
	 M316.955,382.852c0.283,0,0.512-0.229,0.512-0.51v-0.319c0-0.281-0.229-0.509-0.512-0.509c-0.28,0-0.507,0.228-0.507,0.509v0.319
	C316.448,382.623,316.675,382.852,316.955,382.852z M317.345,388.629c-0.282,0-0.511,0.228-0.511,0.51v0.319
	c0,0.281,0.229,0.51,0.511,0.51c0.28,0,0.51-0.229,0.51-0.51v-0.319C317.854,388.857,317.625,388.629,317.345,388.629z
	 M320.49,400.475c-0.282,0-0.51,0.229-0.51,0.508v0.319c0,0.283,0.228,0.512,0.51,0.512c0.281,0,0.51-0.229,0.51-0.512v-0.319
	C321,400.703,320.771,400.475,320.49,400.475z M317.667,407.047c-0.28,0-0.509,0.228-0.509,0.511v0.319
	c0,0.282,0.229,0.511,0.509,0.511c0.284,0,0.513-0.229,0.513-0.511v-0.319C318.18,407.274,317.949,407.047,317.667,407.047z"/>
</svg>
