<?xml version="1.0" encoding="utf-8"?>
<!-- Generator: Adobe Illustrator 16.0.0, SVG Export Plug-In . SVG Version: 6.00 Build 0)  -->
<!DOCTYPE svg PUBLIC "-//W3C//DTD SVG 1.1//EN" "http://www.w3.org/Graphics/SVG/1.1/DTD/svg11.dtd">
<svg version="1.1" id="Layer_3" xmlns="http://www.w3.org/2000/svg" xmlns:xlink="http://www.w3.org/1999/xlink" x="0px" y="0px"
	 width="48px" height="48px" viewBox="0 0 48 48" enable-background="new 0 0 48 48" xml:space="preserve">
<g>
	<g>
		<path fill="#252840" d="M12.688,18.44c0-3.819,0-7.594,0-11.417c-0.185,0-0.355,0.005-0.526-0.001
			c-0.453-0.019-0.742-0.273-0.749-0.715c-0.012-1.229-0.013-2.457,0-3.686c0.007-0.465,0.296-0.726,0.769-0.727
			c3.358-0.004,6.715-0.004,10.069,0c0.509,0,0.781,0.272,0.784,0.784c0.007,1.157,0.003,2.314,0.002,3.474
			c-0.002,0.612-0.257,0.864-0.878,0.871c-0.115,0.002-0.232,0-0.379,0c0,3.801,0,7.583,0,11.416c0.106,0,0.219,0,0.331,0
			c0.854,0,1.707-0.005,2.563,0c3.01,0.015,5.273,2.287,5.273,5.298c0.003,5.567-0.014,11.133,0.013,16.702
			c0.006,1.584-0.395,2.975-1.552,4.17c4.292,0,8.535,0,12.802,0c0-1.896,0-3.781,0-5.707c-0.134,0-0.249,0-0.362,0
			c-2.292,0-4.587,0-6.877-0.002c-0.657-0.002-0.909-0.252-0.909-0.915c0-5.883,0-11.767,0-17.649c0-0.679,0.246-0.919,0.94-0.919
			c2.27-0.001,4.538-0.001,6.808-0.001c0.115,0,0.233,0,0.387,0c0-1.908,0-3.805,0-5.722c-4.382,0-8.764,0-13.194,0
			c0,0.564,0,1.122,0,1.679c0,0.234,0.009,0.468-0.003,0.702c-0.017,0.425-0.305,0.708-0.708,0.716
			c-0.42,0.006-0.728-0.275-0.745-0.719c-0.017-0.537-0.003-1.077-0.003-1.614c0-0.456-0.003-0.912,0-1.37
			c0.003-0.613,0.267-0.877,0.873-0.88c0.924-0.001,1.848,0,2.813,0c0.005-0.138,0.017-0.261,0.017-0.384
			c0-0.831-0.003-1.66,0-2.492c0.003-0.596,0.266-0.865,0.849-0.867c2.351-0.001,4.701-0.001,7.054,0
			c0.583,0,0.843,0.273,0.843,0.872c0.003,0.817,0,1.637,0,2.456c0,0.124,0,0.25,0,0.414c0.554,0,1.064,0,1.579,0
			c0.431,0,0.862-0.004,1.298,0c0.543,0.006,0.81,0.272,0.82,0.821c0.006,0.282,0.003,0.563,0.003,0.843c0,10.104,0,20.213,0,30.317
			c0,0.138,0,0.275,0,0.454c0.585,0,1.13-0.003,1.676,0.003c0.151,0.002,0.308,0.008,0.45,0.048
			c0.326,0.098,0.535,0.437,0.487,0.763c-0.047,0.352-0.327,0.628-0.677,0.63c-1.195,0.009-2.391,0.004-3.586,0.009
			c-0.825,0.001-1.65,0.012-2.477,0.012c-11.624,0-23.25,0-34.877,0c-0.65,0-0.992-0.247-1-0.72
			c-0.008-0.483,0.346-0.741,1.016-0.741c0.756-0.002,1.512,0,2.335,0c-0.109-0.14-0.175-0.227-0.249-0.309
			c-0.848-0.976-1.287-2.114-1.289-3.402c-0.007-5.779-0.013-11.555,0-17.334c0.008-2.858,2.294-5.126,5.165-5.16
			C10.659,18.428,11.653,18.44,12.688,18.44z M14.188,18.438c0.318,0,0.596,0,0.875,0c0.655,0,0.991,0.242,0.998,0.717
			c0.008,0.489-0.336,0.746-1.009,0.746c-1.754,0-3.509-0.005-5.263,0c-2.213,0.006-3.823,1.623-3.824,3.842
			c-0.004,5.693-0.004,11.389,0,17.084c0.001,2.188,1.624,3.813,3.815,3.814c4.959,0.005,9.917,0.007,14.876,0.002
			c2.212-0.003,3.829-1.623,3.832-3.837c0.002-5.684,0.002-11.367,0-17.05c-0.003-2.24-1.613-3.85-3.849-3.855
			c-1.122-0.005-2.246,0-3.368,0c-0.756,0-0.989-0.232-0.989-0.98c0-3.813,0-7.624,0-11.436c0-0.146,0-0.293,0-0.438
			c-2.065,0-4.071,0-6.095,0C14.188,10.843,14.188,14.615,14.188,18.438z M34.557,20.892c0,5.528,0,11.027,0,16.535
			c2.23,0,4.433,0,6.653,0c0.009-0.113,0.02-0.205,0.02-0.297c0-5.297-0.002-10.593,0.006-15.888c0-0.294-0.086-0.375-0.377-0.375
			c-1.986,0.012-3.972,0.006-5.963,0.007C34.782,20.874,34.668,20.885,34.557,20.892z M21.568,3.382c-2.911,0-5.791,0-8.682,0
			c0,0.731,0,1.439,0,2.152c2.905,0,5.784,0,8.682,0C21.568,4.808,21.568,4.11,21.568,3.382z M37.528,12.196
			c0-0.68-0.014-1.319,0.006-1.96c0.01-0.276-0.098-0.328-0.346-0.327c-1.706,0.01-3.408,0.005-5.117,0.008
			c-0.114,0-0.232,0.023-0.33,0.035c0,0.781,0,1.512,0,2.245C33.671,12.196,35.572,12.196,37.528,12.196z"/>
		<path fill="#252840" d="M9.247,32.929c0.02-4.446,3.609-8.015,8.031-7.98c4.415,0.033,7.948,3.627,7.922,8.055
			c-0.027,4.415-3.627,7.93-8.102,7.908C12.792,40.891,9.228,37.265,9.247,32.929z M10.71,32.931c0,3.596,2.925,6.523,6.515,6.517
			c3.586-0.006,6.505-2.907,6.519-6.479c0.013-3.612-2.926-6.57-6.519-6.559C13.621,26.419,10.708,29.335,10.71,32.931z"/>
		<path fill="#252840" d="M17.193,37.786c-2.169-0.029-3.683-1.946-3.271-4.154c0.335-1.791,1.22-3.319,2.297-4.752
			c0.146-0.195,0.297-0.393,0.468-0.566c0.305-0.313,0.784-0.34,1.062-0.005c1.404,1.677,2.557,3.489,2.825,5.726
			C20.815,36.048,19.212,37.812,17.193,37.786z M17.222,29.978c-0.943,1.338-1.751,2.684-1.911,4.309
			c-0.106,1.084,0.795,2.031,1.893,2.041c1.103,0.012,2.037-0.949,1.936-2.043C18.985,32.659,18.17,31.315,17.222,29.978z"/>
	</g>
</g>
</svg>
